<svg width="694" height="645" viewBox="0 0 694 645" fill="none" xmlns="http://www.w3.org/2000/svg">
<path d="M368.723 644.092C511.06 644.092 626.446 637.074 626.446 628.416C626.446 619.758 511.06 612.74 368.723 612.74C226.387 612.74 111 619.758 111 628.416C111 637.074 226.387 644.092 368.723 644.092Z" fill="#CED3E6"/>
<path d="M352.655 191.867L378.687 287.063L369.399 276.369C372.833 278.202 376.819 279.607 381.214 280.586C385.609 281.583 390.413 282.152 395.431 282.401C400.449 282.668 405.68 282.615 411.036 282.401C416.392 282.17 421.855 281.778 427.406 281.298H427.442C435.627 280.604 442.834 286.672 443.527 294.857C444.186 302.668 438.652 309.572 431.054 310.818C425.325 311.725 419.506 312.597 413.545 313.291C407.567 313.985 401.446 314.501 395.111 314.643C388.776 314.786 382.211 314.536 375.413 313.558C368.634 312.579 361.606 310.8 354.737 307.846C350.342 305.942 347.21 302.348 345.787 298.131L345.449 297.134L314.221 203.522C310.716 193.006 316.392 181.618 326.926 178.113C337.442 174.607 348.83 180.283 352.335 190.817C352.442 191.138 352.566 191.529 352.655 191.867Z" fill="#EA9B7A"/>
<path d="M362.673 536.957C362.281 536.957 361.89 536.886 361.498 536.743L225.128 487.58C223.349 486.939 222.423 484.964 223.064 483.185C223.705 481.405 225.68 480.462 227.459 481.121L363.829 530.284C365.609 530.925 366.552 532.9 365.894 534.679C365.413 536.085 364.079 536.957 362.673 536.957Z" fill="#C77E2E"/>
<path d="M220.627 536.957C219.221 536.957 217.904 536.085 217.388 534.679C216.748 532.9 217.673 530.925 219.452 530.266L357.442 480.284C359.221 479.644 361.196 480.569 361.855 482.348C362.495 484.128 361.57 486.103 359.791 486.761L221.801 536.743C221.41 536.886 221.018 536.957 220.627 536.957Z" fill="#C77E2E"/>
<path d="M374.808 624.822C371.908 624.822 369.381 622.669 368.972 619.715L344.345 435.782H241.267L217.014 619.715C216.587 622.936 213.633 625.213 210.413 624.786C207.192 624.359 204.914 621.405 205.342 618.185L230.27 429.163C230.662 426.227 233.153 424.038 236.107 424.038H349.506C352.459 424.038 354.95 426.227 355.342 429.145L380.662 618.167C381.089 621.388 378.83 624.359 375.609 624.786C375.324 624.804 375.075 624.822 374.808 624.822Z" fill="#FAAF3A"/>
<path d="M316.659 429.91H243.011C219.683 429.91 194.701 417.134 191.107 394.092C186.32 363.255 185.128 333.415 186.463 306.013C187.975 275.034 202.779 246.209 227.121 226.992C227.121 226.992 241.836 291.102 223.331 379.59C230.413 413.184 316.659 429.91 316.659 429.91Z" fill="#FAAF3A"/>
<path d="M301.303 53.9129C301.303 53.9129 292.548 32.8096 269.363 36.7954C253.171 39.5712 246.267 59.7491 247.21 90.9236C248.598 136.28 233.26 163.611 233.26 163.611L253.616 168.237C253.633 168.219 305.466 90.461 301.303 53.9129Z" fill="#39393B"/>
<path d="M487.032 546.014H454.132C454.132 546.014 446.516 509.501 443.972 489.038C441.41 468.558 440.093 420.035 440.093 420.035C440.093 420.035 413.883 428.558 359.007 425.337C237.423 418.237 283.527 328.913 283.527 328.913C287.637 334.59 312.797 330.657 330.004 333.362C382.797 338.433 428.563 359.145 456.036 370.995C462.655 373.842 468.527 376.867 473.687 380.052C480.306 384.127 484.452 396.529 486.961 412.81C494.452 461.761 487.032 546.014 487.032 546.014Z" fill="#39393B"/>
<path d="M458.225 528.416C457.673 528.416 457.193 528.024 457.068 527.473C452.317 503.985 450.734 474.75 449.452 451.263C448.385 431.778 447.388 413.38 444.879 411.173C442.851 409.376 434.435 410.782 423.794 412.544C402.602 416.067 370.573 421.369 335.271 413.166C316.036 408.682 301.89 399.341 293.242 385.39C278.313 361.333 285.128 331.493 285.199 331.191C285.342 330.55 285.982 330.159 286.623 330.319C287.263 330.461 287.655 331.102 287.495 331.743C287.423 332.027 280.858 360.942 295.27 384.163C303.58 397.561 317.228 406.547 335.822 410.871C370.68 418.985 402.424 413.718 423.438 410.23C436.018 408.149 443.616 406.885 446.481 409.412C449.577 412.152 450.449 425.604 451.837 451.138C453.118 474.554 454.702 503.683 459.417 527.01C459.541 527.651 459.132 528.273 458.492 528.398C458.367 528.416 458.296 528.416 458.225 528.416Z" fill="#585859"/>
<path d="M487.655 529.038H487.637L451.054 528.255C450.395 528.238 449.879 527.704 449.897 527.045C449.915 526.387 450.449 525.871 451.107 525.889L487.691 526.672C488.349 526.69 488.865 527.223 488.847 527.882C488.829 528.522 488.296 529.038 487.655 529.038Z" fill="#585859"/>
<path d="M486.125 588.149H462.904L458.438 560.925L455.982 546.014H484.826L485.289 560.925L486.125 588.149Z" fill="#EA9B7A"/>
<path d="M486.125 588.149H462.904L459.577 567.882L458.438 560.925H485.289L485.52 568.131L486.125 588.149Z" fill="#FAAF3A"/>
<path d="M485.52 568.131L459.577 567.882L458.438 560.925H485.289L485.52 568.131Z" fill="#C77E2E"/>
<path d="M543.42 624.822H455.609C454.95 623.629 454.595 621.957 454.452 619.946C453.901 612.508 456.267 600.658 457.424 593.185C457.566 592.313 457.691 591.494 457.78 590.765C457.94 589.519 458.047 588.469 458.047 587.704C458.047 581.601 463.438 582.651 463.438 582.651C472.317 591.37 482.388 578.291 488.26 582.58C488.26 582.58 488.491 582.757 489.043 583.167C489.541 583.558 490.289 584.163 491.321 585.035C492.815 586.281 494.915 588.096 497.762 590.658C504.737 596.939 516.588 601.067 526.677 605.284C527.958 605.818 529.15 606.37 530.271 606.903C531.107 607.313 531.908 607.722 532.655 608.113C540.912 612.562 543.527 616.832 544.132 619.928C544.719 622.918 543.42 624.822 543.42 624.822Z" fill="#0875F7"/>
<path d="M532.673 608.131C530.413 609.928 525.378 613.54 521.338 613.54C521.16 613.54 520.983 613.54 520.805 613.523C517.958 613.291 507.495 608.149 498.972 603.469C494.096 600.782 489.63 598.149 486.427 596.031C481.178 592.562 480.253 591.245 480.057 590.32C479.292 586.85 485.022 584.448 489.043 583.184C489.541 583.576 490.289 584.181 491.321 585.053C486.338 586.405 482.228 588.54 482.424 589.768C482.922 590.8 488.118 594.75 500.538 601.565C510.022 606.761 519.007 610.943 521 611.12C523.705 611.334 527.673 608.878 530.271 606.939C531.125 607.33 531.926 607.74 532.673 608.131Z" fill="#084FC7"/>
<path d="M543.42 624.822H455.609C454.95 623.629 454.594 621.957 454.452 619.946H544.15C544.719 622.918 543.42 624.822 543.42 624.822Z" fill="#084FC7"/>
<path d="M464.559 624.822H461.943C464.541 621.85 466.979 617.277 466.658 610.765C466.231 602.081 461.036 596.245 457.406 593.184C457.548 592.313 457.673 591.494 457.762 590.764C461.658 593.736 468.224 600.266 468.74 610.658C469.078 616.886 467.032 621.53 464.559 624.822Z" fill="#084FC7"/>
<path d="M496.285 595.854C495.644 595.854 495.039 595.409 494.879 594.75C494.683 593.967 495.164 593.184 495.929 592.989L501.41 591.619C502.192 591.423 502.975 591.903 503.171 592.668C503.367 593.451 502.886 594.234 502.121 594.43L496.641 595.8C496.516 595.836 496.392 595.854 496.285 595.854Z" fill="white"/>
<path d="M490.84 591.299C490.2 591.299 489.595 590.854 489.434 590.195C489.239 589.412 489.719 588.63 490.484 588.434L495.965 587.064C496.748 586.868 497.531 587.348 497.726 588.114C497.922 588.896 497.442 589.679 496.676 589.857L491.196 591.227C491.071 591.281 490.947 591.299 490.84 591.299Z" fill="white"/>
<path d="M501.765 599.039C501.125 599.039 500.52 598.594 500.36 597.936C500.164 597.153 500.644 596.37 501.409 596.192L506.89 594.822C507.673 594.626 508.456 595.106 508.651 595.871C508.847 596.654 508.367 597.437 507.602 597.633L502.121 599.003C501.997 599.039 501.89 599.039 501.765 599.039Z" fill="white"/>
<path d="M507.246 602.117C506.587 602.117 506 601.672 505.84 601.014C505.644 600.231 506.125 599.448 506.89 599.252L512.37 597.882C513.153 597.686 513.936 598.167 514.132 598.932C514.328 599.715 513.847 600.498 513.082 600.676L507.602 602.046C507.495 602.099 507.37 602.117 507.246 602.117Z" fill="white"/>
<path d="M513.242 604.946C512.602 604.946 511.997 604.501 511.837 603.843C511.641 603.06 512.121 602.277 512.887 602.099L518.367 600.729C519.15 600.533 519.933 601.014 520.129 601.779C520.324 602.562 519.844 603.345 519.079 603.54L513.598 604.911C513.474 604.928 513.349 604.946 513.242 604.946Z" fill="white"/>
<path d="M519.719 607.366C519.079 607.366 518.474 606.921 518.314 606.263C518.118 605.48 518.598 604.697 519.364 604.501L524.844 603.131C525.627 602.935 526.41 603.416 526.606 604.181C526.801 604.964 526.321 605.747 525.556 605.925L520.075 607.295C519.951 607.348 519.844 607.366 519.719 607.366Z" fill="white"/>
<path d="M222.637 300.586C222.637 300.586 221.605 307.685 231.107 309.678L330.182 312.988C330.182 312.988 336.872 309.625 335.662 301.333C335.662 301.315 293.829 277.81 222.637 300.586Z" fill="#084FC7"/>
<path d="M331.534 333.344C280.11 361.636 223.954 338.86 223.954 338.86C226.694 331.369 228.74 322.917 230.217 315.23C231.925 306.28 232.886 298.38 233.331 294.234C255.199 293.041 308.829 290.746 329.844 295.728L330.004 304.145L331.534 333.344Z" fill="#EA9B7A"/>
<path d="M293.544 319.786C293.171 322.437 291.961 324.465 290.875 324.305C289.772 324.145 289.203 321.867 289.576 319.216C289.95 316.565 291.16 314.536 292.245 314.697C293.349 314.857 293.918 317.134 293.544 319.786Z" fill="#D96C63"/>
<path d="M329.986 304.145C308.082 302.81 265.004 302.348 230.199 315.213C231.907 306.262 232.868 298.362 233.313 294.216C255.181 293.024 308.812 290.728 329.826 295.711L329.986 304.145Z" fill="#D96C63"/>
<path d="M354.417 263.451C354.203 264.091 353.954 264.678 353.669 265.23C353.563 265.443 353.456 265.657 353.349 265.853C350.591 270.959 346.338 275.39 342.762 278.54C342.015 279.198 341.303 279.785 340.644 280.319C339.328 281.387 338.207 282.223 337.442 282.774C336.73 283.273 336.321 283.54 336.321 283.54C336.321 283.593 336.321 283.629 336.303 283.7C336.267 284.073 336.232 284.483 336.196 284.91C336.071 286.529 335.965 288.451 335.894 290.657C335.822 292.419 335.769 294.358 335.733 296.458C335.716 298.006 335.68 299.625 335.662 301.298C306.605 288.308 246.747 296.511 222.637 300.568C223.082 298.486 223.473 296.44 223.847 294.447C225.555 285.248 226.516 276.974 226.89 269.554C227.459 258.522 226.498 241.938 224.149 224.803C224.007 223.682 223.847 222.579 223.687 221.475C223.58 220.746 223.473 220.034 223.349 219.305C222.53 213.931 221.569 208.539 220.484 203.308C215.733 180.497 219.06 156.564 242.192 153.735C243.865 153.521 245.52 153.344 247.139 153.166C258.029 152.009 266.997 151.6 269.488 151.511C269.95 151.493 270.182 151.493 270.182 151.493L314.879 164.482L319.132 165.71C321.57 166.493 323.829 167.258 325.929 168.005C326.819 168.326 327.691 168.646 328.509 168.949C330.68 169.767 332.637 170.55 334.434 171.351C338.011 172.934 340.84 174.482 343.082 176.066C352.886 183.023 351.374 190.888 351.125 206.422C351.125 206.493 351.125 206.564 351.125 206.635C351.125 206.831 351.125 207.027 351.125 207.24C351.125 207.329 351.125 207.418 351.125 207.507C351.125 208.148 351.125 208.771 351.125 209.411C351.143 211.422 351.214 213.415 351.338 215.408C351.499 218.344 351.765 221.262 352.086 224.109C352.21 225.248 352.335 226.386 352.477 227.525C352.602 228.593 352.744 229.643 352.886 230.692C354.63 244.287 356.854 256.209 354.417 263.451Z" fill="#0875F7"/>
<path d="M351.107 206.635C351.107 206.831 351.107 207.027 351.107 207.24C351.107 207.329 351.107 207.418 351.107 207.507C351.107 208.148 351.107 208.771 351.107 209.411L341.712 215.301C341.427 215.479 341.107 215.532 340.787 215.479C340.431 215.425 340.111 215.212 339.897 214.892C339.506 214.269 339.701 213.468 340.306 213.077L350.271 206.831C350.52 206.671 350.822 206.618 351.107 206.635Z" fill="#084FC7"/>
<path d="M289.185 256.956C288.829 256.956 288.473 256.813 288.206 256.529C287.726 255.995 287.762 255.159 288.295 254.678L297.032 246.813C297.566 246.333 298.402 246.369 298.883 246.902C299.363 247.436 299.327 248.273 298.794 248.753L290.057 256.618C289.808 256.831 289.488 256.956 289.185 256.956Z" fill="#084FC7"/>
<path d="M352.851 230.692L346.872 236.084C346.623 236.315 346.303 236.422 346 236.422C345.644 236.422 345.288 236.28 345.021 235.995C344.541 235.461 344.577 234.625 345.11 234.144L352.441 227.543C352.566 228.593 352.708 229.643 352.851 230.692Z" fill="#084FC7"/>
<path d="M271.463 225.319C271.267 225.016 271.178 224.642 271.267 224.269C271.427 223.557 272.139 223.13 272.851 223.29L284.292 225.995C285.004 226.155 285.431 226.867 285.271 227.578C285.11 228.29 284.399 228.717 283.687 228.557L272.246 225.852C271.908 225.781 271.641 225.585 271.463 225.319Z" fill="#084FC7"/>
<path d="M230.626 247.774C230.27 247.774 229.914 247.632 229.647 247.347C229.167 246.814 229.203 245.977 229.736 245.497L238.473 237.632C239.007 237.152 239.843 237.187 240.324 237.721C240.804 238.255 240.768 239.091 240.235 239.572L231.498 247.436C231.249 247.668 230.946 247.774 230.626 247.774Z" fill="#084FC7"/>
<path d="M332.335 245.906C332.442 245.568 332.708 245.265 333.047 245.123C333.705 244.838 334.488 245.141 334.773 245.799L339.47 256.582C339.755 257.241 339.452 258.023 338.794 258.308C338.136 258.593 337.353 258.29 337.068 257.632L332.37 246.849C332.246 246.529 332.246 246.191 332.335 245.906Z" fill="#084FC7"/>
<path d="M354.417 263.451C354.203 264.091 353.954 264.678 353.669 265.23C353.563 265.443 353.456 265.657 353.349 265.853L346.961 263.842C346.641 263.735 346.392 263.522 346.232 263.255C346.054 262.952 345.983 262.561 346.107 262.205C346.321 261.511 347.068 261.137 347.744 261.351L354.417 263.451Z" fill="#084FC7"/>
<path d="M318.331 264.394C318.687 264.358 319.06 264.465 319.345 264.732C319.879 265.212 319.914 266.048 319.434 266.582L311.534 275.283C311.053 275.817 310.217 275.853 309.683 275.372C309.149 274.892 309.114 274.056 309.594 273.522L317.495 264.821C317.726 264.572 318.028 264.429 318.331 264.394Z" fill="#084FC7"/>
<path d="M313.687 244.322C313.331 244.269 313.011 244.055 312.797 243.735C312.406 243.13 312.601 242.312 313.206 241.92L323.171 235.675C323.776 235.283 324.594 235.479 324.986 236.084C325.377 236.689 325.182 237.507 324.577 237.899L314.612 244.144C314.327 244.322 313.989 244.376 313.687 244.322Z" fill="#084FC7"/>
<path d="M320.039 206.458C320.271 206.724 320.413 207.08 320.36 207.472C320.288 208.184 319.63 208.717 318.918 208.628L307.228 207.347C306.516 207.276 305.982 206.618 306.071 205.906C306.142 205.194 306.801 204.66 307.513 204.749L319.203 206.031C319.523 206.066 319.826 206.226 320.039 206.458Z" fill="#084FC7"/>
<path d="M303.046 181.102C303.135 180.746 303.367 180.443 303.705 180.265C304.345 179.927 305.146 180.159 305.484 180.799L311.054 191.155C311.392 191.796 311.16 192.596 310.52 192.934C309.879 193.272 309.078 193.041 308.74 192.401L303.171 182.045C302.993 181.742 302.957 181.404 303.046 181.102Z" fill="#084FC7"/>
<path d="M342.78 278.557C342.032 279.216 341.321 279.803 340.662 280.337L339.132 276.422C339.007 276.102 339.007 275.782 339.132 275.479C339.257 275.141 339.523 274.856 339.879 274.714C340.555 274.447 341.321 274.785 341.588 275.461L342.78 278.557Z" fill="#084FC7"/>
<path d="M235.306 258.629C235.128 258.308 235.092 257.935 235.235 257.561C235.484 256.885 236.231 256.529 236.907 256.778L247.975 260.764C248.651 261.013 249.007 261.76 248.758 262.436C248.509 263.113 247.762 263.468 247.085 263.219L236.018 259.234C235.697 259.145 235.448 258.913 235.306 258.629Z" fill="#084FC7"/>
<path d="M240.715 273.593C241.071 273.593 241.427 273.753 241.694 274.038C242.175 274.572 242.121 275.408 241.587 275.888L232.779 283.682C232.246 284.162 231.409 284.109 230.929 283.575C230.449 283.041 230.502 282.205 231.036 281.725L239.844 273.931C240.093 273.7 240.413 273.593 240.715 273.593Z" fill="#084FC7"/>
<path d="M256.676 285.96C256.89 286.244 257.014 286.618 256.943 286.992C256.819 287.703 256.142 288.184 255.431 288.059L243.847 286.084C243.135 285.959 242.655 285.283 242.779 284.572C242.904 283.86 243.58 283.379 244.292 283.504L255.876 285.479C256.196 285.532 256.481 285.71 256.676 285.96Z" fill="#084FC7"/>
<path d="M266.374 175.888C266.285 175.55 266.32 175.159 266.534 174.838C266.925 174.233 267.744 174.055 268.349 174.447L278.224 180.817C278.829 181.208 279.007 182.027 278.616 182.632C278.224 183.237 277.406 183.415 276.801 183.023L266.925 176.653C266.64 176.457 266.445 176.191 266.374 175.888Z" fill="#084FC7"/>
<path d="M333.776 183.397C334.096 183.219 334.47 183.183 334.843 183.308C335.52 183.557 335.876 184.304 335.644 184.981L331.712 196.066C331.463 196.742 330.715 197.098 330.039 196.867C329.363 196.618 329.007 195.87 329.239 195.194L333.171 184.109C333.278 183.806 333.509 183.557 333.776 183.397Z" fill="#084FC7"/>
<path d="M328.491 168.966L322.424 176.76C321.979 177.329 321.16 177.436 320.591 176.991C320.022 176.546 319.915 175.728 320.36 175.159L325.911 168.041C326.801 168.326 327.673 168.646 328.491 168.966Z" fill="#084FC7"/>
<path d="M269.114 276.493C269.239 276.867 269.559 277.134 269.915 277.205C270.093 277.241 270.288 277.241 270.466 277.169C270.662 277.098 289.683 270.942 309.684 279.234C319.844 283.451 328.883 285.052 336.196 284.91C336.232 284.483 336.267 284.091 336.303 283.7C336.303 283.646 336.321 283.593 336.321 283.557C336.321 283.557 336.73 283.29 337.442 282.792C330.253 283.148 321.054 281.618 310.502 277.258C289.737 268.646 270.591 274.874 269.79 275.141C269.239 275.337 268.936 275.942 269.114 276.493Z" fill="#084FC7"/>
<path d="M314.861 164.482C312.352 168.361 307.192 172.756 296.729 172.009C282.299 170.959 272.797 157.187 269.487 151.529C269.932 151.511 270.181 151.511 270.181 151.511L314.861 164.482Z" fill="#084FC7"/>
<path d="M299.523 190.034C299.95 190.123 300.377 190.176 300.804 190.212C304.79 190.532 308.029 189.376 310.413 186.778C317.353 179.198 314.506 161.902 314.381 161.173C314.274 160.586 313.723 160.194 313.153 160.301C312.566 160.408 312.175 160.959 312.281 161.529C312.317 161.707 315.075 178.522 308.847 185.337C306.908 187.454 304.328 188.361 301 188.095C287.014 186.974 271.338 151.44 271.178 151.084C270.947 150.55 270.306 150.301 269.772 150.532C269.239 150.763 268.989 151.404 269.221 151.938C269.826 153.415 284.701 187.027 299.523 190.034Z" fill="white"/>
<path d="M343.082 176.066C342.157 186.315 344.683 203.237 351.303 215.408C351.142 212.792 351.071 210.141 351.107 207.507C351.107 207.418 351.107 207.329 351.107 207.241C351.107 206.974 351.125 206.707 351.125 206.44C351.356 190.906 352.868 183.023 343.082 176.066Z" fill="#EA9B7A"/>
<path d="M260.857 194.109C255.733 213.895 236.978 229.767 224.167 224.821C224.007 223.717 223.864 222.596 223.704 221.493C223.598 220.764 223.491 220.052 223.366 219.322C222.548 213.949 221.587 208.557 220.501 203.326C215.751 180.514 219.096 156.582 242.21 153.753C243.882 153.539 245.537 153.361 247.156 153.183C258.704 158.112 266.765 171.333 260.857 194.109Z" fill="#EA9B7A"/>
<path d="M263.491 179.02L293.527 288.878L282.815 276.529C286.783 278.628 291.374 280.266 296.463 281.404C301.534 282.543 307.085 283.201 312.868 283.504C318.669 283.806 324.701 283.753 330.876 283.504C337.05 283.255 343.367 282.792 349.772 282.241H349.808C359.256 281.44 367.566 288.433 368.367 297.881C369.132 306.885 362.744 314.874 353.954 316.298C347.353 317.347 340.627 318.344 333.74 319.145C326.854 319.945 319.79 320.533 312.459 320.71C305.146 320.871 297.566 320.604 289.737 319.465C281.925 318.326 273.811 316.298 265.875 312.863C260.804 310.675 257.192 306.511 255.555 301.653L255.181 300.515L219.132 192.472C215.075 180.336 221.64 167.205 233.776 163.148C245.911 159.091 259.043 165.657 263.1 177.792C263.26 178.183 263.384 178.646 263.491 179.02Z" fill="#EA9B7A"/>
<path d="M276.943 285.372C276.64 285.372 276.338 285.212 276.178 284.928C275.929 284.5 276.089 283.967 276.516 283.718C276.8 283.557 283.366 279.856 290.235 279.323C290.733 279.287 291.16 279.643 291.196 280.141C291.231 280.639 290.875 281.066 290.377 281.102C283.918 281.6 277.459 285.23 277.405 285.266C277.245 285.337 277.085 285.372 276.943 285.372Z" fill="#D96C63"/>
<path d="M287.868 281.404C287.708 281.404 287.548 281.369 287.406 281.28C283.26 278.771 278.242 278.379 278.189 278.379C277.69 278.344 277.335 277.917 277.37 277.436C277.406 276.938 277.815 276.582 278.313 276.618C278.527 276.636 283.811 277.027 288.313 279.767C288.74 280.016 288.865 280.568 288.616 280.995C288.456 281.244 288.153 281.404 287.868 281.404Z" fill="#D96C63"/>
<path d="M314.648 223.504C327.94 226.191 333.758 212.454 333.812 212.312C334.043 211.76 333.776 211.137 333.224 210.924C332.673 210.693 332.05 210.959 331.836 211.511C331.623 212.027 326.605 223.753 315.075 221.422C302.957 218.967 280.359 195.141 280.146 194.892C279.737 194.465 279.061 194.447 278.633 194.856C278.206 195.265 278.189 195.942 278.598 196.369C279.523 197.347 301.89 220.906 314.648 223.504Z" fill="#084FC7"/>
<path d="M293.758 136.973C293.758 136.973 272.424 132.952 266.409 111.422C260.68 90.9235 265.093 80.2829 271.054 69.2153C275.538 60.8701 289.772 49.6067 309.719 53.6459C329.861 57.7206 344.933 68.0765 347.157 84.6424C351.303 115.639 326.303 153.45 293.758 136.973Z" fill="#39393B"/>
<path d="M267.406 114.749C267.014 114.749 266.64 114.553 266.445 114.18C266.053 113.504 257.085 97.3647 264.541 76.1191C269.203 62.845 278.367 56.9198 285.253 54.2685C292.69 51.4037 298.936 51.6884 299.203 51.6884C299.808 51.724 300.288 52.24 300.253 52.8628C300.217 53.4678 299.719 53.9482 299.096 53.9126C299.043 53.9126 292.975 53.6635 285.964 56.3681C276.641 59.9802 270.146 66.8664 266.64 76.8486C259.541 97.0978 268.295 112.916 268.384 113.076C268.687 113.61 268.509 114.286 267.975 114.589C267.779 114.696 267.601 114.749 267.406 114.749Z" fill="#FAAF3A"/>
<path d="M335.129 115.087C335.129 115.087 342.068 109.607 343.901 116.867C345.734 124.127 340.573 137.027 332.495 133.112L335.129 115.087Z" fill="#D96C63"/>
<path d="M328.349 128.433C324.897 129.571 321.855 132.632 321.072 136.422C319.933 142.08 323.598 147.596 329.239 148.753C334.897 149.892 340.413 146.226 341.57 140.586C342.424 136.351 340.591 132.187 337.228 129.892C336.107 129.109 334.808 128.557 333.385 128.272C333.349 128.272 333.314 128.255 333.278 128.255C333.082 128.966 333.154 129.536 333.563 129.981C334.702 130.283 335.734 130.799 336.641 131.475C339.257 133.468 340.662 136.831 339.969 140.265C339.008 145.034 334.328 148.13 329.559 147.169C324.791 146.208 321.694 141.529 322.655 136.76C323.367 133.29 325.929 130.835 329.15 130.052L328.349 128.433Z" fill="#FAAF3A"/>
<path d="M314.096 146.208L311.196 164.394C311.196 164.394 297.584 178.29 272.726 153.362C279.399 148.397 281.943 136.867 281.16 129.429C281.16 129.429 283.118 130.603 286.142 133.344C286.73 133.878 287.495 134.287 288.224 134.803C294.79 139.251 304.861 145.07 314.096 146.208Z" fill="#EA9B7A"/>
<path d="M314.096 146.208L312.726 154.821C305.271 151.493 292.086 144.393 286.143 133.326C286.783 133.788 287.495 134.269 288.224 134.785C294.79 139.251 304.862 145.07 314.096 146.208Z" fill="#39393B"/>
<path d="M341.854 110.71C341.463 112.632 341.107 114.465 340.733 116.208C340.342 118.095 339.968 119.874 339.595 121.547C336.837 134.127 334.577 140.87 330.911 143.397C312.353 156.155 282.157 130.319 281.178 129.483C281.16 129.465 281.16 129.465 281.16 129.465C281.143 127.988 281.143 126.511 281.16 125.07C281.392 112.828 283.473 101.831 286.783 91.671C288.438 80.5678 297.05 71.671 308.135 69.9984C319.63 68.2724 328.278 74.9272 333.687 77.8632C341.854 82.3116 345.057 94.6782 341.854 110.71Z" fill="#EA9B7A"/>
<path d="M287.423 80.2474C287.423 80.2474 300.413 55.2652 326.32 62.2403C352.228 69.2154 353.598 81.2439 354.061 87.2581C354.523 93.2724 340.644 82.614 340.644 82.614C340.644 82.614 340.164 94.6425 335.537 90.9414C329.861 86.3862 323.527 76.5819 323.527 76.5819C323.527 76.5819 308.1 91.7421 293.438 87.6496C285.092 85.3364 287.423 80.2474 287.423 80.2474Z" fill="#39393B"/>
<path d="M319.239 135.212C315.876 135.212 313.562 132.881 313.456 132.757C313.1 132.383 313.1 131.796 313.473 131.44C313.847 131.084 314.416 131.084 314.772 131.458C314.897 131.582 317.566 134.233 321.089 133.023C321.57 132.863 322.103 133.112 322.263 133.593C322.424 134.073 322.175 134.607 321.694 134.767C320.84 135.088 320.021 135.212 319.239 135.212Z" fill="#D96C63"/>
<path d="M311.498 120.088C311.498 120.088 323.989 123.789 330.466 123.789C330.466 123.789 327.228 133.041 317.975 129.803C310.769 127.276 311.498 120.088 311.498 120.088Z" fill="white"/>
<path d="M334.683 94.0732C334.683 94.0732 331.445 93.7351 331.961 96.8846C332.495 100.034 339.523 98.1123 343.011 104.411C343.011 104.411 346.374 97.8098 334.683 94.0732Z" fill="#39393B"/>
<path d="M320.253 91.1548C320.253 91.1548 323.367 92.1157 321.659 94.8025C319.951 97.4894 314.221 92.9876 308.563 97.436C308.563 97.436 308.047 90.0516 320.253 91.1548Z" fill="#39393B"/>
<path d="M314.63 113.699C314.328 115.176 311.036 115.764 307.246 114.998C303.474 114.233 300.662 112.418 300.965 110.924C301.267 109.447 304.559 108.86 308.349 109.625C312.121 110.39 314.933 112.223 314.63 113.699Z" fill="#D96C63"/>
<path d="M351.498 114.678L341.409 112.952C341.356 113.379 341.249 113.806 341.16 114.216C341.142 114.287 341.124 114.358 341.089 114.429L351.249 116.155C351.658 116.226 352.05 115.942 352.121 115.532C352.192 115.141 351.925 114.749 351.498 114.678Z" fill="white"/>
<path d="M324.559 106.066C324.559 105.55 324.541 105.034 324.47 104.536C324.132 101.795 322.922 99.2687 321.071 97.3114C319.363 95.5143 317.139 94.1975 314.559 93.6281C314.523 93.6103 314.47 93.6103 314.434 93.5925C308.527 92.3826 302.708 95.4787 300.306 100.746C300.092 101.208 299.914 101.671 299.754 102.151C299.612 102.578 299.505 103.023 299.398 103.468C298.722 106.778 299.381 110.052 301.035 112.721C301.605 113.628 302.281 114.464 303.046 115.194C304.719 116.813 306.836 117.988 309.274 118.486C313.384 119.34 317.423 118.094 320.324 115.497C322.281 113.753 323.722 111.368 324.292 108.61C324.292 108.593 324.292 108.593 324.292 108.575C324.47 107.738 324.559 106.902 324.559 106.066ZM309.594 117.009C309.523 116.991 309.47 116.991 309.416 116.973C306.231 116.262 303.651 114.233 302.139 111.582C300.84 109.287 300.324 106.546 300.893 103.771C301.018 103.201 301.178 102.65 301.374 102.116C301.391 102.08 301.409 102.045 301.409 102.009C302.993 97.8986 306.854 95.105 311.196 94.8559C312.157 94.8025 313.135 94.8559 314.132 95.0694C316.267 95.5143 318.117 96.5285 319.594 97.9342C322.299 100.514 323.651 104.393 322.851 108.308C321.569 114.358 315.644 118.272 309.594 117.009Z" fill="white"/>
<path d="M347.174 100.87C346.836 100.692 346.48 100.532 346.107 100.372C345.68 100.194 345.235 100.052 344.79 99.9094C344.47 99.8204 344.167 99.7315 343.829 99.6781C343.224 99.5535 342.637 99.4824 342.05 99.4468C341.338 99.3934 340.626 99.4112 339.932 99.5002C337.993 99.7137 336.16 100.354 334.541 101.368C332.762 102.472 331.249 104.02 330.217 105.888C329.932 106.368 329.701 106.867 329.488 107.365C329.47 107.401 329.47 107.418 329.452 107.454C329.185 108.13 328.972 108.842 328.811 109.571C327.797 114.482 329.772 119.322 333.491 122.205C334.701 123.148 336.089 123.877 337.619 124.322C337.851 124.393 338.082 124.465 338.331 124.5C338.456 124.536 338.562 124.554 338.687 124.589C339.915 124.838 341.142 124.909 342.335 124.803C342.53 124.785 342.726 124.767 342.904 124.749C343.42 124.678 343.936 124.589 344.452 124.447C345.395 124.198 346.32 123.842 347.174 123.397C350.431 121.689 352.922 118.593 353.722 114.714C354.879 109.02 352.05 103.433 347.174 100.87ZM352.228 114.393C352.174 114.643 352.121 114.874 352.05 115.105C351.961 115.443 351.854 115.764 351.73 116.102C350.84 118.468 349.203 120.39 347.139 121.653C346.392 122.116 345.573 122.49 344.719 122.774C344.185 122.952 343.651 123.077 343.082 123.166C342.922 123.201 342.762 123.219 342.601 123.237C341.427 123.379 340.199 123.344 338.972 123.095C338.865 123.077 338.74 123.041 338.633 123.023C338.562 123.006 338.491 122.988 338.438 122.97C336.641 122.507 335.039 121.618 333.74 120.425C333.545 120.248 333.367 120.07 333.189 119.892C330.715 117.329 329.505 113.61 330.27 109.856C330.448 109.02 330.715 108.201 331.053 107.454C332.174 104.998 334.132 103.094 336.498 101.973C337.957 101.28 339.577 100.906 341.249 100.906C341.516 100.906 341.783 100.924 342.068 100.941C342.548 100.977 343.029 101.048 343.509 101.137C343.865 101.208 344.203 101.297 344.541 101.404C345.004 101.546 345.448 101.724 345.893 101.92C346.231 102.08 346.569 102.258 346.908 102.436C350.947 104.803 353.224 109.554 352.228 114.393Z" fill="white"/>
<path d="M284.221 103.041C284.132 103.023 284.043 102.987 283.971 102.934C283.616 102.703 283.527 102.24 283.74 101.902C288.794 94.0017 300.947 101.101 301.053 101.173C301.409 101.386 301.534 101.849 301.32 102.205C301.107 102.56 300.644 102.685 300.288 102.471C300.181 102.4 289.274 96.048 285.004 102.721C284.843 102.97 284.523 103.094 284.221 103.041Z" fill="white"/>
<path d="M330.022 107.792C329.826 107.756 329.666 107.632 329.541 107.472C327.922 104.981 324.47 106.102 324.435 106.102C324.043 106.226 323.616 106.013 323.492 105.621C323.367 105.23 323.58 104.803 323.972 104.678C325.556 104.144 329.025 103.877 330.823 106.653C331.054 107.009 330.947 107.472 330.591 107.685C330.413 107.792 330.218 107.828 330.022 107.792Z" fill="white"/>
<g opacity="0.8">
<g opacity="0.8">
<g opacity="0.8">
<g opacity="0.8">
<g opacity="0.8">
<g opacity="0.8">
<g opacity="0.8">
<path opacity="0.8" d="M340.734 116.208C340.342 118.094 339.968 119.874 339.595 121.546C336.161 120.71 333.687 119.02 333.972 117.614C334.274 116.226 337.228 115.621 340.734 116.208Z" fill="#D96C63"/>
</g>
</g>
</g>
</g>
</g>
</g>
</g>
<path d="M317.281 106.244C316.872 108.29 315.609 109.749 314.47 109.518C313.331 109.287 312.744 107.454 313.153 105.408C313.562 103.361 314.826 101.902 315.965 102.134C317.103 102.365 317.691 104.198 317.281 106.244Z" fill="#39393B"/>
<path d="M337.459 110.336C337.05 112.383 335.787 113.842 334.648 113.61C333.509 113.379 332.922 111.546 333.331 109.5C333.741 107.454 335.004 105.995 336.143 106.226C337.282 106.457 337.869 108.29 337.459 110.336Z" fill="#39393B"/>
<path d="M327.032 115.817C328.011 116.012 328.705 115.977 328.758 115.977C328.989 115.959 329.221 115.852 329.381 115.674C329.541 115.496 329.594 115.247 329.577 115.016L328.278 105.496C328.206 105.034 327.779 104.696 327.317 104.767C326.854 104.838 326.516 105.265 326.587 105.728L327.744 114.215C326.89 114.091 325.609 113.735 324.452 112.774C324.096 112.471 323.545 112.525 323.242 112.881C322.94 113.237 322.993 113.788 323.349 114.091C324.612 115.123 325.982 115.603 327.032 115.817Z" fill="#39393B"/>
<path d="M289.506 122.543C289.363 122.757 285.413 128.433 281.196 129.465C281.178 129.447 281.178 129.447 281.178 129.447C281.143 127.97 281.16 126.493 281.178 125.052C281.321 125.07 285.342 125.176 289.506 122.543Z" fill="#39393B"/>
<path d="M288.634 107.632C288.634 107.632 282.691 95.0338 274.986 102.418C268.634 108.521 274.185 128.877 285.217 124.518L288.634 107.632Z" fill="#EA9B7A"/>
<path d="M274.025 118.504C270.573 119.642 267.53 122.703 266.747 126.493C265.609 132.151 269.274 137.667 274.915 138.824C280.573 139.963 286.089 136.297 287.246 130.657C288.1 126.422 286.267 122.258 282.904 119.963C281.783 119.18 280.484 118.628 279.061 118.344C279.025 118.344 278.989 118.326 278.954 118.326C278.758 119.037 278.847 119.607 279.239 120.052C280.377 120.354 281.409 120.87 282.317 121.546C284.933 123.539 286.338 126.902 285.644 130.336C284.683 135.105 280.004 138.201 275.235 137.24C270.466 136.28 267.37 131.6 268.331 126.831C269.025 123.361 271.605 120.906 274.826 120.123L274.025 118.504Z" fill="#FAAF3A"/>
<path d="M284.754 121.013C284.79 121.013 284.808 121.031 284.843 121.031C285.306 121.066 285.733 120.728 285.769 120.248C286.641 110.728 279.452 105.906 279.149 105.71C278.758 105.443 278.224 105.568 277.957 105.959C277.69 106.351 277.815 106.885 278.206 107.152C278.473 107.329 284.843 111.636 284.061 120.105C284.043 120.532 284.345 120.924 284.754 121.013Z" fill="#39393B"/>
<path d="M277.958 114.34C278.136 114.376 278.349 114.358 278.527 114.251C279.381 113.806 281.89 112.81 283.26 113.468C283.687 113.682 284.203 113.504 284.399 113.077C284.612 112.65 284.434 112.134 284.007 111.938C281.623 110.781 278.136 112.543 277.744 112.739C277.317 112.952 277.157 113.468 277.388 113.895C277.495 114.127 277.726 114.287 277.958 114.34Z" fill="#39393B"/>
<path d="M296.285 86.2617C296.285 86.2617 288.296 107.952 287.869 112.329C287.281 118.29 279.399 97.8631 287.317 80.4254L296.285 86.2617Z" fill="#39393B"/>
<path d="M429.773 546.121H396.872C396.872 546.121 389.257 509.608 386.712 489.145C384.15 468.665 382.833 420.142 382.833 420.142C382.833 420.142 356.623 428.665 301.747 425.444C180.163 418.344 226.267 329.02 226.267 329.02C230.377 334.696 261.196 342.508 278.384 345.23C331.178 350.302 371.303 359.27 398.776 371.12C405.395 373.967 411.267 376.992 416.427 380.177C423.047 384.252 427.193 396.654 429.702 412.935C437.193 461.885 429.773 546.121 429.773 546.121Z" fill="#39393B"/>
<path d="M400.947 528.541C400.395 528.541 399.915 528.149 399.79 527.598C395.039 504.11 393.456 474.875 392.175 451.387C391.107 431.903 390.111 413.505 387.602 411.298C385.573 409.501 377.157 410.907 366.516 412.668C345.324 416.192 313.295 421.494 277.993 413.291C258.758 408.807 244.612 399.466 235.964 385.515C221.035 361.458 227.85 331.618 227.921 331.316C228.064 330.675 228.704 330.284 229.345 330.444C229.986 330.586 230.377 331.227 230.217 331.867C230.146 332.152 223.58 361.067 237.993 384.288C246.302 397.686 259.95 406.672 278.544 410.996C313.402 419.11 345.146 413.843 366.16 410.355C378.74 408.273 386.338 407.01 389.203 409.537C392.299 412.277 393.171 425.729 394.559 451.263C395.84 474.679 397.424 503.807 402.139 527.135C402.264 527.775 401.854 528.398 401.214 528.523C401.107 528.523 401.036 528.541 400.947 528.541Z" fill="#585859"/>
<path d="M430.395 529.145H430.377L393.794 528.362C393.135 528.344 392.619 527.811 392.637 527.152C392.655 526.494 393.189 525.978 393.847 525.996L430.431 526.779C431.089 526.796 431.605 527.33 431.587 527.989C431.552 528.647 431.036 529.145 430.395 529.145Z" fill="#585859"/>
<path d="M428.866 588.274H405.645L401.179 561.032L398.723 546.121H427.567L428.029 561.032L428.866 588.274Z" fill="#EA9B7A"/>
<path d="M428.865 588.274H405.644L402.317 567.989L401.178 561.032H428.029L428.242 568.238L428.865 588.274Z" fill="#FAAF3A"/>
<path d="M428.242 568.238L402.317 567.989L401.178 561.032H428.029L428.242 568.238Z" fill="#C77E2E"/>
<path d="M486.161 624.946H398.331C397.673 623.754 397.317 622.082 397.175 620.071C396.623 612.633 398.99 600.783 400.146 593.309C400.289 592.437 400.413 591.619 400.502 590.889C400.662 589.644 400.769 588.594 400.769 587.829C400.769 581.726 406.161 582.776 406.161 582.776C415.04 591.494 425.111 578.434 430.983 582.704C430.983 582.704 431.214 582.882 431.766 583.292C432.264 583.683 433.011 584.288 434.043 585.16C435.538 586.405 437.638 588.22 440.485 590.783C447.46 597.064 459.31 601.192 469.399 605.409C470.68 605.943 471.873 606.477 472.994 607.028C473.83 607.438 474.631 607.847 475.378 608.238C483.634 612.687 486.25 616.957 486.855 620.053C487.442 623.025 486.161 624.946 486.161 624.946Z" fill="#0875F7"/>
<path d="M475.396 608.256C473.136 610.053 468.1 613.665 464.061 613.665C463.883 613.665 463.705 613.665 463.527 613.647C460.68 613.416 450.218 608.274 441.694 603.594C436.819 600.907 432.353 598.274 429.15 596.156C423.901 592.687 422.976 591.37 422.78 590.445C422.015 586.975 427.744 584.573 431.766 583.309C432.264 583.701 433.011 584.306 434.043 585.178C429.061 586.53 424.951 588.665 425.146 589.875C425.645 590.907 430.84 594.857 443.26 601.672C452.744 606.868 461.73 611.05 463.723 611.228C466.428 611.441 470.396 608.986 472.993 607.046C473.865 607.437 474.648 607.847 475.396 608.256Z" fill="#084FC7"/>
<path d="M486.161 624.946H398.331C397.673 623.754 397.317 622.082 397.175 620.071H486.873C487.442 623.025 486.161 624.946 486.161 624.946Z" fill="#084FC7"/>
<path d="M407.3 624.946H404.684C407.282 621.975 409.719 617.402 409.399 610.889C408.972 602.206 403.776 596.37 400.146 593.309C400.289 592.437 400.413 591.619 400.502 590.889C404.399 593.861 410.965 600.391 411.481 610.783C411.801 617.01 409.755 621.655 407.3 624.946Z" fill="#084FC7"/>
<path d="M439.026 595.978C438.385 595.978 437.78 595.534 437.62 594.875C437.424 594.092 437.905 593.309 438.67 593.114L444.15 591.744C444.933 591.548 445.716 592.028 445.912 592.793C446.107 593.576 445.627 594.359 444.862 594.555L439.381 595.925C439.257 595.961 439.132 595.978 439.026 595.978Z" fill="white"/>
<path d="M433.563 591.405C432.904 591.405 432.317 590.96 432.157 590.302C431.961 589.519 432.442 588.736 433.207 588.541L438.687 587.17C439.47 586.975 440.253 587.455 440.449 588.22C440.645 589.003 440.164 589.786 439.399 589.982L433.919 591.352C433.794 591.388 433.687 591.405 433.563 591.405Z" fill="white"/>
<path d="M444.506 599.163C443.866 599.163 443.261 598.719 443.1 598.06C442.905 597.277 443.385 596.494 444.15 596.317L449.631 594.946C450.414 594.751 451.196 595.231 451.392 595.996C451.588 596.779 451.108 597.562 450.342 597.758L444.862 599.128C444.737 599.146 444.613 599.163 444.506 599.163Z" fill="white"/>
<path d="M449.987 602.224C449.346 602.224 448.741 601.779 448.581 601.121C448.385 600.338 448.866 599.555 449.631 599.377L455.111 598.007C455.894 597.811 456.677 598.292 456.873 599.057C457.068 599.84 456.588 600.623 455.823 600.818L450.342 602.188C450.218 602.206 450.111 602.224 449.987 602.224Z" fill="white"/>
<path d="M455.965 605.053C455.325 605.053 454.72 604.608 454.559 603.95C454.364 603.167 454.844 602.384 455.609 602.206L461.09 600.836C461.873 600.64 462.656 601.121 462.851 601.886C463.047 602.669 462.567 603.452 461.801 603.647L456.321 605.018C456.196 605.053 456.09 605.053 455.965 605.053Z" fill="white"/>
<path d="M462.46 607.473C461.801 607.473 461.214 607.028 461.054 606.37C460.858 605.587 461.339 604.804 462.104 604.608L467.584 603.238C468.367 603.042 469.15 603.523 469.346 604.288C469.542 605.071 469.061 605.854 468.296 606.05L462.816 607.42C462.691 607.455 462.566 607.473 462.46 607.473Z" fill="white"/>
<path d="M550.948 327.704V334.999C550.948 339.198 548.421 342.597 545.289 342.597H151.214C148.082 342.597 145.555 339.198 145.555 334.999V327.704C145.555 323.504 148.082 320.106 151.214 320.106H545.272C548.403 320.106 550.948 323.504 550.948 327.704Z" fill="#21B573"/>
<path d="M550.948 330.017H145.555V333.362H550.948V330.017Z" fill="#217C58"/>
<path d="M539.097 361.334H168.687C167.032 361.334 165.68 359.981 165.68 358.326V342.49H542.104V358.326C542.104 359.981 540.752 361.334 539.097 361.334Z" fill="#217C58"/>
<path d="M522.46 454.287H191.196V467.206H522.46V454.287Z" fill="#217C58"/>
<path d="M167.317 627.242L231.445 361.333H208.918L144.79 627.242H167.317Z" fill="#21B573"/>
<path d="M545.912 627.242L481.766 361.333H504.293L568.421 627.242H545.912Z" fill="#21B573"/>
<path d="M181.519 258.994L174.572 260.058L182.602 312.491L189.55 311.427L181.519 258.994Z" fill="#FAAF3A"/>
<path d="M181.533 258.967L174.594 260.034L176.124 254.732L176.907 251.974L178.491 254.358L181.533 258.967Z" fill="#EA9B7A"/>
<path d="M188.96 307.61L182.012 308.674L182.597 312.491L189.544 311.427L188.96 307.61Z" fill="#39393B"/>
<path d="M189.576 314.501L183.544 315.426C183.295 315.462 183.046 315.284 183.011 315.035L182.619 312.455L189.576 311.387L189.968 313.967C190.003 314.234 189.826 314.465 189.576 314.501Z" fill="#DF615C"/>
<path d="M178.491 254.358L176.125 254.732L176.907 251.974L178.491 254.358Z" fill="#39393B"/>
<path d="M188.567 304.871L181.619 305.935L182.037 308.661L188.984 307.597L188.567 304.871Z" fill="#C77E2E"/>
<path d="M176.712 262.347L182.655 301.173C182.708 301.476 182.975 301.671 183.26 301.618C183.545 301.565 183.758 301.298 183.705 301.013L177.762 262.187C177.708 261.903 177.441 261.689 177.157 261.742C176.872 261.778 176.658 262.063 176.712 262.347Z" fill="#C77E2E"/>
<path d="M179.434 261.938L185.378 300.764C185.431 301.048 185.698 301.262 185.983 301.209C186.285 301.155 186.481 300.888 186.427 300.604L180.484 261.778C180.431 261.493 180.164 261.28 179.879 261.333C179.595 261.369 179.381 261.636 179.434 261.938Z" fill="#C77E2E"/>
<path d="M194.116 259.206L187.088 259.229L187.262 312.272L194.291 312.249L194.116 259.206Z" fill="#21B573"/>
<path d="M194.114 259.216L187.085 259.234L189.381 254.216L190.573 251.6L191.783 254.198L194.114 259.216Z" fill="#EA9B7A"/>
<path d="M194.269 308.406L187.24 308.429L187.253 312.29L194.281 312.267L194.269 308.406Z" fill="#39393B"/>
<path d="M193.829 315.319L187.726 315.337C187.459 315.337 187.263 315.123 187.263 314.874V312.276L194.292 312.259V314.856C194.292 315.106 194.096 315.319 193.829 315.319Z" fill="#DF615C"/>
<path d="M191.783 254.198L189.381 254.216L190.573 251.6L191.783 254.198Z" fill="#39393B"/>
<path d="M194.253 305.63L187.224 305.653L187.233 308.411L194.262 308.388L194.253 305.63Z" fill="#217C58"/>
<path d="M188.829 261.849L188.954 301.12C188.954 301.422 189.203 301.654 189.487 301.654C189.79 301.654 190.021 301.405 190.021 301.12L189.897 261.849C189.897 261.547 189.648 261.315 189.363 261.315C189.078 261.298 188.829 261.547 188.829 261.849Z" fill="#217C58"/>
<path d="M191.587 261.831L191.712 301.102C191.712 301.404 191.961 301.636 192.246 301.636C192.548 301.636 192.78 301.387 192.78 301.102L192.655 261.831C192.655 261.529 192.406 261.298 192.121 261.298C191.837 261.298 191.587 261.529 191.587 261.831Z" fill="#217C58"/>
<path d="M199.301 258.944L191.843 311.461L198.802 312.449L206.26 259.932L199.301 258.944Z" fill="#0875F7"/>
<path d="M206.249 259.963L199.292 258.967L202.281 254.323L203.847 251.92L204.666 254.661L206.249 259.963Z" fill="#EA9B7A"/>
<path d="M199.362 308.674L192.403 307.686L191.86 311.509L198.819 312.497L199.362 308.674Z" fill="#39393B"/>
<path d="M197.904 315.444L191.872 314.59C191.623 314.554 191.445 314.323 191.481 314.056L191.854 311.476L198.812 312.472L198.438 315.052C198.385 315.301 198.153 315.479 197.904 315.444Z" fill="#DF615C"/>
<path d="M204.666 254.661L202.281 254.323L203.847 251.92L204.666 254.661Z" fill="#39393B"/>
<path d="M192.78 304.925L192.392 307.656L199.351 308.645L199.739 305.914L192.78 304.925Z" fill="#084FC7"/>
<path d="M200.644 261.796L195.128 300.675C195.093 300.978 195.288 301.245 195.591 301.28C195.893 301.316 196.16 301.12 196.196 300.817L201.712 261.938C201.747 261.636 201.552 261.369 201.249 261.333C200.965 261.298 200.698 261.511 200.644 261.796Z" fill="#084FC7"/>
<path d="M203.384 262.188L197.868 301.067C197.833 301.369 198.029 301.636 198.331 301.672C198.634 301.707 198.9 301.512 198.936 301.209L204.452 262.33C204.488 262.027 204.292 261.761 203.989 261.725C203.687 261.689 203.42 261.885 203.384 262.188Z" fill="#084FC7"/>
<path d="M208.545 280.194L208.171 283.041L207.833 285.621L207.335 289.536L206.997 292.098L206.498 296.049L206.16 298.575L205.644 302.561L205.324 305.052L204.808 309.073L204.488 311.529L203.972 315.586L203.651 318.006L203.385 320.106H175.733L175.466 318.006L175.146 315.586L174.63 311.529L174.31 309.073L173.794 305.052L173.473 302.561L172.957 298.575L172.637 296.049L172.121 292.098L171.801 289.536L171.285 285.621L170.947 283.041L170.591 280.194H208.545Z" fill="#DF615C"/>
<path d="M208.171 283.041L207.833 285.621H171.285L170.947 283.041H208.171Z" fill="#B11722"/>
<path d="M207.335 289.536L206.997 292.099H172.121L171.801 289.536H207.335Z" fill="#B11722"/>
<path d="M206.499 296.049L206.16 298.575H172.957L172.637 296.049H206.499Z" fill="#B11722"/>
<path d="M205.645 302.561L205.324 305.052H173.794L173.474 302.561H205.645Z" fill="#B11722"/>
<path d="M204.808 309.073L204.488 311.529H174.63L174.31 309.073H204.808Z" fill="#B11722"/>
<path d="M203.972 315.586L203.651 318.006H175.466L175.146 315.586H203.972Z" fill="#B11722"/>
<path d="M548.652 179.091L525.075 278.807L524.453 281.422L522.869 288.13C522.175 291.049 519.595 293.095 516.606 293.095H357.762C353.598 293.095 350.537 289.216 351.498 285.177L377.281 176.119C377.975 173.219 380.555 171.173 383.545 171.173H542.371C546.534 171.173 549.595 175.052 548.652 179.091Z" fill="#39393B"/>
<path d="M525.058 278.789L524.453 281.422H359.523V278.789H525.058Z" fill="#585859"/>
<path d="M421.765 195.835C420.449 202.899 413.651 208.629 406.587 208.629C399.523 208.629 394.861 202.899 396.178 195.835C397.495 188.771 404.292 183.041 411.356 183.041C418.438 183.041 423.082 188.771 421.765 195.835Z" fill="#FAAF3A"/>
<path d="M407.317 193.397C407.05 194.803 406.338 195.959 405.733 195.959C405.111 195.959 404.826 194.821 405.093 193.397C405.36 191.991 406.071 190.835 406.676 190.835C407.299 190.835 407.584 191.974 407.317 193.397Z" fill="#39393B"/>
<path d="M413.99 193.397C413.723 194.803 413.011 195.959 412.406 195.959C411.801 195.959 411.499 194.821 411.766 193.397C412.032 191.991 412.744 190.835 413.349 190.835C413.972 190.835 414.257 191.974 413.99 193.397Z" fill="#39393B"/>
<path d="M407.922 202.08C402.424 202.08 402.192 196.582 402.192 196.529C402.175 196.226 402.424 195.924 402.744 195.87C403.064 195.799 403.313 195.995 403.331 196.297C403.331 196.493 403.545 200.977 408.153 200.977C412.744 200.977 414.63 196.493 414.719 196.297C414.844 195.995 415.182 195.817 415.466 195.87C415.751 195.942 415.893 196.226 415.769 196.529C415.715 196.564 413.42 202.08 407.922 202.08Z" fill="#39393B"/>
<path d="M495.2 255.586C495.342 262.205 506.552 270.497 506.552 270.497C506.552 270.497 519.577 262.205 521.161 255.586C522.869 248.415 514.684 246.209 508.616 251.618C503.723 246.209 495.04 248.415 495.2 255.586Z" fill="#DF615C"/>
<path d="M471.463 236.387C470.698 243.255 464.524 248.806 457.673 248.806C450.823 248.806 445.858 243.237 446.623 236.387C447.388 229.518 453.563 223.967 460.413 223.967C467.282 223.967 472.228 229.536 471.463 236.387Z" fill="#585859"/>
<path d="M389.844 171.173L362.388 293.095H357.762C353.598 293.095 350.537 289.216 351.498 285.177L377.281 176.12C377.975 173.219 380.555 171.155 383.545 171.155H389.844V171.173Z" fill="#585859"/>
<path d="M435.84 293.095L431.018 320.195H446.943L451.765 293.095H435.84Z" fill="white"/>
<path d="M407.21 315.533L410.466 310.96C411.623 309.323 413.509 308.362 415.52 308.362H459.15C461.463 308.362 463.58 309.643 464.648 311.689L466.837 315.889C467.869 317.846 466.445 320.213 464.221 320.213H409.612C407.21 320.195 405.822 317.472 407.21 315.533Z" fill="white"/>
<path d="M316.303 320.177H447.371L448.794 315.23C449.684 312.116 447.353 309.02 444.114 309.02H323.171C321 309.02 319.096 310.462 318.491 312.543L316.303 320.177Z" fill="white"/>
<path d="M488.154 138.611L430.182 138.575C427.94 138.575 426.107 136.742 426.107 134.5L426.125 98.8773C426.125 96.6353 427.958 94.8026 430.2 94.8026L488.172 94.8382C490.414 94.8382 492.246 96.6709 492.246 98.9129L492.229 134.536C492.229 136.796 490.414 138.611 488.154 138.611Z" fill="#DF615C"/>
<path d="M484.702 132.045L479.417 152.009L470.182 133.237L484.702 132.045Z" fill="#DF615C"/>
<path d="M473.83 113.486C472.655 120.959 458.687 130.319 458.687 130.319C458.687 130.319 445.253 120.941 444.488 113.45C443.652 105.336 453.26 102.863 459.292 108.984C465.645 102.881 475.111 105.372 473.83 113.486Z" fill="white"/>
<path d="M529.234 604.687C583.755 604.687 627.953 600.321 627.953 594.936C627.953 589.551 583.755 585.185 529.234 585.185C474.713 585.185 430.515 589.551 430.515 594.936C430.515 600.321 474.713 604.687 529.234 604.687Z" fill="#CED3E6"/>
<path d="M589.679 524.42H465.052C462.685 524.42 460.764 522.498 460.764 520.132V518.156C460.764 515.79 462.685 513.868 465.052 513.868H589.679C592.045 513.868 593.967 515.79 593.967 518.156V520.132C593.967 522.498 592.045 524.42 589.679 524.42Z" fill="#39393B"/>
<path d="M466.618 396.982H588.38C590.409 396.982 592.046 398.619 592.046 400.647V415.612C592.046 417.64 590.409 419.277 588.38 419.277H466.618C464.59 419.277 462.953 417.64 462.953 415.612V400.647C462.953 398.619 464.59 396.982 466.618 396.982Z" fill="#585859"/>
<path d="M495.373 302.142C495.373 302.142 444.038 291.999 429.714 256.181C415.39 220.362 467.775 193.494 495.373 212.729C524.91 233.298 495.373 302.142 495.373 302.142Z" fill="#21B573"/>
<path d="M525.907 396.252C525.462 396.252 525.052 395.914 524.981 395.452C520.07 362.178 500.23 314.313 484.483 280.024C467.383 242.836 451.262 213.156 451.102 212.853C450.853 212.409 451.031 211.839 451.476 211.59C451.921 211.341 452.49 211.519 452.739 211.964C452.899 212.266 469.056 241.999 486.191 279.241C502.01 313.654 521.903 361.697 526.85 395.185C526.921 395.701 526.583 396.163 526.067 396.235C525.996 396.235 525.942 396.252 525.907 396.252Z" fill="#39393B"/>
<path d="M493.451 298.672C493.113 298.672 492.792 298.494 492.632 298.192C470.301 256.608 434.038 226.43 433.682 226.128C433.291 225.807 433.237 225.22 433.557 224.829C433.878 224.437 434.465 224.384 434.856 224.704C435.23 225.007 471.76 255.398 494.269 297.32C494.518 297.765 494.34 298.334 493.896 298.583C493.735 298.637 493.593 298.672 493.451 298.672Z" fill="#39393B"/>
<path d="M494.465 301.661C494.198 301.661 493.949 301.555 493.753 301.341C477.472 282.177 460.782 270.256 449.661 263.636C437.597 256.465 429.287 253.779 429.216 253.761C428.735 253.601 428.451 253.085 428.611 252.586C428.771 252.106 429.287 251.821 429.785 251.982C430.123 252.088 438.344 254.722 450.568 261.999C461.832 268.69 478.718 280.754 495.177 300.131C495.515 300.523 495.462 301.11 495.07 301.448C494.892 301.59 494.661 301.661 494.465 301.661Z" fill="#39393B"/>
<path d="M489.945 290.754C489.554 290.754 489.198 290.505 489.074 290.131C476.547 253.387 481.155 208.743 481.209 208.298C481.262 207.782 481.725 207.426 482.223 207.48C482.739 207.533 483.095 207.996 483.041 208.494C482.988 208.939 478.433 253.192 490.817 289.526C490.977 290.007 490.728 290.54 490.23 290.701C490.141 290.736 490.034 290.754 489.945 290.754Z" fill="#39393B"/>
<path d="M493.095 298.032C492.65 298.032 492.259 297.711 492.188 297.249C488.362 273.992 491.298 255.024 494.447 243.209C497.864 230.38 502.134 223.156 502.312 222.853C502.579 222.409 503.149 222.266 503.593 222.533C504.038 222.8 504.181 223.369 503.914 223.814C503.878 223.885 499.572 231.163 496.227 243.779C493.148 255.398 490.266 274.081 494.02 296.964C494.109 297.462 493.753 297.943 493.255 298.032C493.184 298.014 493.131 298.032 493.095 298.032Z" fill="#39393B"/>
<path d="M549.518 311.501C549.518 311.501 601.369 304.402 617.793 269.508C634.216 234.597 583.504 204.686 554.821 222.248C524.109 241.038 549.518 311.501 549.518 311.501Z" fill="#21B573"/>
<path d="M529.857 393.21C529.34 393.21 528.913 392.783 528.931 392.267C529.127 375.131 532.864 355.612 540.034 334.259C545.764 317.195 553.664 298.921 563.558 279.953C580.373 247.658 597.312 224.188 597.49 223.957C597.793 223.547 598.38 223.44 598.789 223.743C599.198 224.045 599.305 224.633 599.003 225.042C598.842 225.273 581.974 248.654 565.212 280.825C549.768 310.487 531.262 353.886 530.817 392.284C530.782 392.8 530.373 393.21 529.857 393.21Z" fill="#39393B"/>
<path d="M551.707 308.156C551.547 308.156 551.369 308.121 551.227 308.014C550.782 307.747 550.657 307.177 550.924 306.733C575.871 266.216 614.145 238.031 614.536 237.747C614.946 237.444 615.533 237.533 615.835 237.942C616.138 238.352 616.049 238.939 615.64 239.241C615.266 239.526 577.277 267.498 552.526 307.693C552.33 307.996 552.027 308.156 551.707 308.156Z" fill="#39393B"/>
<path d="M550.515 311.074C550.284 311.074 550.052 310.985 549.874 310.825C549.501 310.469 549.483 309.882 549.839 309.508C567.437 291.128 584.999 280.095 596.636 274.081C609.269 267.551 617.615 265.398 617.97 265.309C618.469 265.184 618.967 265.487 619.091 265.985C619.216 266.483 618.914 266.982 618.415 267.106C618.326 267.124 609.874 269.313 597.419 275.754C585.924 281.697 568.575 292.622 551.173 310.79C551.013 310.967 550.764 311.074 550.515 311.074Z" fill="#39393B"/>
<path d="M555.675 300.451C555.55 300.451 555.444 300.434 555.319 300.38C554.839 300.185 554.625 299.651 554.803 299.17C569.323 263.619 567.383 219.188 567.365 218.743C567.348 218.227 567.739 217.8 568.255 217.764C568.753 217.729 569.198 218.138 569.234 218.654C569.251 219.099 571.209 263.939 556.547 299.882C556.387 300.238 556.049 300.451 555.675 300.451Z" fill="#39393B"/>
<path d="M552.099 307.533C552.028 307.533 551.956 307.533 551.885 307.515C551.387 307.409 551.067 306.91 551.191 306.412C556.316 283.779 554.536 264.971 552.152 253.191C549.554 240.416 545.711 232.889 545.675 232.8C545.444 232.337 545.622 231.786 546.067 231.554C546.529 231.323 547.081 231.501 547.312 231.946C547.472 232.248 551.298 239.722 553.949 252.747C556.387 264.739 558.202 283.85 553.006 306.821C552.917 307.231 552.526 307.533 552.099 307.533Z" fill="#39393B"/>
<path d="M529.554 243.956C529.554 243.956 485.622 215.522 485.568 176.946C485.515 138.369 544.127 132.817 562.65 160.896C582.49 190.949 529.554 243.956 529.554 243.956Z" fill="#21B573"/>
<path d="M523.415 342.729C523.344 342.729 523.273 342.729 523.202 342.711C522.704 342.587 522.401 342.089 522.508 341.59C530.266 308.868 529.572 257.053 527.632 219.366C525.533 178.494 521.529 144.935 521.494 144.615C521.44 144.099 521.796 143.636 522.312 143.583C522.81 143.529 523.291 143.885 523.344 144.401C523.38 144.739 527.383 178.351 529.501 219.277C531.458 257.088 532.134 309.081 524.341 342.017C524.216 342.444 523.842 342.729 523.415 342.729Z" fill="#39393B"/>
<path d="M529.394 240.095C528.931 240.095 528.522 239.739 528.469 239.277C523.131 192.373 500.622 150.913 500.39 150.504C500.141 150.059 500.301 149.49 500.764 149.241C501.209 148.992 501.778 149.152 502.027 149.614C502.259 150.024 524.946 191.803 530.319 239.081C530.373 239.597 530.017 240.059 529.501 240.113C529.465 240.095 529.43 240.095 529.394 240.095Z" fill="#39393B"/>
<path d="M529.234 243.227C528.843 243.227 528.487 242.978 528.362 242.586C520.337 218.743 509.252 201.501 501.369 191.234C492.828 180.095 486.102 174.543 486.031 174.49C485.64 174.17 485.569 173.583 485.907 173.191C486.227 172.8 486.814 172.728 487.206 173.067C487.49 173.298 494.127 178.778 502.793 190.059C510.782 200.451 521.992 217.889 530.106 241.999C530.266 242.48 530.017 243.013 529.519 243.173C529.43 243.209 529.341 243.227 529.234 243.227Z" fill="#39393B"/>
<path d="M529.074 231.43C529.056 231.43 529.038 231.43 529.02 231.43C528.504 231.412 528.113 230.967 528.148 230.451C530.123 191.697 550.942 151.928 551.138 151.518C551.387 151.056 551.938 150.896 552.401 151.127C552.864 151.358 553.024 151.928 552.793 152.39C552.579 152.782 531.956 192.195 530.017 230.54C529.981 231.038 529.572 231.43 529.074 231.43Z" fill="#39393B"/>
<path d="M529.305 239.348C529.234 239.348 529.18 239.348 529.109 239.33C528.611 239.223 528.291 238.725 528.397 238.227C533.451 215.202 543.237 198.547 550.568 188.618C558.522 177.835 565.177 172.586 565.462 172.373C565.871 172.052 566.458 172.124 566.761 172.533C567.081 172.942 567.01 173.529 566.6 173.832C566.529 173.885 559.821 179.188 552.01 189.775C544.803 199.544 535.177 215.949 530.212 238.618C530.124 239.063 529.732 239.348 529.305 239.348Z" fill="#39393B"/>
<path d="M583.237 337.747L581.707 341.804L580.746 344.384L577.971 351.75L576.992 354.33L574.145 361.91L573.184 364.473L560.942 396.964H494.074L481.832 364.473L480.871 361.91L478.024 354.33L477.045 351.75L474.269 344.384L473.308 341.804L471.778 337.747C470.728 334.953 472.792 331.982 475.764 331.982H579.269C582.223 331.982 584.287 334.953 583.237 337.747Z" fill="#0875F7"/>
<path d="M581.707 341.804L580.746 344.384H474.269L473.291 341.804H581.707Z" fill="#084FC7"/>
<path d="M577.953 351.75L576.992 354.33H478.006L477.045 351.75H577.953Z" fill="#084FC7"/>
<path d="M574.127 361.911L573.166 364.473H481.832L480.871 361.911H574.127Z" fill="#084FC7"/>
<path d="M509.59 419.259L505.889 431.217L454.269 597.587H444.18L476.903 434.615L479.999 419.259H509.59Z" fill="#39393B"/>
<path d="M611.12 597.587H601.031L547.899 426.288L545.71 419.259H575.301L576.049 422.996L611.12 597.587Z" fill="#39393B"/>
<path d="M589.679 501.484H465.052C462.685 501.484 460.764 499.562 460.764 497.196V495.22C460.764 492.854 462.685 490.932 465.052 490.932H589.661C592.027 490.932 593.949 492.854 593.949 495.22V497.196C593.967 499.562 592.045 501.484 589.679 501.484Z" fill="#585859"/>
<path d="M432.703 101.495C459.354 101.495 480.959 80.1606 480.959 53.8435C480.959 27.5264 459.354 6.19214 432.703 6.19214C406.051 6.19214 384.446 27.5264 384.446 53.8435C384.446 80.1606 406.051 101.495 432.703 101.495Z" fill="#CED3E6"/>
<path d="M432.703 95.3027C459.354 95.3027 480.959 73.9685 480.959 47.6514C480.959 21.3342 459.354 0 432.703 0C406.051 0 384.446 21.3342 384.446 47.6514C384.446 73.9685 406.051 95.3027 432.703 95.3027Z" fill="#0875F7"/>
<path d="M432.703 86.3882C454.362 86.3882 471.92 69.0452 471.92 47.6514C471.92 26.2577 454.362 8.91467 432.703 8.91467C411.043 8.91467 393.485 26.2577 393.485 47.6514C393.485 69.0452 411.043 86.3882 432.703 86.3882Z" fill="white"/>
<path d="M471.92 47.6514C471.92 48.6835 471.884 49.6977 471.795 50.7119C470.211 30.7831 453.272 15.0357 432.685 15.0357C412.097 15.0357 395.176 30.7831 393.574 50.7119C393.503 49.6977 393.45 48.6835 393.45 47.6514C393.45 26.2813 411.048 8.91467 432.667 8.91467C454.322 8.91467 471.92 26.2813 471.92 47.6514Z" fill="#CED3E6"/>
<path d="M432.703 51.6727C432.4 51.6727 432.098 51.5304 431.92 51.2812L412.685 25.694C412.364 25.2669 412.453 24.662 412.88 24.3417C413.307 24.0214 413.93 24.1103 414.251 24.5374L433.023 49.5019L454.357 40.2492C454.856 40.0357 455.425 40.2492 455.656 40.7474C455.87 41.2456 455.656 41.815 455.158 42.0285L433.112 51.5837C432.969 51.6549 432.827 51.6727 432.703 51.6727Z" fill="#39393B"/>
<path d="M590.687 495.688C590.687 498.361 588.516 500.532 585.844 500.532C583.171 500.532 581 498.361 581 495.688C581 493.016 583.171 490.845 585.844 490.845C588.516 490.845 590.687 493.01 590.687 495.688Z" stroke="#4D2C5E" stroke-opacity="0.1" stroke-width="2" stroke-miterlimit="10" stroke-linecap="round" stroke-linejoin="round"/>
<path d="M637.68 537.696C640.355 537.696 642.524 535.528 642.524 532.853C642.524 530.178 640.355 528.009 637.68 528.009C635.005 528.009 632.836 530.178 632.836 532.853C632.836 535.528 635.005 537.696 637.68 537.696Z" stroke="#4D2C5E" stroke-opacity="0.1" stroke-width="2" stroke-miterlimit="10" stroke-linecap="round" stroke-linejoin="round"/>
<path d="M619.444 522.895C625.149 522.895 629.774 518.27 629.774 512.565C629.774 506.86 625.149 502.235 619.444 502.235C613.739 502.235 609.114 506.86 609.114 512.565C609.114 518.27 613.739 522.895 619.444 522.895Z" stroke="#4D2C5E" stroke-opacity="0.1" stroke-width="2" stroke-miterlimit="10" stroke-linecap="round" stroke-linejoin="round"/>
<path d="M637.443 512.565L633.998 518.587L632.171 525.291L625.472 527.112L619.445 530.563L613.417 527.112L606.713 525.291L604.891 518.587L601.44 512.565L604.891 506.537L606.713 499.833L613.417 498.011L619.445 494.56L625.472 498.011L632.171 499.833L633.998 506.537L637.443 512.565Z" stroke="#4D2C5E" stroke-opacity="0.1" stroke-width="2" stroke-miterlimit="10" stroke-linecap="round" stroke-linejoin="round"/>
<path d="M632.836 532.853C632.836 530.18 635.007 528.009 637.68 528.009C639.123 528.009 640.42 528.646 641.306 529.65C644.993 524.936 647.198 519.01 647.198 512.559C647.198 497.228 634.77 484.8 619.439 484.8C604.107 484.8 591.68 497.228 591.68 512.559C591.68 527.891 604.107 540.318 619.439 540.318C624.829 540.318 629.853 538.779 634.111 536.123C633.327 535.26 632.836 534.116 632.836 532.853Z" stroke="#4D2C5E" stroke-opacity="0.1" stroke-width="2" stroke-miterlimit="10" stroke-linecap="round" stroke-linejoin="round"/>
<path d="M619.444 475C606.492 475 595.068 481.558 588.319 491.533C589.734 492.378 590.687 493.923 590.687 495.694C590.687 498.367 588.516 500.538 585.844 500.538C585.184 500.538 584.558 500.402 583.988 500.165C582.63 504.05 581.885 508.217 581.885 512.565C581.885 533.309 598.705 550.13 619.45 550.13C640.195 550.13 657.015 533.309 657.015 512.565C657.015 491.82 640.189 475 619.444 475Z" stroke="#4D2C5E" stroke-opacity="0.1" stroke-width="2" stroke-miterlimit="10" stroke-linecap="round" stroke-linejoin="round"/>
<path d="M190.841 80.2257L167.535 72.3102C165.073 71.4759 163.758 68.7996 164.592 66.3368C165.426 63.8741 168.103 62.5593 170.559 63.3936L193.865 71.3091C196.327 72.1433 197.642 74.8196 196.808 77.2757C195.974 79.7451 193.304 81.0666 190.841 80.2257Z" stroke="#4D2C5E" stroke-opacity="0.1" stroke-width="3" stroke-miterlimit="10"/>
<path d="M187.778 89.2491L164.472 81.3336C162.009 80.4993 160.694 77.823 161.529 75.3669C162.363 72.9042 165.039 71.5893 167.502 72.4236L190.808 80.3325C193.271 81.1667 194.585 83.843 193.751 86.3058C192.91 88.7685 190.241 90.0833 187.778 89.2491Z" stroke="#4D2C5E" stroke-opacity="0.1" stroke-width="3" stroke-miterlimit="10"/>
<path d="M167.061 39.0531C167.088 39.1331 167.108 39.2066 167.135 39.2867C167.655 40.9485 170.726 51.4802 169.444 63.1666L194.445 71.4158C200.372 61.2645 209.108 54.6371 210.517 53.6093C210.583 53.5626 210.65 53.5159 210.71 53.4692C211.391 52.9819 212.052 52.4613 212.692 51.9074C216.457 48.6571 219.42 44.379 221.088 39.32C226.007 24.4234 217.918 8.35885 203.022 3.44004C188.125 -1.47878 172.06 6.61024 167.142 21.5068C165.466 26.5725 165.299 31.7716 166.394 36.6237C166.581 37.438 166.801 38.2522 167.061 39.0531Z" stroke="#4D2C5E" stroke-opacity="0.1" stroke-width="3" stroke-miterlimit="10"/>
<path d="M165.747 81.8809C165.467 86.8197 168.51 91.5249 173.435 93.1534C178.294 94.7552 183.467 92.8531 186.216 88.8286L165.747 81.8809Z" stroke="#4D2C5E" stroke-opacity="0.1" stroke-width="3" stroke-miterlimit="10"/>
<path d="M177.273 65.616L184.701 43.1043C185.435 40.8884 184.227 38.4991 182.011 37.765C179.795 37.0308 177.406 38.2388 176.672 40.4547C175.938 42.6705 177.146 45.0598 179.362 45.7939L188.278 48.7372" stroke="#4D2C5E" stroke-opacity="0.1" stroke-width="3" stroke-miterlimit="10"/>
<path d="M187.07 68.853L194.499 46.3413C195.233 44.1255 197.622 42.9241 199.838 43.6516C202.054 44.3857 203.255 46.7751 202.528 48.9909C201.793 51.2067 199.404 52.408 197.188 51.6805L188.272 48.7372" stroke="#4D2C5E" stroke-opacity="0.1" stroke-width="3" stroke-miterlimit="10"/>
<path d="M226.368 47.0754L233.896 49.5648" stroke="#4D2C5E" stroke-opacity="0.1" stroke-width="3" stroke-miterlimit="10" stroke-linecap="round"/>
<path d="M229.818 37.5914L237.66 36.4102" stroke="#4D2C5E" stroke-opacity="0.1" stroke-width="3" stroke-miterlimit="10" stroke-linecap="round"/>
<path d="M221.102 55.2111L226.694 60.8307" stroke="#4D2C5E" stroke-opacity="0.1" stroke-width="3" stroke-miterlimit="10" stroke-linecap="round"/>
<path d="M156.442 23.9963L148.914 21.5135" stroke="#4D2C5E" stroke-opacity="0.1" stroke-width="3" stroke-miterlimit="10" stroke-linecap="round"/>
<path d="M159.319 14.3188L153.727 8.69922" stroke="#4D2C5E" stroke-opacity="0.1" stroke-width="3" stroke-miterlimit="10" stroke-linecap="round"/>
<path d="M155.835 33.6671L148 34.8484" stroke="#4D2C5E" stroke-opacity="0.1" stroke-width="3" stroke-miterlimit="10" stroke-linecap="round"/>
<path d="M77.9929 259.578L8.78841 238.906C3.75514 237.404 0.898255 232.107 2.40002 227.073L16.221 180.788C17.7227 175.755 23.02 172.898 28.0532 174.4L97.2578 195.073C102.291 196.575 105.148 201.872 103.646 206.905L89.8252 253.19C88.3176 258.217 83.0203 261.08 77.9929 259.578Z" stroke="#4D2C5E" stroke-opacity="0.1" stroke-width="4" stroke-miterlimit="10" stroke-linecap="round"/>
<path d="M4.03076 221.6L91.4559 247.717" stroke="#4D2C5E" stroke-opacity="0.1" stroke-width="4" stroke-miterlimit="10" stroke-linecap="round"/>
<path d="M47.9578 242.244C47.5823 243.499 46.2566 244.215 45.0012 243.839C43.7458 243.464 43.0301 242.138 43.4056 240.883C43.781 239.627 45.1068 238.911 46.3622 239.287C47.6175 239.662 48.3332 240.988 47.9578 242.244Z" fill="#4D2C5E"/>
<path d="M53.1983 252.179L33.5977 246.324L30.9567 255.166L50.5574 261.021L53.1983 252.179Z" stroke="#4D2C5E" stroke-opacity="0.1" stroke-width="4" stroke-miterlimit="10" stroke-linecap="round"/>
<path d="M23.689 253.501L57.5257 263.609" stroke="#4D2C5E" stroke-opacity="0.1" stroke-width="4" stroke-miterlimit="10" stroke-linecap="round"/>
<path d="M613.28 81.8352C634.974 81.8352 652.56 73.4991 652.56 63.216C652.56 52.933 634.974 44.5969 613.28 44.5969C591.586 44.5969 574 52.933 574 63.216C574 73.4991 591.586 81.8352 613.28 81.8352Z" stroke="#4D2C5E" stroke-opacity="0.1" stroke-width="3" stroke-miterlimit="10" stroke-linecap="round" stroke-linejoin="round"/>
<path d="M629.165 72.9214C640.446 54.3928 642.471 35.0376 633.688 29.6904C624.905 24.3432 608.64 35.0288 597.36 53.5575C586.079 72.0861 584.054 91.4413 592.837 96.7885C601.619 102.136 617.884 91.45 629.165 72.9214Z" stroke="#4D2C5E" stroke-opacity="0.1" stroke-width="3" stroke-miterlimit="10" stroke-linecap="round" stroke-linejoin="round"/>
<path d="M633.68 96.7801C642.463 91.4329 640.438 72.0777 629.157 53.5491C617.876 35.0204 601.612 24.3348 592.829 29.682C584.046 35.0292 586.071 54.3844 597.352 72.913C608.633 91.4416 624.897 102.127 633.68 96.7801Z" stroke="#4D2C5E" stroke-opacity="0.1" stroke-width="3" stroke-miterlimit="10" stroke-linecap="round" stroke-linejoin="round"/>
<path d="M613.28 68.1448C616.002 68.1448 618.209 65.9381 618.209 63.216C618.209 60.4939 616.002 58.2872 613.28 58.2872C610.558 58.2872 608.351 60.4939 608.351 63.216C608.351 65.9381 610.558 68.1448 613.28 68.1448Z" stroke="#4D2C5E" stroke-opacity="0.1" stroke-width="3" stroke-miterlimit="10" stroke-linecap="round" stroke-linejoin="round"/>
<path d="M92.2902 513.642L59.8556 521.13L58.3972 514.807C58.0622 513.342 58.9694 511.884 60.4348 511.542L87.5659 505.275C89.0313 504.94 90.4897 505.847 90.8317 507.313L92.2902 513.642Z" stroke="#4D2C5E" stroke-opacity="0.1" stroke-width="3" stroke-miterlimit="10" stroke-linecap="round"/>
<path d="M81.6291 479.643C95.9255 468.116 98.1704 447.182 86.6434 432.886C75.1163 418.59 54.1822 416.345 39.8858 427.872C25.5894 439.399 23.3446 460.333 34.8716 474.629C46.3987 488.925 67.3327 491.17 81.6291 479.643Z" stroke="#4D2C5E" stroke-opacity="0.1" stroke-width="3" stroke-miterlimit="10"/>
<path d="M76.2333 483.175L45.2223 424.349L41.3495 417.211C21.1337 427.866 13.3879 452.89 24.0436 473.106C34.6993 493.322 59.7229 501.067 79.9387 490.412L76.1496 483.224" stroke="#4D2C5E" stroke-opacity="0.1" stroke-width="3" stroke-miterlimit="10" stroke-linecap="round" stroke-linejoin="round"/>
<path d="M52.0569 437.239C62.2095 431.886 68.9142 424.654 67.0322 421.084C65.1503 417.515 55.3943 418.96 45.2418 424.313C35.0892 429.666 28.3845 436.899 30.2665 440.469C32.1484 444.038 41.9044 442.592 52.0569 437.239Z" stroke="#4D2C5E" stroke-opacity="0.1" stroke-width="3" stroke-miterlimit="10"/>
<path d="M54.4404 486.406C61.607 487.788 69.2761 486.846 76.2333 483.175C83.1905 479.505 88.3055 473.713 91.2154 467.021C84.0488 465.639 76.3799 466.581 69.4226 470.252C62.4584 473.922 57.3503 479.714 54.4404 486.406Z" stroke="#4D2C5E" stroke-opacity="0.1" stroke-width="3" stroke-miterlimit="10"/>
<path d="M76.2589 483.139C84.3795 478.858 84.0194 462.218 75.4545 445.973C66.8895 429.728 53.363 420.03 45.2424 424.312C37.1217 428.593 37.4819 445.233 46.0468 461.478C54.6118 477.723 68.1382 487.421 76.2589 483.139Z" stroke="#4D2C5E" stroke-opacity="0.1" stroke-width="3" stroke-miterlimit="10"/>
<path d="M31.3149 469.268L90.1408 438.257" stroke="#4D2C5E" stroke-opacity="0.1" stroke-width="3" stroke-miterlimit="10"/>
<path d="M70.3857 494.033L73.8189 508.353" stroke="#4D2C5E" stroke-opacity="0.1" stroke-width="3" stroke-miterlimit="10"/>
<path d="M55.9619 522.462L97.3076 512.547" stroke="#4D2C5E" stroke-opacity="0.1" stroke-width="3" stroke-miterlimit="10" stroke-linecap="round"/>
<path d="M669.729 404.023L687.034 386.719L639.084 338.769L621.779 356.073L669.729 404.023Z" stroke="#4D2C5E" stroke-opacity="0.1" stroke-width="3" stroke-miterlimit="10" stroke-linecap="round" stroke-linejoin="round"/>
<path d="M691.712 408.705L687.028 386.715L669.723 404.021L691.712 408.705Z" stroke="#4D2C5E" stroke-opacity="0.1" stroke-width="3" stroke-miterlimit="10" stroke-linecap="round" stroke-linejoin="round"/>
<path d="M689.527 398.445L681.445 406.519" stroke="#4D2C5E" stroke-opacity="0.1" stroke-width="3" stroke-miterlimit="10" stroke-linecap="round" stroke-linejoin="round"/>
<path d="M616.68 342.881L625.881 333.68C628.12 331.44 631.746 331.44 633.985 333.68L639.073 338.768L621.768 356.073L616.68 350.985C614.44 348.746 614.44 345.112 616.68 342.881Z" stroke="#4D2C5E" stroke-opacity="0.1" stroke-width="3" stroke-miterlimit="10" stroke-linecap="round" stroke-linejoin="round"/>
<path d="M643.75 343.437L626.444 360.75" stroke="#4D2C5E" stroke-opacity="0.1" stroke-width="3" stroke-miterlimit="10" stroke-linecap="round" stroke-linejoin="round"/>
<path d="M678.376 395.368L635.097 352.097" stroke="#4D2C5E" stroke-opacity="0.1" stroke-width="3" stroke-miterlimit="10" stroke-linecap="round" stroke-linejoin="round"/>
</svg>
