<svg width="960" height="960" viewBox="0 0 960 960" fill="none" xmlns="http://www.w3.org/2000/svg">
<g clip-path="url(#clip0_510_1393)">
<path fill-rule="evenodd" clip-rule="evenodd" d="M526.66 716.569C550.805 702.269 549.465 688.377 549.465 688.377C561.418 690.543 573.172 690.648 583.72 687.786L583.729 687.776C597.165 684.137 608.653 675.658 616.093 660.458C628.17 635.782 654.035 562.464 664.563 523.658C667.765 511.828 669.551 503.21 669.076 500.15C668.278 494.971 667.376 489.878 665.504 485.488V485.479C662.672 478.79 657.598 473.706 647.279 472.3C646.583 472.205 645.876 472.108 645.159 472.009C635.88 470.728 624.889 469.21 615.266 470.542C607.33 471.644 600.327 474.675 595.966 481.365C585.9 496.796 581.2 502.678 581.2 502.678C564.039 470.734 536.122 456.612 520.985 451.034C517.541 449.722 514.01 448.649 510.419 447.822C523.353 465.183 531.839 491.741 500.719 520.941C446.396 571.918 375.967 559.841 375.967 559.841C375.967 559.841 276.699 559.841 305.538 476.67C304.393 475.283 303.339 473.823 302.383 472.299C302.383 472.299 283.493 487.891 272.348 525.672C266.475 545.569 262.75 571.614 265.069 604.785L265.078 604.994C267.857 604.855 270.837 604.785 274.02 604.785C292.699 604.785 313.495 604.332 334.151 603.882C375.047 602.992 415.393 602.113 437.673 604.785C471.206 608.807 471.881 659.785 471.881 659.785L481.896 721.805C481.896 721.805 502.515 730.869 526.66 716.569ZM535.805 470.235C535.106 469.79 534.179 469.996 533.734 470.695C533.29 471.394 533.496 472.321 534.195 472.765C550.409 483.084 582.684 516.053 581.5 564.964C581.48 565.792 582.136 566.48 582.964 566.5C583.792 566.52 584.48 565.864 584.5 565.036C585.716 514.747 552.591 480.916 535.805 470.235Z" fill="url(#paint0_linear_510_1393)"/>
<path fill-rule="evenodd" clip-rule="evenodd" d="M528.893 388.142C541.636 347.226 514.136 333.135 514.136 333.135C514.136 333.135 537.61 272.766 489.32 241.913C441.03 211.06 395.42 274.781 395.42 274.781C395.42 274.781 365.907 252.641 337.068 278.135C308.229 303.629 318.957 349.239 331.699 373.383C331.699 373.383 292.123 376.063 289.444 415.639C288.838 424.117 289.249 432.638 290.669 441.019L290.679 441.028C292.479 452.122 296.457 462.75 302.385 472.3C303.341 473.823 304.395 475.283 305.54 476.671C276.701 559.842 375.969 559.842 375.969 559.842C375.969 559.842 446.398 571.92 500.721 520.942C531.839 491.742 523.353 465.184 510.421 447.823H510.411C504.312 439.78 496.966 432.765 488.652 427.042C488.652 427.042 516.15 429.058 528.893 388.142ZM464.811 242.033C464 241.861 463.204 242.379 463.033 243.189C462.861 244 463.379 244.796 464.189 244.967C475.317 247.323 490.608 254.747 500.263 269.292C509.866 283.76 514.064 305.534 502.591 336.986L502.231 337.972L503.034 338.648C509.663 344.226 517.242 354.447 518.533 366.917C519.811 379.266 514.955 394.175 496.061 409.33C495.415 409.848 495.312 410.792 495.83 411.439C496.348 412.085 497.292 412.188 497.939 411.67C517.445 396.025 522.922 380.184 521.517 366.608C520.177 353.657 512.603 343.093 505.761 337.039C517.052 305.404 512.897 282.9 502.762 267.633C492.575 252.286 476.516 244.51 464.811 242.033Z" fill="#171717"/>
<path d="M743.97 269.869L745.766 403.677L557.065 395.515V269.869H743.97Z" fill="#171717"/>
<path d="M583.719 687.789C583.319 688.663 557.36 744.44 537.833 762.627C518.164 780.966 489.972 771.882 489.972 771.882L481.899 721.806C481.899 721.806 502.518 730.88 526.663 716.57C550.808 702.26 549.468 688.378 549.468 688.378C561.417 690.544 573.171 690.649 583.719 687.789Z" fill="#171717"/>
<path d="M325.749 261.869C328.913 268.976 314.461 282.298 293.48 291.638C272.499 300.978 252.925 302.784 249.761 295.677C247.785 291.239 252.203 285.614 261.278 278.811L261.344 278.744L269.23 287.744C269.23 287.744 292.207 286.575 303.961 272.293C306.935 268.673 308.18 263.837 308.37 258.629C318.052 257.137 323.944 257.811 325.749 261.869Z" fill="url(#paint1_linear_510_1393)"/>
<path d="M308.37 258.628C308.18 263.836 306.935 268.672 303.961 272.292C292.207 286.574 269.231 287.743 269.231 287.743L261.344 278.743L257.391 274.243L245.291 260.437L238.591 252.788C239.903 254.07 242.231 254.764 245.291 254.897C252.091 255.197 262.509 252.769 273.417 247.913C284.325 243.057 293.105 236.948 297.429 231.693C299.586 229.071 300.641 226.657 300.289 224.728L300.413 224.709C300.413 224.709 308.949 243.273 308.37 258.628Z" fill="url(#paint2_linear_510_1393)"/>
<path d="M238.6 252.785C238.227 252.441 237.93 252.023 237.726 251.559C235.218 245.924 247.133 235.139 264.332 227.49C281.531 219.841 297.522 218.197 300.032 223.841C300.158 224.123 300.248 224.42 300.298 224.725C300.65 226.654 299.598 229.068 297.438 231.69C287.674 232.266 278.05 234.293 268.884 237.705C254.807 243.188 245.3 254.899 245.3 254.899C242.236 254.761 239.908 254.067 238.6 252.785Z" fill="url(#paint3_linear_510_1393)"/>
<path d="M268.879 237.706C278.045 234.295 287.669 232.267 297.433 231.691C293.109 236.946 284.333 243.056 273.421 247.911C262.509 252.766 252.1 255.2 245.3 254.9C245.3 254.9 254.807 243.189 268.879 237.706Z" fill="#171717"/>
<path d="M290.667 441.021C289.247 432.64 288.836 424.119 289.442 415.641C292.121 376.065 331.697 373.385 331.697 373.385C318.955 349.241 308.227 303.631 337.066 278.137C365.905 252.643 395.418 274.783 395.418 274.783C395.418 274.783 441.028 211.062 489.318 241.915C537.608 272.768 514.137 333.135 514.137 333.135C514.137 333.135 541.637 347.226 528.894 388.142C516.151 429.058 488.653 427.042 488.653 427.042C496.967 432.765 504.313 439.78 510.412 447.823" stroke="#171717" stroke-width="3" stroke-linecap="round" stroke-linejoin="round"/>
<path d="M510.421 447.824C523.353 465.185 531.839 491.743 500.721 520.943C446.398 571.921 375.969 559.843 375.969 559.843C375.969 559.843 276.701 559.843 305.54 476.672C304.395 475.285 303.341 473.825 302.385 472.301C296.457 462.752 292.479 452.124 290.679 441.029" stroke="#171717" stroke-width="3" stroke-linecap="round" stroke-linejoin="round"/>
<path d="M302.383 472.299C302.383 472.299 283.493 487.891 272.348 525.672C266.475 545.572 262.748 571.614 265.069 604.785" stroke="#171717" stroke-width="3" stroke-linecap="round" stroke-linejoin="round"/>
<path d="M510.411 447.824H510.421C514.013 448.651 517.543 449.724 520.987 451.036C536.124 456.614 564.041 470.736 581.202 502.68C589.82 518.719 595.74 539.243 595.968 565.441" stroke="#171717" stroke-width="3" stroke-linecap="round" stroke-linejoin="round"/>
<path d="M665.499 485.481C662.667 478.792 657.593 473.708 647.274 472.302C637.582 470.981 625.628 469.109 615.261 470.544C607.327 471.644 600.324 474.677 595.961 481.367C585.904 496.8 581.199 502.68 581.199 502.68" stroke="#171717" stroke-width="3" stroke-linecap="round" stroke-linejoin="round"/>
<path d="M583.729 687.778C597.165 684.139 608.653 675.663 616.093 660.46C628.17 635.783 654.035 562.465 664.562 523.66C667.763 511.83 669.551 503.212 669.076 500.152C668.276 494.973 667.376 489.88 665.504 485.49" stroke="#171717" stroke-width="3" stroke-linecap="round" stroke-linejoin="round"/>
<path d="M505.755 577.289C505.755 577.289 502.069 674.542 534.262 684.605C539.246 686.174 544.322 687.434 549.462 688.377C561.415 690.543 573.169 690.648 583.717 687.788" stroke="#171717" stroke-width="3" stroke-linecap="round" stroke-linejoin="round"/>
<path d="M522.555 816.787C448.639 816.607 281.793 803.437 269.991 783.198C255.909 759.053 227.061 626.253 227.061 626.253C227.061 626.253 219.317 607.172 265.078 604.999C267.853 604.857 270.834 604.788 274.02 604.79C329.683 604.79 404.141 600.762 437.673 604.79C471.205 608.818 471.881 659.79 471.881 659.79L481.896 721.81L489.973 771.886L493.673 794.833C493.673 794.833 499.28 815.933 522.55 816.792" stroke="#171717" stroke-width="3" stroke-linecap="round" stroke-linejoin="round"/>
<path d="M522.555 816.787H522.631" stroke="#171717" stroke-width="3" stroke-linecap="round" stroke-linejoin="round"/>
<path d="M621.68 661.125C621.68 661.125 677.28 661.8 669.152 673.867C661.024 685.934 587.552 809.357 553.19 815.391C547.64 816.369 536.865 816.816 522.631 816.791" stroke="#171717" stroke-width="3" stroke-linecap="round" stroke-linejoin="round"/>
<path d="M263.225 575.94H96.9395L234.443 204.363L919.929 227.168L795.842 602.993L650.299 595.391" stroke="#171717" stroke-width="3" stroke-linecap="round" stroke-linejoin="round"/>
<path d="M659.46 464.823C659.471 464.803 659.484 464.784 659.498 464.766C659.546 464.661 659.698 464.385 659.916 463.966C659.992 463.814 660.078 463.653 660.173 463.472C664.088 456.156 682.968 421.758 690.76 424.352C699.407 427.231 666.06 484.538 665.504 485.479V485.488" stroke="#171717" stroke-width="3" stroke-linecap="round" stroke-linejoin="round"/>
<path d="M646.945 460.576C646.946 460.568 646.95 460.562 646.955 460.557V460.548C646.959 460.531 646.965 460.515 646.974 460.5C646.987 460.473 646.996 460.444 647.002 460.415C648.123 457.469 664.267 415.289 673.551 417.874C682.16 420.274 664.039 456.044 660.172 463.474" stroke="#171717" stroke-width="3" stroke-linecap="round" stroke-linejoin="round"/>
<path d="M615.19 470.03C615.19 470.03 589.259 463.93 592.832 453.202C596.405 442.474 631.068 459.235 631.068 459.235C631.068 459.235 642.468 413.179 652.305 414.519C661.798 415.811 647.991 457.458 647.005 460.419" stroke="#171717" stroke-width="3" stroke-linecap="round" stroke-linejoin="round"/>
<path d="M664.552 523.66H664.562H713.117L755.601 414.491V259.58L549.017 262.715L550.804 403.678L520.986 451.036" stroke="#171717" stroke-width="3" stroke-linecap="round" stroke-linejoin="round"/>
<path d="M550.805 403.678L755.602 414.491" stroke="#171717" stroke-width="3" stroke-linecap="round" stroke-linejoin="round"/>
<path d="M557.065 269.869V395.515L745.766 403.677L743.97 269.869H557.065Z" stroke="#171717" stroke-width="3" stroke-linecap="round" stroke-linejoin="round"/>
<path d="M290.677 441.03L290.667 441.021L271.331 403.678L187.713 431.737L211.411 544.422L272.348 525.675" stroke="#171717" stroke-width="3" stroke-linecap="round" stroke-linejoin="round"/>
<path d="M238.6 252.785C238.227 252.441 237.93 252.023 237.726 251.559C235.218 245.924 247.133 235.139 264.332 227.49C281.531 219.841 297.522 218.197 300.032 223.841C300.158 224.123 300.248 224.42 300.298 224.725C300.65 226.654 299.598 229.068 297.438 231.69C293.114 236.945 284.338 243.055 273.426 247.91C262.514 252.765 252.1 255.199 245.3 254.899C242.236 254.761 239.908 254.067 238.6 252.785Z" stroke="#171717" stroke-width="3" stroke-linecap="round" stroke-linejoin="round"/>
<path d="M238.234 252.376L238.595 252.785L245.295 260.434L257.395 274.24L261.348 278.74L269.235 287.74C269.235 287.74 292.211 286.571 303.965 272.289C306.939 268.669 308.184 263.833 308.374 258.625C308.953 243.27 300.421 224.703 300.421 224.703" stroke="#171717" stroke-width="3" stroke-linecap="round" stroke-linejoin="round"/>
<path d="M308.3 258.639C308.319 258.639 308.348 258.629 308.367 258.629C318.049 257.138 323.941 257.812 325.746 261.87C328.91 268.977 314.458 282.299 293.477 291.639C272.496 300.979 252.922 302.785 249.758 295.678C247.782 291.24 252.2 285.615 261.275 278.812" stroke="#171717" stroke-width="3" stroke-linecap="round" stroke-linejoin="round"/>
<path d="M245.3 260.434C245.3 260.434 237.452 266.895 243.238 273.87C249.024 280.845 257.396 274.24 257.396 274.24" stroke="#171717" stroke-width="3" stroke-linecap="round" stroke-linejoin="round"/>
<path d="M245.3 254.899C245.3 254.899 254.812 243.193 268.884 237.71C278.05 234.299 287.674 232.271 297.438 231.695" stroke="#171717" stroke-width="3" stroke-linecap="round" stroke-linejoin="round"/>
<path d="M212.304 448.726L260.603 433.969" stroke="#171717" stroke-width="3" stroke-linecap="round" stroke-linejoin="round"/>
<path d="M220.352 470.031L273.317 452.309" stroke="#171717" stroke-width="3" stroke-linecap="round" stroke-linejoin="round"/>
<path d="M232.876 491.21C234.662 490.316 277.146 476.453 277.146 476.453" stroke="#171717" stroke-width="3" stroke-linecap="round" stroke-linejoin="round"/>
<path d="M489.973 771.882C489.973 771.882 518.165 780.966 537.834 762.627C557.361 744.44 583.321 688.663 583.72 687.789L583.729 687.779" stroke="#171717" stroke-width="3" stroke-linecap="round" stroke-linejoin="round"/>
<path d="M481.899 721.805C481.899 721.805 502.518 730.879 526.663 716.569C550.808 702.259 549.468 688.377 549.468 688.377" stroke="#171717" stroke-width="3" stroke-linecap="round" stroke-linejoin="round"/>
<path d="M662.622 572.157C667.61 561.711 670.875 550.526 672.292 539.037" stroke="#171717" stroke-width="3" stroke-linecap="round" stroke-linejoin="round"/>
<path d="M309.935 359.7C306.045 347.728 305.12 334.99 307.241 322.582" stroke="#171717" stroke-width="3" stroke-linecap="round" stroke-linejoin="round"/>
<path d="M263.077 216.304C258.79 213.3 255.343 209.25 253.062 204.539C250.781 199.827 249.742 194.611 250.044 189.385C250.55 182.052 253.725 175.046 253.789 167.696C253.753 162.611 252.254 157.644 249.472 153.387C246.69 149.13 242.742 145.764 238.1 143.689" stroke="#171717" stroke-width="3" stroke-linecap="round" stroke-linejoin="round"/>
<path d="M246.09 220.855C240.633 217.896 237.912 211.478 237.19 205.313C236.468 199.148 237.348 192.906 237.07 186.705C236.792 180.504 235.097 173.93 230.39 169.883" stroke="#171717" stroke-width="3" stroke-linecap="round" stroke-linejoin="round"/>
<path d="M523.737 255.91C519.154 245.796 511.322 237.503 501.486 232.35" stroke="#171717" stroke-width="3" stroke-linecap="round" stroke-linejoin="round"/>
<path d="M646.314 521.605L643.621 508.863" stroke="#171717" stroke-width="3" stroke-linecap="round" stroke-linejoin="round"/>
<path d="M606.026 503.505C608.669 500.973 611.894 499.13 615.417 498.139" stroke="#171717" stroke-width="3" stroke-linecap="round" stroke-linejoin="round"/>
<path d="M617.362 549.004L626.097 543.664" stroke="#171717" stroke-width="3" stroke-linecap="round" stroke-linejoin="round"/>
<path d="M630.173 584.664L626.819 572.59" stroke="#171717" stroke-width="3" stroke-linecap="round" stroke-linejoin="round"/>
<path d="M591.941 595.4L600.661 590.705" stroke="#171717" stroke-width="3" stroke-linecap="round" stroke-linejoin="round"/>
<path d="M606.155 634.94L603.432 622.205" stroke="#171717" stroke-width="3" stroke-linecap="round" stroke-linejoin="round"/>
<path d="M569.127 645.681L579.849 639.629" stroke="#171717" stroke-width="3" stroke-linecap="round" stroke-linejoin="round"/>
<path d="M540.966 667.834C540.079 663.26 538.251 658.921 535.6 655.09" stroke="#171717" stroke-width="3" stroke-linecap="round" stroke-linejoin="round"/>
<path d="M557.862 616.784L552.462 607.412" stroke="#171717" stroke-width="3" stroke-linecap="round" stroke-linejoin="round"/>
<path d="M522.186 586.005L530.235 580.639" stroke="#171717" stroke-width="3" stroke-linecap="round" stroke-linejoin="round"/>
<path d="M560.543 546.357L555.813 538.328" stroke="#171717" stroke-width="3" stroke-linecap="round" stroke-linejoin="round"/>
<path d="M532.247 506.858L541.312 502.117L539.625 502.163" stroke="#171717" stroke-width="3" stroke-linecap="round" stroke-linejoin="round"/>
<path d="M495.437 561.099L488.037 554.42" stroke="#171717" stroke-width="3" stroke-linecap="round" stroke-linejoin="round"/>
<path d="M497.425 689.328L503.447 678.588" stroke="#171717" stroke-width="3" stroke-linecap="round" stroke-linejoin="round"/>
<path d="M486.6 643.716C485.516 642.241 484.138 641.007 482.553 640.091C480.968 639.176 479.211 638.599 477.392 638.397L479.263 636.979" stroke="#171717" stroke-width="3" stroke-linecap="round" stroke-linejoin="round"/>
<path d="M457.8 588.017L463.836 580.639" stroke="#171717" stroke-width="3" stroke-linecap="round" stroke-linejoin="round"/>
<path d="M410.21 586.62C407.521 584.807 405.371 582.302 403.985 579.369" stroke="#171717" stroke-width="3" stroke-linecap="round" stroke-linejoin="round"/>
<path d="M340.418 593.382L349.137 583.992" stroke="#171717" stroke-width="3" stroke-linecap="round" stroke-linejoin="round"/>
<path d="M314.974 573.194C312.359 571.464 310.391 568.914 309.381 565.945" stroke="#171717" stroke-width="3" stroke-linecap="round" stroke-linejoin="round"/>
<path d="M276.699 586.004L282.065 579.967" stroke="#171717" stroke-width="3" stroke-linecap="round" stroke-linejoin="round"/>
<path d="M288.771 539.054L284.076 531.676" stroke="#171717" stroke-width="3" stroke-linecap="round" stroke-linejoin="round"/>
<path d="M387.43 243.221L380.753 233.139" stroke="#171717" stroke-width="3" stroke-linecap="round" stroke-linejoin="round"/>
<path d="M377.857 243.126L388.463 233.596" stroke="#171717" stroke-width="3" stroke-linecap="round" stroke-linejoin="round"/>
<path d="M453.771 192.955C456.437 189.511 459.886 186.752 463.832 184.906" stroke="#171717" stroke-width="3" stroke-linecap="round" stroke-linejoin="round"/>
<path d="M461.311 193.513L451.854 179.973C451.935 180.143 452.058 180.29 452.212 180.399C452.365 180.508 452.544 180.576 452.732 180.596C452.919 180.617 453.109 180.588 453.282 180.514C453.455 180.44 453.607 180.322 453.721 180.173" stroke="#171717" stroke-width="3" stroke-linecap="round" stroke-linejoin="round"/>
<path d="M697.223 445.8C699.1 443.471 700.488 440.787 701.303 437.908C702.117 435.03 702.342 432.016 701.964 429.049" stroke="#171717" stroke-width="3" stroke-linecap="round" stroke-linejoin="round"/>
<path d="M582.59 447.86C584.003 445.784 585.894 444.079 588.105 442.888C590.315 441.697 592.779 441.054 595.29 441.016" stroke="#171717" stroke-width="3" stroke-linecap="round" stroke-linejoin="round"/>
<path d="M56.0656 550.193C50.0079 565.111 47.1971 581.148 47.8203 597.236C48.4435 613.325 52.4863 629.096 59.6797 643.5C66.8731 657.905 77.0521 670.612 89.5392 680.776C102.026 690.939 116.535 698.327 132.1 702.446C141.718 704.992 151.993 706.246 161.568 703.546C171.143 700.846 179.863 693.532 182.037 683.824C184.211 674.116 178.093 662.664 168.295 660.936C157.614 659.053 148.251 668.174 142.424 677.321C131.768 694.051 126.651 717.977 140.181 732.482C152.381 745.566 175.702 746.301 183.787 762.262C185.654 765.948 186.442 770.086 186.06 774.2C185.678 778.314 184.142 782.236 181.629 785.515C179.115 788.794 175.727 791.296 171.854 792.734C167.98 794.171 163.78 794.486 159.736 793.64" stroke="#171717" stroke-width="3" stroke-linecap="round" stroke-linejoin="round"/>
<path d="M742.871 793.889C736.243 796.689 728.201 793.636 723.532 788.162C718.863 782.688 717.021 775.332 716.38 768.162C714.644 748.751 720.687 729.445 733.181 714.488C745.674 699.531 763.595 690.147 783.005 688.399C791.305 687.651 801.155 689.19 805.123 696.514C809.959 705.443 800.699 717.482 790.563 716.875C780.427 716.268 772.736 705.821 772.963 695.67C773.19 685.519 779.781 676.342 788.11 670.534C796.439 664.726 806.374 661.754 816.178 659.113C825.982 656.472 835.984 654.02 844.841 649.054C868.441 635.82 879.507 603.927 869.17 578.92" stroke="#171717" stroke-width="3" stroke-linecap="round" stroke-linejoin="round"/>
<path d="M826.699 617.865L839.778 609.816" stroke="#171717" stroke-width="3" stroke-linecap="round" stroke-linejoin="round"/>
<path d="M836.7 620.915L827.718 603.773" stroke="#171717" stroke-width="3" stroke-linecap="round" stroke-linejoin="round"/>
<path d="M698.924 728.535L712 722.5" stroke="#171717" stroke-width="3" stroke-linecap="round" stroke-linejoin="round"/>
<path d="M705.96 733.569C703.56 728.56 702.53 723.005 702.975 717.469" stroke="#171717" stroke-width="3" stroke-linecap="round" stroke-linejoin="round"/>
<path d="M191.851 735.577L201.912 729.541" stroke="#171717" stroke-width="3" stroke-linecap="round" stroke-linejoin="round"/>
<path d="M196.7 740.665L191.548 723.6" stroke="#171717" stroke-width="3" stroke-linecap="round" stroke-linejoin="round"/>
<path d="M39.9297 677.224L51.9997 667.164" stroke="#171717" stroke-width="3" stroke-linecap="round" stroke-linejoin="round"/>
<path d="M48.4356 678.829C44.8306 674.759 42.6625 669.616 42.2646 664.193" stroke="#171717" stroke-width="3" stroke-linecap="round" stroke-linejoin="round"/>
<path d="M390.95 188.158L385.5 176.125" stroke="#171717" stroke-width="3" stroke-linecap="round" stroke-linejoin="round"/>
<path d="M380.63 185.515L396.469 177.623" stroke="#171717" stroke-width="3" stroke-linecap="round" stroke-linejoin="round"/>
<g opacity="0.1">
<path d="M249.121 261.313C250.837 266.04 254.29 268.973 257.832 272.362C261.423 275.797 264.864 279.415 268.175 283.12C273.694 289.296 282.752 280.187 277.257 274.038C273.787 270.143 270.052 266.492 266.08 263.11C262.088 259.721 258.305 256.763 252.918 256.328C252.312 256.332 251.716 256.474 251.174 256.744C250.632 257.015 250.16 257.406 249.793 257.887C249.426 258.368 249.174 258.928 249.057 259.522C248.94 260.116 248.961 260.728 249.118 261.313H249.121Z" fill="#171717"/>
</g>
<g opacity="0.1">
<path d="M492.031 784.157C496.795 787.575 504.117 786.993 509.654 786.391C515.443 785.719 521.119 784.286 526.533 782.127C538.333 777.519 549.019 769.893 557.933 760.959C576.768 742.09 587.541 717.137 597.882 693.014C599.46 689.334 598.948 685.165 595.242 682.945C592.168 681.103 586.726 681.932 585.173 685.585C575.817 707.592 566.25 730.551 550.057 748.545C542.586 756.936 533.56 763.801 523.478 768.76C518.536 771.147 513.347 772.985 508.005 774.239C502.819 775.485 496.805 775.254 492.027 777.681C489.303 779.065 489.91 782.638 492.027 784.157H492.031Z" fill="#171717"/>
</g>
<g opacity="0.1">
<path d="M237.786 612.855C233.353 617.183 231.533 623.843 230.84 629.774C230.018 636.806 231.481 643.939 232.714 650.874C235.434 666.161 238.991 681.244 242.742 696.307C250.232 726.381 259.194 756.094 268.996 785.49C272.281 795.341 287.939 791.126 284.636 781.179C275.37 753.279 267.164 725.085 259.503 696.709C255.717 682.685 252.417 668.536 248.647 654.509C246.914 648.059 245.026 641.587 243.924 634.99C243.342 631.506 243.001 628.074 242.534 624.59C242.298 622.832 241.592 621.343 241.634 619.519C241.676 617.84 242.083 616.319 242.023 614.619C242.009 614.134 241.856 613.663 241.581 613.263C241.305 612.863 240.92 612.551 240.472 612.365C240.023 612.179 239.531 612.127 239.053 612.216C238.576 612.304 238.134 612.528 237.782 612.862L237.786 612.855Z" fill="#171717"/>
</g>
</g>
<defs>
<linearGradient id="paint0_linear_510_1393" x1="466.761" y1="447.822" x2="466.761" y2="724.638" gradientUnits="userSpaceOnUse">
<stop stop-color="#FFB800"/>
<stop offset="1" stop-color="#FF7F0A"/>
</linearGradient>
<linearGradient id="paint1_linear_510_1393" x1="287.74" y1="257.902" x2="287.74" y2="300.019" gradientUnits="userSpaceOnUse">
<stop stop-color="#FFB800"/>
<stop offset="1" stop-color="#FF7F0A"/>
</linearGradient>
<linearGradient id="paint2_linear_510_1393" x1="273.494" y1="224.709" x2="273.494" y2="287.743" gradientUnits="userSpaceOnUse">
<stop stop-color="#FFB800"/>
<stop offset="1" stop-color="#FF7F0A"/>
</linearGradient>
<linearGradient id="paint3_linear_510_1393" x1="268.879" y1="220.484" x2="268.879" y2="254.899" gradientUnits="userSpaceOnUse">
<stop stop-color="#FFB800"/>
<stop offset="1" stop-color="#FF7F0A"/>
</linearGradient>
<clipPath id="clip0_510_1393">
<rect width="884" height="677" fill="white" transform="translate(38 142)"/>
</clipPath>
</defs>
</svg>
