<svg width="960" height="960" viewBox="0 0 960 960" fill="none" xmlns="http://www.w3.org/2000/svg">
<g clip-path="url(#clip0_46_115)">
<g clip-path="url(#clip1_46_115)">
<path d="M497.001 272.187C553.641 270.407 610.284 268.62 666.932 266.826C682.65 266.326 700.221 266.501 711.562 277.402C717.489 283.102 720.808 291.067 722.285 299.162C723.762 307.257 723.542 315.529 723.311 323.749C723.081 332.262 722.843 340.775 722.599 349.289L714.222 349.844L713.939 349.834C714.075 347.972 713.98 346.101 713.656 344.263C713.448 342.928 712.976 341.648 712.268 340.497C711.559 339.347 710.628 338.349 709.53 337.563C707.048 335.982 703.917 335.982 700.975 336.034C686.147 336.306 670.995 336.62 657.037 341.584L656.849 341.039C657.404 333.824 657.299 326.839 651.676 322.285C647.498 318.892 641.602 318.924 636.22 319.123C616.886 319.835 597.556 320.544 578.229 321.249C574.459 321.385 570.396 321.626 567.475 324.013C564.554 326.4 563.925 331.772 567.213 333.605L567.506 335.542L467.587 350.83L467.535 350.463L465.87 334.944L446.278 341.038L448.131 353.426L448.183 353.803L402.301 360.817L403.139 379.739L402.301 379.781L382.594 384.472L384.133 400.378L383.086 400.483L368.726 404.2C368.311 402.905 367.596 401.726 366.639 400.759C365.681 399.793 364.509 399.067 363.218 398.64C360.603 397.808 357.858 397.457 355.118 397.603C347.429 397.673 339.76 398.37 332.185 399.687C326.279 400.703 320.111 402.232 315.839 406.441C312.226 410.012 310.572 414.923 310.006 420.054L309.681 420.023L299.806 422.662L300.549 437.689L310.34 435.103L310.832 434.988C311.538 438.532 313.046 441.867 315.241 444.737C316.075 445.959 317.332 446.828 318.77 447.177C319.708 447.233 320.643 447.012 321.456 446.541C322.27 446.07 322.927 445.37 323.346 444.528C324.148 442.844 324.586 441.01 324.634 439.146C325.272 442.416 327.1 445.334 329.765 447.335C331.168 448.499 332.974 449.064 334.791 448.906C335.705 448.712 336.563 448.311 337.298 447.734C338.034 447.157 338.627 446.419 339.032 445.576C339.5 444.668 339.836 443.698 340.032 442.696C340.542 443.82 341.396 444.753 342.47 445.361C343.545 445.969 344.784 446.22 346.011 446.078C347.304 445.874 348.528 445.36 349.578 444.58C350.629 443.799 351.475 442.775 352.043 441.596C353.154 439.215 353.578 436.571 353.268 433.962L353.278 433.931C356.333 434.432 359.429 434.646 362.524 434.57C363.724 434.546 364.921 434.434 366.105 434.235L366.231 434.905C366.831 439.146 367.425 443.45 366.817 447.691C366.209 451.932 364.199 456.162 360.597 458.498C356.66 461.043 351.633 460.906 346.953 460.687L337.811 460.247C330.931 459.922 324.058 459.594 317.193 459.263C301.81 458.53 284.951 457.179 273.935 446.435C263.035 435.796 261.16 419.073 261.38 403.835C261.788 375.017 267.988 344.996 286.407 322.835C302.072 303.986 325.214 292.583 349.027 286.782C372.755 281.012 397.384 280.332 421.804 279.703L421.752 277.703C421.142 274.647 420.951 271.522 421.187 268.415C421.313 266.862 421.754 265.351 422.483 263.973C423.212 262.596 424.214 261.382 425.428 260.404C428.14 258.446 431.711 258.257 435.051 258.142C437.103 258.069 439.145 258.006 441.198 257.933L478.351 256.645L483.859 256.457C487.147 256.342 490.728 256.31 493.378 258.257C497.43 261.234 497.43 267.171 497.001 272.187Z" fill="#171717"/>
<path d="M722.6 349.289C722.485 353.509 722.37 357.729 722.254 361.949L712.83 362.749L712.61 362.707C713.181 359.271 713.569 355.807 713.772 352.33C713.835 351.503 713.898 350.665 713.94 349.838L714.223 349.848L722.6 349.289Z" fill="url(#paint0_linear_46_115)"/>
<path d="M698.723 372.525C699.006 374.378 699.54 376.431 701.152 377.394C701.841 377.747 702.611 377.913 703.384 377.877C704.158 377.84 704.908 377.602 705.561 377.185C706.857 376.331 707.925 375.174 708.671 373.813C710.665 370.388 712.001 366.619 712.608 362.703L712.828 362.745L722.252 361.945C722.137 365.903 722.022 369.872 721.917 373.83C721.739 380.113 721.257 387.13 716.629 391.391C713.229 394.522 708.377 395.381 703.801 396.051C695.989 397.184 688.146 398.133 680.272 398.899C674.272 399.485 667.738 399.841 662.711 396.511C657.684 393.181 655.936 384.647 660.973 381.327L660.963 381.107C662.964 380.976 664.953 380.692 666.911 380.259C668.886 379.978 670.726 379.093 672.178 377.725C672.826 376.925 673.29 375.993 673.538 374.994C673.786 373.996 673.811 372.955 673.613 371.945C673.193 369.925 672.367 368.012 671.184 366.322L671.174 366.249L673.007 366.092L673.332 366.061C673.5 367.632 673.751 369.182 674.075 370.731C674.675 373.558 675.824 376.668 678.484 377.799C679.301 378.118 680.179 378.25 681.054 378.187C681.929 378.124 682.779 377.866 683.542 377.433C685.065 376.556 686.29 375.243 687.06 373.663L687.751 373.485C687.893 374.085 688.1 374.668 688.369 375.223C688.663 375.891 689.107 376.484 689.666 376.954C690.225 377.424 690.885 377.76 691.594 377.935C692.374 378.03 693.165 377.935 693.9 377.658C694.635 377.38 695.291 376.929 695.814 376.343C696.843 375.163 697.67 373.822 698.264 372.374L698.693 372.311C698.7 372.389 698.712 372.452 698.723 372.525Z" fill="#171717"/>
<path d="M673.101 352.556L673.394 352.587C672.881 357.063 672.86 361.582 673.331 366.064L673.001 366.1L671.168 366.257L645.468 368.414L625.886 370.058H625.645L625.781 355.639L626.441 355.649L646.086 354.349L673.101 352.556Z" fill="url(#paint1_linear_46_115)"/>
<path d="M625.895 344.179L625.79 355.634L625.654 370.054L625.528 384.096L600.951 386.997L600.554 346.022L625.895 344.179Z" fill="url(#paint2_linear_46_115)"/>
<path d="M586.124 634.061L578.857 635.203L578.595 633.569L578.218 603.631L601.506 601.777L603.056 601.767L603.349 631.349L586.124 634.061Z" fill="url(#paint3_linear_46_115)"/>
<path d="M600.951 387L601.014 392.958L600.396 392.968L555.683 394.078L551.243 468.74L600.396 465.41L601.715 465.4L603.055 601.77L601.505 601.78L578.216 603.633L578.593 633.571L578.855 635.205L427.855 658.997L415.603 660.924L413.278 608.462L413.76 608.441L455.52 599.941L447.384 526.389L410.101 536.729L408.268 495.44L405.116 424.34L403.137 379.74L402.299 360.818L448.185 353.802L467.585 350.828L567.501 335.541L600.392 330.515L600.549 346.023L600.951 387ZM516.132 594.4L548.29 513.822L522.415 517.522L529.064 389.655L485.828 391.498L491.001 519L459.587 522.319L516.132 594.4Z" fill="url(#paint4_linear_46_115)"/>
<path d="M601.013 392.955L601.715 465.397L600.395 465.407L551.242 468.737L555.682 394.075L600.395 392.965L601.013 392.955Z" fill="url(#paint5_linear_46_115)"/>
<path d="M566.384 659.465L446.653 678.67L431.375 681.12L427.93 659.434L427.857 658.994L578.856 635.203L586.123 634.061L588.081 655.988L575.442 658.02L566.384 659.465Z" fill="url(#paint6_linear_46_115)"/>
<path d="M562.532 899.608L562.553 900.142C562.312 900.1 562.103 900.069 561.925 900.037C550.438 898.068 538.762 889.911 527.625 892.927L527.594 892.833L534.243 852.833L534.693 852.906C540.955 853.534 547.311 854.173 553.531 853.189C558.519 852.503 563.211 850.415 567.06 847.168C583.001 862.78 609.213 862.3 627.109 875.66C630.083 877.88 632.889 880.613 634.093 884.142C635.297 887.671 634.439 892.09 631.318 894.132C629.349 895.42 626.868 895.567 624.518 895.682C604.208 896.645 582.857 898.645 562.532 899.608Z" fill="url(#paint7_linear_46_115)"/>
<path d="M548.289 513.817L516.131 594.395L459.585 522.32L491 519L485.827 391.489L529.064 389.646L522.414 517.513L548.289 513.817Z" fill="#171717"/>
<path d="M534.97 164.4C527.027 170.23 517.889 174.226 508.215 176.1L507.691 175.974C508.044 175.383 508.276 174.728 508.372 174.047C508.759 171.324 506.791 168.696 504.33 167.46C501.869 166.224 499.01 166.109 496.256 166.088C478.831 165.973 461.574 169.24 444.527 172.821C439.27 173.931 433.741 175.221 429.888 178.947C428.796 180.023 427.854 181.242 427.088 182.57L426.365 182.13C424.208 182.277 421.517 182.12 420.637 180.151C420.427 179.674 420.355 179.148 420.428 178.633C420.578 177.683 421.052 176.813 421.768 176.172C422.927 175.252 424.269 174.591 425.705 174.235C449.067 166.769 473.287 162.706 497.676 159.711C501.76 159.219 505.844 158.747 509.928 158.297C516.828 157.533 523.728 156.821 530.62 156.119C532.103 155.872 533.62 155.904 535.091 156.213C535.826 156.378 536.502 156.74 537.046 157.26C537.59 157.78 537.982 158.439 538.18 159.166C538.582 161.294 536.718 163.126 534.97 164.4Z" fill="url(#paint8_linear_46_115)"/>
<path d="M499.859 180.08C499.726 178.08 499.559 176.08 499.359 174.08L499.432 172.68C484.939 171.832 470.3 172.45 456.132 175.633C451.943 176.575 447.556 177.884 444.676 181.068C440.876 185.278 440.707 191.54 440.749 197.215C440.801 203.802 440.85 210.385 440.896 216.964H440.54C437.427 220.854 433.964 224.45 430.194 227.708C428.665 229.038 426.885 230.378 424.854 230.336C421.43 230.263 419.315 226.085 420.048 222.736C420.781 219.387 423.378 216.799 425.848 214.422C422.79 217.389 419.011 219.507 414.884 220.569C413.549 221.042 412.086 221.001 410.779 220.454C409.03 219.501 408.559 217.093 409.145 215.197C409.901 213.355 411.011 211.679 412.412 210.265C416.733 205.109 420.198 199.293 422.674 193.039C424.056 189.531 425.187 185.782 427.093 182.578C427.859 181.249 428.801 180.031 429.893 178.955C433.747 175.227 439.275 173.939 444.532 172.829C461.58 169.248 478.837 165.981 496.261 166.096C499.015 166.117 501.861 166.243 504.335 167.468C506.809 168.693 508.764 171.332 508.377 174.055C508.281 174.736 508.05 175.391 507.696 175.982C506.251 178.432 502.89 179.72 499.863 180.15C499.859 180.122 499.859 180.1 499.859 180.08Z" fill="#171717"/>
<path d="M467.533 350.461L467.585 350.828L448.182 353.802L448.129 353.425L446.276 341.037L465.868 334.943L467.533 350.461Z" fill="url(#paint9_linear_46_115)"/>
<path d="M447.387 526.383L455.523 599.935L413.763 608.437L413.281 608.458L410.098 536.729L447.387 526.383Z" fill="url(#paint10_linear_46_115)"/>
<path d="M427.952 145.178C431.952 134.298 438.34 123.994 447.743 117.219C457.146 110.444 469.827 107.638 480.665 111.763C488.016 114.569 494.016 120.297 498.184 126.978C502.352 133.659 504.812 141.272 506.551 148.947C507.242 152.026 507.891 155.261 509.87 157.722L509.933 158.298C505.849 158.748 501.765 159.219 497.681 159.712L497.587 158.885C496.33 152.194 495.011 145.335 491.493 139.492C486.529 131.24 477.346 125.869 467.765 124.853C458.062 124.008 448.397 126.849 440.696 132.811C433.941 138.07 428.69 145.015 425.47 152.948C426.193 150.33 427.009 147.733 427.952 145.178Z" fill="url(#paint11_linear_46_115)"/>
<path d="M419.292 867.848C420.946 874.906 422.622 882.089 422.172 889.325C421.722 896.561 418.821 903.996 412.972 908.257C407.338 912.351 399.972 912.948 393.034 913.409C359.975 915.598 326.913 917.779 293.848 919.954C288.675 920.3 281.942 919.587 280.633 914.572C279.366 909.724 284.518 905.818 288.926 903.451C310.042 892.15 331.159 880.845 352.275 869.534L353.175 868.948C355.898 871.084 359.898 871.21 363.468 871.157L400.968 870.557C407.136 870.463 413.712 870.222 419.031 867.374L419.292 867.848Z" fill="url(#paint12_linear_46_115)"/>
<path d="M420.411 178.635C421.601 169.982 423.29 161.406 425.469 152.948C428.69 145.015 433.943 138.07 440.7 132.811C448.402 126.849 458.067 124.008 467.769 124.853C477.35 125.869 486.534 131.241 491.497 139.492C495.015 145.335 496.335 152.192 497.591 158.885L497.685 159.712C473.297 162.712 449.076 166.77 425.714 174.236C424.278 174.592 422.936 175.253 421.777 176.173C421.06 176.814 420.586 177.683 420.437 178.634H420.416L420.411 178.635Z" fill="url(#paint13_linear_46_115)"/>
<path d="M405.113 424.338L408.265 495.438L407.647 495.469C391.521 495.835 378.295 496.202 362.389 496.558C361.729 496.579 361.059 496.6 360.389 496.61C354.525 496.746 348.253 496.767 343.362 493.521C338.503 490.296 336.011 484.337 335.571 478.515C335.131 472.693 336.451 466.892 337.771 461.206L337.813 460.243L346.955 460.683C351.636 460.903 356.662 461.039 360.599 458.494C364.199 456.159 366.199 451.928 366.819 447.687C367.439 443.446 366.829 439.142 366.233 434.901L366.107 434.231C368.449 433.948 370.604 432.81 372.16 431.037C374.642 427.885 373.93 423.372 373.102 419.445L372.872 418.555L385.302 415.267L385.564 415.246L386.779 427.833L404.279 424.377L405.113 424.338Z" fill="#171717"/>
<path d="M403.133 379.74L405.112 424.338L404.275 424.38L386.777 427.835L385.562 415.249L384.128 400.379L382.588 384.473L402.296 379.782L403.133 379.74Z" fill="url(#paint14_linear_46_115)"/>
<path d="M368.724 404.2L383.08 400.483L384.127 400.383L385.562 415.253L385.3 415.274L372.87 418.562L356.87 422.792L357.006 423.305C355.936 423.562 354.887 423.896 353.865 424.305L353.739 424.012C354.137 418.694 354.085 413.352 353.582 408.043L354.011 408.001L368.724 404.2Z" fill="url(#paint15_linear_46_115)"/>
<path d="M310.828 434.987L310.336 435.102L300.545 437.688L299.802 422.661L309.677 420.022L310.002 420.053C309.517 425.044 309.795 430.08 310.828 434.987V434.987Z" fill="url(#paint16_linear_46_115)"/>
<path d="M468.728 221.18C470.665 222.646 473.671 221.159 474.634 218.929C475.597 216.699 475.147 214.144 474.665 211.756C473.272 204.718 471.872 197.675 470.465 190.625C470.165 189.107 469.889 187.389 470.779 186.101C471.633 185.12 472.804 184.468 474.088 184.258C478.879 182.997 483.847 182.545 488.788 182.918" stroke="#171717" stroke-width="3.141" stroke-linecap="round" stroke-linejoin="round"/>
<path d="M488.026 193.525C487.641 192.664 486.997 191.944 486.184 191.466C485.371 190.987 484.429 190.774 483.489 190.856C482.549 190.938 481.658 191.31 480.94 191.922C480.222 192.534 479.712 193.354 479.481 194.269" stroke="#171717" stroke-width="3.141" stroke-linecap="round" stroke-linejoin="round"/>
<path d="M464.653 236.416C463.816 236.998 462.851 237.368 461.839 237.494C460.828 237.62 459.801 237.499 458.846 237.14C457.892 236.782 457.039 236.197 456.361 235.436C455.683 234.675 455.2 233.761 454.953 232.772" stroke="#171717" stroke-width="3.141" stroke-linecap="round" stroke-linejoin="round"/>
<path d="M462.13 194.028C461.689 192.924 460.868 192.014 459.815 191.462C458.762 190.91 457.547 190.753 456.388 191.019C455.23 191.284 454.204 191.955 453.497 192.91C452.789 193.865 452.446 195.042 452.53 196.228" stroke="#171717" stroke-width="3.141" stroke-linecap="round" stroke-linejoin="round"/>
<path d="M478.34 256.281C477.496 254.022 477.309 251.57 477.8 249.209C478.291 246.848 479.44 244.674 481.115 242.94C484.236 239.799 488.815 238.511 492.058 235.495C496.226 231.621 497.514 225.61 498.33 219.966C500.231 206.781 500.744 193.434 499.859 180.143V180.08C499.726 178.08 499.559 176.08 499.359 174.08" stroke="#171717" stroke-width="3.141" stroke-linecap="round" stroke-linejoin="round"/>
<path d="M441.201 257.841C441.107 244.218 441.007 230.591 440.901 216.96C440.849 210.373 440.8 203.79 440.754 197.211C440.712 191.535 440.88 185.273 444.681 181.064C447.561 177.881 451.948 176.572 456.137 175.629C470.305 172.446 484.944 171.829 499.437 172.676C499.5 172.676 499.573 172.686 499.637 172.686" stroke="#171717" stroke-width="3.141" stroke-linecap="round" stroke-linejoin="round"/>
<path d="M440.538 216.96C437.425 220.848 433.962 224.443 430.192 227.7C428.663 229.03 426.883 230.37 424.852 230.328C421.428 230.255 419.313 226.077 420.046 222.728C420.779 219.379 423.376 216.791 425.846 214.414C422.788 217.381 419.009 219.5 414.882 220.561C413.549 221.033 412.087 220.992 410.782 220.446C409.033 219.493 408.562 217.085 409.148 215.189C409.904 213.347 411.014 211.671 412.415 210.257C416.736 205.101 420.2 199.285 422.677 193.031C424.059 189.523 425.19 185.774 427.096 182.57C427.862 181.242 428.804 180.023 429.896 178.947C433.75 175.219 439.278 173.931 444.535 172.821C461.583 169.24 478.84 165.973 496.264 166.088C499.018 166.109 501.864 166.235 504.338 167.46C506.812 168.685 508.767 171.324 508.38 174.047C508.284 174.728 508.053 175.383 507.699 175.974C506.254 178.424 502.893 179.712 499.866 180.142C499.803 180.152 499.751 180.152 499.688 180.163C499.75 180.139 499.809 180.111 499.866 180.079C500.044 180.006 500.233 179.911 500.421 179.828" stroke="#171717" stroke-width="3.141" stroke-linecap="round" stroke-linejoin="round"/>
<path d="M426.37 182.132C424.213 182.279 421.522 182.122 420.642 180.153C420.432 179.676 420.36 179.15 420.433 178.635C420.583 177.685 421.056 176.815 421.773 176.174C422.932 175.254 424.274 174.593 425.71 174.237C449.072 166.771 473.292 162.708 497.681 159.713C501.765 159.221 505.849 158.749 509.933 158.299C516.833 157.535 523.733 156.823 530.625 156.121C532.108 155.874 533.625 155.906 535.096 156.215C535.831 156.38 536.507 156.742 537.051 157.262C537.595 157.782 537.987 158.441 538.185 159.168C538.585 161.294 536.719 163.126 534.97 164.404C527.027 170.234 517.889 174.23 508.215 176.104" stroke="#171717" stroke-width="3.141" stroke-linecap="round" stroke-linejoin="round"/>
<path d="M420.349 179.043L420.412 178.635C421.602 169.982 423.291 161.406 425.47 152.948C426.193 150.33 427.009 147.733 427.952 145.178C431.952 134.298 438.34 123.994 447.743 117.219C457.146 110.444 469.827 107.638 480.665 111.763C488.016 114.569 494.016 120.297 498.184 126.978C502.352 133.659 504.812 141.272 506.551 148.947C507.242 152.026 507.891 155.261 509.87 157.722" stroke="#171717" stroke-width="3.141" stroke-linecap="round" stroke-linejoin="round"/>
<path d="M424.266 156.079C424.632 155.021 425.041 153.985 425.466 152.948C428.688 145.014 433.942 138.069 440.701 132.811C448.402 126.849 458.067 124.008 467.77 124.853C477.351 125.869 486.535 131.241 491.498 139.492C495.016 145.335 496.336 152.192 497.592 158.885" stroke="#171717" stroke-width="3.141" stroke-linecap="round" stroke-linejoin="round"/>
<path d="M421.753 277.705C421.142 274.649 420.952 271.524 421.188 268.417C421.314 266.864 421.755 265.353 422.484 263.975C423.213 262.598 424.215 261.384 425.429 260.406C428.141 258.448 431.712 258.259 435.052 258.144C437.104 258.071 439.146 258.008 441.199 257.935L478.352 256.647L483.86 256.459C487.148 256.344 490.729 256.312 493.379 258.259C497.431 261.233 497.431 267.17 497.002 272.186V272.249" stroke="#171717" stroke-width="3.141" stroke-linecap="round" stroke-linejoin="round"/>
<path d="M407.648 495.471C391.522 495.837 378.296 496.204 362.39 496.56C361.73 496.581 361.06 496.602 360.39 496.612C354.526 496.748 348.254 496.769 343.363 493.523C338.504 490.298 336.012 484.339 335.572 478.517C335.132 472.695 336.452 466.894 337.772 461.208" stroke="#171717" stroke-width="3.141" stroke-linecap="round" stroke-linejoin="round"/>
<path d="M366.233 434.9C366.833 439.141 367.427 443.445 366.819 447.686C366.211 451.927 364.201 456.157 360.599 458.493C356.662 461.038 351.635 460.901 346.955 460.682L337.813 460.242C330.933 459.917 324.06 459.589 317.195 459.258C301.812 458.525 284.953 457.174 273.937 446.43C263.037 435.791 261.162 419.068 261.382 403.83C261.79 375.012 267.99 344.991 286.409 322.83C302.074 303.981 325.216 292.578 349.029 286.777C372.757 281.007 397.386 280.327 421.806 279.698C421.882 279.69 421.959 279.686 422.036 279.688" stroke="#171717" stroke-width="3.141" stroke-linecap="round" stroke-linejoin="round"/>
<path d="M496.352 272.208C496.572 272.198 496.781 272.198 497.001 272.187C553.641 270.407 610.284 268.62 666.932 266.826C682.65 266.326 700.221 266.501 711.562 277.402C717.489 283.102 720.808 291.067 722.285 299.162C723.762 307.257 723.542 315.529 723.311 323.749C723.081 332.262 722.843 340.775 722.599 349.289C722.483 353.509 722.368 357.729 722.253 361.949C722.138 365.907 722.023 369.876 721.918 373.834C721.74 380.117 721.258 387.134 716.63 391.395C713.23 394.526 708.378 395.385 703.802 396.055C695.99 397.188 688.147 398.138 680.273 398.903C674.273 399.489 667.739 399.845 662.712 396.515C657.685 393.185 655.937 384.651 660.974 381.331" stroke="#171717" stroke-width="3.141" stroke-linecap="round" stroke-linejoin="round"/>
<path d="M656.847 341.037C657.402 333.822 657.297 326.837 651.674 322.283C647.496 318.89 641.6 318.922 636.218 319.121C616.888 319.833 597.558 320.541 578.227 321.247C574.457 321.383 570.394 321.624 567.473 324.011C564.552 326.398 563.923 331.77 567.211 333.603" stroke="#171717" stroke-width="3.141" stroke-linecap="round" stroke-linejoin="round"/>
<path d="M362.42 497.743C357.928 618.856 354.493 736.828 350.001 857.943C349.875 861.472 349.865 865.378 352.201 868.027C352.497 868.363 352.823 868.671 353.175 868.948C355.898 871.084 359.898 871.21 363.468 871.157L400.968 870.557C407.136 870.463 413.712 870.222 419.031 867.374C419.951 866.88 420.826 866.309 421.649 865.667C428.194 860.505 429.901 851.467 431.149 843.227C437.955 798.461 444.765 753.694 451.579 708.927" stroke="#171717" stroke-width="3.141" stroke-linecap="round" stroke-linejoin="round"/>
<path d="M352.274 869.534C331.163 880.844 310.045 892.15 288.921 903.451C284.513 905.818 279.361 909.723 280.628 914.572C281.937 919.588 288.67 920.3 293.843 919.954C326.902 917.776 359.964 915.594 393.029 913.409C399.972 912.948 407.329 912.351 412.967 908.257C418.821 903.995 421.721 896.557 422.167 889.325C422.613 882.093 420.942 874.906 419.287 867.848" stroke="#171717" stroke-width="3.141" stroke-linecap="round" stroke-linejoin="round"/>
<path d="M448.182 353.802L402.296 360.818L403.133 379.74L405.112 424.338L408.264 495.439L410.097 536.729L413.28 608.458L415.605 660.921L427.857 658.994L578.856 635.203L586.123 634.061L603.348 631.349L603.055 601.767L601.715 465.397L601.013 392.955L600.95 386.997L600.553 346.022L600.395 330.513L567.504 335.54L467.585 350.828L448.182 353.802Z" stroke="#171717" stroke-width="3.141" stroke-linecap="round" stroke-linejoin="round"/>
<path d="M427.931 659.434L431.376 681.12L446.654 678.67L566.385 659.465L575.443 658.02L588.082 655.988L586.124 634.061L586.103 633.81" stroke="#171717" stroke-width="3.141" stroke-linecap="round" stroke-linejoin="round"/>
<path d="M446.653 678.659V678.67L451.732 708.901H451.742L484.591 904.352" stroke="#171717" stroke-width="3.141" stroke-linecap="round" stroke-linejoin="round"/>
<path d="M566.395 659.434L566.384 659.465L534.237 852.832L527.587 892.833" stroke="#171717" stroke-width="3.141" stroke-linecap="round" stroke-linejoin="round"/>
<path d="M457.062 911.943C458.564 908.301 461.286 905.296 464.762 903.443C468.238 901.589 472.25 901.004 476.11 901.786C478.958 902.446 481.724 903.88 484.52 904.634C486.157 905.133 487.889 905.245 489.577 904.959C492.97 904.299 495.567 901.639 498.603 899.964C501.783 898.298 505.408 897.682 508.96 898.203C512.511 898.724 515.806 900.355 518.373 902.864C521.232 899.618 522.834 894.403 526.973 893.115C527.193 893.052 527.402 892.989 527.622 892.927C538.764 889.911 550.439 898.069 561.922 900.037C562.1 900.068 562.309 900.1 562.55 900.142C567.44 900.917 584.45 903.231 588.079 903.859" stroke="#171717" stroke-width="3.141" stroke-linecap="round" stroke-linejoin="round"/>
<path d="M534.688 852.905C540.95 853.533 547.306 854.172 553.526 853.188C558.514 852.501 563.205 850.414 567.055 847.167C568.025 846.316 568.903 845.365 569.672 844.329C573.463 839.219 574.322 832.58 574.961 826.245C580.542 770.845 578.426 714.975 575.66 659.361" stroke="#171717" stroke-width="3.141" stroke-linecap="round" stroke-linejoin="round"/>
<path d="M566.992 847.1L567.055 847.163C583.001 862.78 609.213 862.3 627.109 875.66C630.083 877.88 632.889 880.613 634.093 884.142C635.297 887.671 634.439 892.09 631.318 894.132C629.349 895.42 626.868 895.567 624.518 895.682C604.203 896.645 582.852 898.645 562.527 899.609C562.464 899.609 562.412 899.619 562.349 899.619" stroke="#171717" stroke-width="3.141" stroke-linecap="round" stroke-linejoin="round"/>
<path d="M548.289 513.817L516.131 594.395L459.585 522.32L491 519L485.827 391.489L529.064 389.646L522.414 517.513L548.289 513.817Z" stroke="#171717" stroke-width="3.141" stroke-linecap="round" stroke-linejoin="round"/>
<path d="M413.762 608.437L455.522 599.935L447.386 526.383L410.097 536.729L410.065 536.739" stroke="#171717" stroke-width="3.141" stroke-linecap="round" stroke-linejoin="round"/>
<path d="M600.395 392.965L555.682 394.075L551.242 468.737L600.395 465.407" stroke="#171717" stroke-width="3.141" stroke-linecap="round" stroke-linejoin="round"/>
<path d="M578.595 633.569L578.218 603.631L601.506 601.777" stroke="#171717" stroke-width="3.141" stroke-linecap="round" stroke-linejoin="round"/>
<path d="M586.332 619.505C587.149 618.105 587.966 616.706 588.782 615.306C589.693 613.756 590.604 612.196 591.505 610.646" stroke="#171717" stroke-width="3.141" stroke-linecap="round" stroke-linejoin="round"/>
<path d="M592.626 618.061C591.348 617.139 590.06 616.218 588.783 615.307C587.474 614.365 586.176 613.433 584.877 612.501" stroke="#171717" stroke-width="3.141" stroke-linecap="round" stroke-linejoin="round"/>
<path d="M567.829 404.861C566.625 403.981 565.428 403.101 564.237 402.222C563.237 401.479 562.216 400.735 561.211 400.002" stroke="#171717" stroke-width="3.141" stroke-linecap="round" stroke-linejoin="round"/>
<path d="M567.023 398.787C566.091 399.939 565.17 401.08 564.238 402.222C563.463 403.185 562.678 404.149 561.903 405.112" stroke="#171717" stroke-width="3.141" stroke-linecap="round" stroke-linejoin="round"/>
<path d="M564.521 461.742C563.39 460.663 562.259 459.595 561.128 458.517C560.175 457.606 559.222 456.695 558.269 455.794" stroke="#171717" stroke-width="3.141" stroke-linecap="round" stroke-linejoin="round"/>
<path d="M558.636 462.077C559.463 460.894 560.301 459.71 561.128 458.517C562.018 457.24 562.908 455.962 563.809 454.684" stroke="#171717" stroke-width="3.141" stroke-linecap="round" stroke-linejoin="round"/>
<path d="M441.951 540.226C440.757 539.608 439.551 538.99 438.359 538.373C437.301 537.829 436.259 537.284 435.197 536.739" stroke="#171717" stroke-width="3.141" stroke-linecap="round" stroke-linejoin="round"/>
<path d="M440.37 534.519C439.7 535.807 439.03 537.084 438.359 538.372L435.94 543.021" stroke="#171717" stroke-width="3.141" stroke-linecap="round" stroke-linejoin="round"/>
<path d="M447.02 594.762C445.834 593.557 444.517 592.489 443.093 591.579C441.88 590.797 440.597 590.13 439.26 589.589" stroke="#171717" stroke-width="3.141" stroke-linecap="round" stroke-linejoin="round"/>
<path d="M445.313 587.966C444.58 589.17 443.84 590.374 443.093 591.579C442.161 593.118 441.219 594.647 440.276 596.186" stroke="#171717" stroke-width="3.141" stroke-linecap="round" stroke-linejoin="round"/>
<path d="M402.296 379.782L382.588 384.473L384.128 400.379L385.562 415.249L386.777 427.835L404.275 424.38" stroke="#171717" stroke-width="3.141" stroke-linecap="round" stroke-linejoin="round"/>
<path d="M354.441 423.427L356.87 422.788L372.871 418.558L385.3 415.27" stroke="#171717" stroke-width="3.141" stroke-linecap="round" stroke-linejoin="round"/>
<path d="M309.676 420.024L299.802 422.662L300.545 437.689L310.336 435.103" stroke="#171717" stroke-width="3.141" stroke-linecap="round" stroke-linejoin="round"/>
<path d="M383.081 400.484L368.725 404.201L354.013 408.002" stroke="#171717" stroke-width="3.141" stroke-linecap="round" stroke-linejoin="round"/>
<path d="M600.396 346.032L600.553 346.022L625.894 344.179L625.789 355.634L625.654 370.054L625.527 384.096L600.951 386.997L600.396 387.059" stroke="#171717" stroke-width="3.141" stroke-linecap="round" stroke-linejoin="round"/>
<path d="M673.006 366.095L671.173 366.253L645.476 368.41L625.895 370.054" stroke="#171717" stroke-width="3.141" stroke-linecap="round" stroke-linejoin="round"/>
<path d="M714.221 349.844L722.598 349.289L727.163 348.985L726.975 361.551L722.252 361.949L712.828 362.745" stroke="#171717" stroke-width="3.141" stroke-linecap="round" stroke-linejoin="round"/>
<path d="M626.449 355.645L646.093 354.346L673.099 352.556" stroke="#171717" stroke-width="3.141" stroke-linecap="round" stroke-linejoin="round"/>
<path d="M467.533 350.461L465.868 334.943L446.276 341.037L448.129 353.425" stroke="#171717" stroke-width="3.141" stroke-linecap="round" stroke-linejoin="round"/>
<path d="M358.442 422.977C357.96 423.082 357.479 423.186 357.007 423.302C355.937 423.559 354.887 423.893 353.865 424.302V424.312C351.799 425.093 349.997 426.444 348.666 428.207C347.902 429.233 347.251 430.595 347.796 431.746C348.296 432.804 349.576 433.191 350.718 433.446C351.566 433.634 352.425 433.792 353.284 433.928C356.34 434.429 359.435 434.643 362.53 434.567C363.731 434.543 364.928 434.431 366.111 434.232C368.454 433.949 370.609 432.812 372.164 431.038C374.646 427.886 373.934 423.373 373.106 419.446" stroke="#171717" stroke-width="3.141" stroke-linecap="round" stroke-linejoin="round"/>
<path d="M368.745 404.264C368.743 404.242 368.736 404.22 368.724 404.201C368.31 402.905 367.595 401.726 366.637 400.76C365.68 399.794 364.508 399.068 363.216 398.641C360.6 397.808 357.853 397.457 355.111 397.604C347.423 397.674 339.753 398.371 332.178 399.688C326.272 400.704 320.104 402.233 315.832 406.442C312.219 410.013 310.565 414.924 309.999 420.055C309.736 422.598 309.687 425.159 309.852 427.71C309.984 430.158 310.309 432.592 310.826 434.988C311.532 438.532 313.041 441.866 315.235 444.737C316.069 445.959 317.327 446.828 318.764 447.177C319.703 447.233 320.637 447.012 321.451 446.541C322.265 446.07 322.922 445.37 323.34 444.528C324.142 442.844 324.581 441.01 324.628 439.146V439.094C325.445 429.659 325.54 420.176 324.911 410.727" stroke="#171717" stroke-width="3.141" stroke-linecap="round" stroke-linejoin="round"/>
<path d="M324.4 435.658C324.314 436.825 324.392 437.999 324.63 439.145C325.269 442.415 327.097 445.333 329.761 447.334C331.165 448.498 332.97 449.063 334.787 448.905C335.702 448.711 336.56 448.31 337.295 447.733C338.03 447.156 338.623 446.417 339.028 445.575C339.496 444.667 339.833 443.697 340.028 442.695C340.216 441.868 340.342 441.02 340.447 440.182C341.756 429.491 340.405 418.663 339.054 407.972" stroke="#171717" stroke-width="3.141" stroke-linecap="round" stroke-linejoin="round"/>
<path d="M339.9 442.286C339.942 442.422 339.984 442.558 340.036 442.694C340.547 443.818 341.401 444.751 342.475 445.359C343.55 445.967 344.789 446.218 346.015 446.076C347.308 445.872 348.533 445.358 349.583 444.578C350.634 443.797 351.479 442.773 352.047 441.594C353.158 439.213 353.583 436.569 353.272 433.96" stroke="#171717" stroke-width="3.141" stroke-linecap="round" stroke-linejoin="round"/>
<path d="M353.739 424.013C354.137 418.695 354.085 413.353 353.582 408.044C353.498 407.144 353.394 406.253 353.289 405.353" stroke="#171717" stroke-width="3.141" stroke-linecap="round" stroke-linejoin="round"/>
<path d="M646.051 353.634C645.871 352.222 646.038 350.788 646.538 349.456C647.038 348.124 647.855 346.934 648.92 345.99C651.065 344.114 653.575 342.702 656.292 341.843C656.543 341.749 656.784 341.665 657.035 341.581C670.994 336.617 686.146 336.303 700.973 336.031C703.916 335.979 707.046 335.979 709.528 337.56C710.627 338.346 711.557 339.344 712.266 340.494C712.974 341.645 713.446 342.925 713.654 344.26C713.978 346.098 714.073 347.969 713.937 349.831C713.895 350.658 713.832 351.496 713.769 352.323C713.565 355.8 713.177 359.264 712.607 362.7C711.999 366.616 710.664 370.385 708.67 373.81C707.923 375.17 706.856 376.328 705.56 377.182C704.907 377.599 704.157 377.838 703.383 377.874C702.61 377.911 701.84 377.744 701.151 377.391C699.538 376.428 699.004 374.375 698.722 372.522C698.712 372.449 698.701 372.386 698.691 372.313C697.372 363.287 698.586 354.103 699.801 345.066" stroke="#171717" stroke-width="3.141" stroke-linecap="round" stroke-linejoin="round"/>
<path d="M698.263 372.378C697.669 373.826 696.841 375.167 695.813 376.347C695.29 376.933 694.633 377.384 693.898 377.661C693.164 377.938 692.373 378.034 691.593 377.939C690.884 377.764 690.224 377.428 689.665 376.958C689.106 376.488 688.662 375.895 688.368 375.227C688.099 374.672 687.892 374.089 687.75 373.489C687.551 372.671 687.404 371.842 687.31 371.007C686.037 362.186 686.027 353.23 687.279 344.407" stroke="#171717" stroke-width="3.141" stroke-linecap="round" stroke-linejoin="round"/>
<path d="M687.059 373.666C686.288 375.245 685.063 376.558 683.541 377.436C682.778 377.87 681.928 378.128 681.053 378.191C680.178 378.254 679.3 378.121 678.483 377.802C675.823 376.671 674.671 373.561 674.074 370.734C673.748 369.19 673.5 367.632 673.331 366.064C672.859 361.582 672.88 357.063 673.394 352.587C673.739 349.463 674.242 346.359 674.902 343.287" stroke="#171717" stroke-width="3.141" stroke-linecap="round" stroke-linejoin="round"/>
<path d="M645.501 368.7C645.386 371.967 645.438 375.569 647.585 378.03C649.543 380.271 652.747 380.92 655.721 381.119C657.467 381.23 659.22 381.227 660.967 381.109C662.968 380.978 664.956 380.694 666.915 380.261C668.89 379.98 670.73 379.095 672.182 377.727C672.829 376.927 673.293 375.995 673.541 374.996C673.789 373.997 673.815 372.956 673.617 371.947C673.197 369.927 672.371 368.014 671.188 366.324" stroke="#171717" stroke-width="3.141" stroke-linecap="round" stroke-linejoin="round"/>
<path d="M351.486 806.642C348.34 791 333.06 778.718 317.1 779.013C301.14 779.308 286.328 792.143 283.762 807.893C279.431 803.587 273.872 800.73 267.849 799.715C261.827 798.699 255.638 799.576 250.134 802.223C239.275 807.723 233.027 818.851 233.746 831.633C229.986 825.047 222.072 823.681 214.856 826.015C207.64 828.349 202.177 834.521 198.956 841.386C195.735 848.251 194.449 855.839 193.197 863.319C168.156 860.091 141.824 874.478 131.012 897.294C128.905 901.741 127.452 907.337 130.341 911.32C133.23 915.303 138.961 915.656 143.895 915.605C189.919 915.131 235.899 913.221 281.833 909.876" stroke="#171717" stroke-width="3.141" stroke-linecap="round" stroke-linejoin="round"/>
<path d="M658.86 876.568C660.153 868.48 661.607 860.327 664.86 852.809C668.113 845.291 673.344 838.364 680.598 834.562C687.852 830.76 697.281 830.592 703.905 835.408C707.538 827.599 711.315 819.586 717.595 813.691C723.875 807.796 733.336 804.448 741.295 807.732C749.677 811.19 753.847 820.563 756.129 829.338C756.113 820.762 766.153 814.409 774.419 816.692C782.685 818.975 788.007 827.87 787.888 836.445C792.556 829.922 800.079 824.984 808.097 825.245C818.826 825.599 827.457 835.165 830.317 845.512C833.177 855.859 831.559 866.849 829.923 877.458" stroke="#171717" stroke-width="3.141" stroke-linecap="round" stroke-linejoin="round"/>
<path d="M658.051 876.19L828.551 876.88" stroke="#171717" stroke-width="3.141" stroke-linecap="round" stroke-linejoin="round"/>
<path d="M576.744 688.018L687.618 674.221L693.532 831.416" stroke="#171717" stroke-width="3.141" stroke-linecap="round" stroke-linejoin="round"/>
<path d="M357.951 628.885L276.15 639.726L267.773 799.386" stroke="#171717" stroke-width="3.141" stroke-linecap="round" stroke-linejoin="round"/>
<path d="M270.238 733.847L194.35 742.224L200.756 835.851" stroke="#171717" stroke-width="3.141" stroke-linecap="round" stroke-linejoin="round"/>
<path d="M417.086 677.119C413.455 677.108 409.881 676.221 406.666 674.532C403.452 672.844 400.693 670.404 398.624 667.421C396.555 664.437 395.236 660.998 394.781 657.396C394.326 653.794 394.748 650.135 396.01 646.731" stroke="#171717" stroke-width="3.141" stroke-linecap="round" stroke-linejoin="round"/>
<path d="M397.901 681.434C395.599 680.99 393.489 679.851 391.856 678.17C390.223 676.489 389.146 674.347 388.77 672.034" stroke="#171717" stroke-width="3.141" stroke-linecap="round" stroke-linejoin="round"/>
<path d="M606.238 643.8C610.372 641.063 613.765 637.346 616.116 632.98C618.466 628.615 619.7 623.736 619.709 618.778" stroke="#171717" stroke-width="3.141" stroke-linecap="round" stroke-linejoin="round"/>
<path d="M611.511 660.969C619.191 657.182 625.722 651.413 630.427 644.258C635.132 637.103 637.841 628.821 638.275 620.269" stroke="#171717" stroke-width="3.141" stroke-linecap="round" stroke-linejoin="round"/>
<path d="M601.101 390.24C616.709 393.66 626.871 412.485 621.166 427.41C619.916 430.679 618.018 433.868 618.111 437.367C618.356 446.594 631.489 450.803 633.011 459.908C634.559 469.173 623.626 475.29 619.631 483.792C616.261 490.963 618.115 499.355 617.781 507.271C617.447 515.187 612.818 524.506 604.896 524.393" stroke="#171717" stroke-width="3.141" stroke-linecap="round" stroke-linejoin="round"/>
<path d="M717.977 407.755C720.276 408.083 722.621 407.842 724.805 407.052C726.99 406.263 728.947 404.949 730.505 403.225C732.062 401.502 733.173 399.423 733.739 397.17C734.305 394.918 734.31 392.56 733.752 390.306" stroke="#171717" stroke-width="3.141" stroke-linecap="round" stroke-linejoin="round"/>
<path d="M737.428 292.842C738.928 278.834 728.161 264.61 714.27 262.259" stroke="#171717" stroke-width="3.141" stroke-linecap="round" stroke-linejoin="round"/>
<path d="M748.106 267.632C747.812 264.224 746.724 260.931 744.93 258.018C743.136 255.105 740.686 252.652 737.775 250.855" stroke="#171717" stroke-width="3.141" stroke-linecap="round" stroke-linejoin="round"/>
<path d="M247.319 353.341C250.31 335.826 259.975 320.153 274.282 309.616" stroke="#171717" stroke-width="3.141" stroke-linecap="round" stroke-linejoin="round"/>
<path d="M237.281 326.8C237.501 323.496 238.433 320.28 240.014 317.371C241.594 314.462 243.786 311.929 246.438 309.948" stroke="#171717" stroke-width="3.141" stroke-linecap="round" stroke-linejoin="round"/>
<path d="M307.581 146.936C314.705 161.1 322 176.007 321.6 191.857C321.2 207.707 310.237 224.502 294.421 225.622C281.437 226.542 268.885 215.165 268.528 202.154C268.455 199.505 268.928 196.626 270.844 194.795C274.581 191.226 280.993 193.96 284.219 197.995C286.63 201.013 288.212 204.608 288.808 208.425C289.404 212.242 288.994 216.148 287.618 219.758C286.242 223.368 283.947 226.556 280.962 229.008C277.976 231.459 274.402 233.089 270.594 233.737C264.394 234.789 258.012 233.177 251.755 233.837C246.93 234.347 242.344 236.196 238.514 239.174C234.683 242.152 231.762 246.142 230.079 250.692C228.395 255.243 228.017 260.173 228.987 264.927C229.957 269.681 232.237 274.069 235.568 277.597" stroke="#171717" stroke-width="3.141" stroke-linecap="round" stroke-linejoin="round"/>
<path d="M405.3 178.2C398.313 169.761 398.254 156.359 405.166 147.859" stroke="#171717" stroke-width="3.141" stroke-linecap="round" stroke-linejoin="round"/>
<path d="M543.459 176C547.2 172.612 549.996 168.31 551.573 163.516C553.149 158.722 553.453 153.601 552.453 148.654" stroke="#171717" stroke-width="3.141" stroke-linecap="round" stroke-linejoin="round"/>
<path d="M567.101 119.142C562.344 113.957 556.886 109.462 550.887 105.786" stroke="#171717" stroke-width="3.141" stroke-linecap="round" stroke-linejoin="round"/>
<path d="M550.135 121.325C554.324 115.276 559.295 109.808 564.918 105.063" stroke="#171717" stroke-width="3.141" stroke-linecap="round" stroke-linejoin="round"/>
<path d="M503.441 65.1538C503.125 56.7791 502.809 48.4045 502.494 40.0298" stroke="#171717" stroke-width="3.141" stroke-linecap="round" stroke-linejoin="round"/>
<path d="M486.572 55.5537C495.984 51.2969 505.941 48.3656 516.158 46.8438" stroke="#171717" stroke-width="3.141" stroke-linecap="round" stroke-linejoin="round"/>
<path d="M249.129 564.529C252.699 576.019 256.281 587.558 258.151 599.444C259.51 608.081 259.886 617.257 256.313 625.236C252.74 633.215 244.26 639.536 235.627 638.154C226.994 636.772 220.815 625.573 225.957 618.501C229.964 612.991 238.713 612.578 244.282 616.501C249.851 620.424 252.482 627.501 252.751 634.313C252.963 639.782 251.691 645.579 247.927 649.552C238.515 659.485 220.142 652.98 209.57 661.668C203.428 666.715 201.824 675.752 203.57 683.508C205.316 691.264 209.824 698.068 214.245 704.676" stroke="#171717" stroke-width="3.141" stroke-linecap="round" stroke-linejoin="round"/>
<path d="M701.975 509.129C689.411 518.966 681.975 534.429 679.875 550.244C677.775 566.059 680.638 582.222 685.853 597.302C688.189 604.057 691.066 610.768 695.712 616.202C700.358 621.636 707.02 625.687 714.167 625.811C721.314 625.935 728.689 621.434 730.601 614.546C732.513 607.658 727.462 599.307 720.324 598.929C712.062 598.491 706.204 608.171 707.424 616.355C708.644 624.539 714.532 631.149 720.318 637.063C726.104 642.977 732.295 649.138 734.402 657.139C737.541 669.059 729.085 682.739 717.018 685.254" stroke="#171717" stroke-width="3.141" stroke-linecap="round" stroke-linejoin="round"/>
<path d="M455.4 333.566C454.63 329.297 452.44 325.413 449.185 322.546C447.55 321.14 445.601 320.148 443.503 319.651C441.404 319.154 439.217 319.167 437.125 319.69C431.379 321.337 427.744 327.326 427.016 333.259C426.288 339.192 427.885 345.137 429.467 350.901L430.414 349.743" stroke="url(#paint17_linear_46_115)" stroke-width="3.141" stroke-miterlimit="10"/>
<path d="M399.273 436.554C383.727 438.254 371.705 455.18 375.223 470.417C378.915 486.408 396.418 498.875 393.623 515.048C391.923 524.894 383.102 531.734 378.247 540.466C375.345 545.685 373.883 551.582 374.011 557.552C374.138 563.522 375.851 569.351 378.973 574.442C382.095 579.532 386.515 583.701 391.779 586.521C397.043 589.34 402.962 590.71 408.929 590.489" stroke="url(#paint18_linear_46_115)" stroke-width="3.141" stroke-miterlimit="10"/>
<path d="M489.549 269.526C489.303 266.816 489.056 264.105 488.81 261.395" stroke="url(#paint19_linear_46_115)" stroke-width="3.141" stroke-miterlimit="10"/>
<path d="M477.331 269.9L476.59 261.4" stroke="url(#paint20_linear_46_115)" stroke-width="3.141" stroke-miterlimit="10"/>
<path d="M464.452 270.634L464.086 262.873" stroke="url(#paint21_linear_46_115)" stroke-width="3.141" stroke-miterlimit="10"/>
<path d="M451.529 272.108L450.782 263.978" stroke="url(#paint22_linear_46_115)" stroke-width="3.141" stroke-miterlimit="10"/>
<path d="M438.889 273.224C438.643 270.757 438.397 268.293 438.15 265.832" stroke="url(#paint23_linear_46_115)" stroke-width="3.141" stroke-miterlimit="10"/>
<path d="M427.284 273.968L426.993 266.204" stroke="url(#paint24_linear_46_115)" stroke-width="3.141" stroke-miterlimit="10"/>
<path d="M281.095 909.863C329.193 915.124 377.802 906.751 421.368 885.7" stroke="#171717" stroke-width="3.141" stroke-linecap="round" stroke-linejoin="round"/>
<path d="M529.045 884.241C562.783 891.82 597.904 890.598 631.033 880.69" stroke="#171717" stroke-width="3.141" stroke-linecap="round" stroke-linejoin="round"/>
<path d="M343.264 874.629C351.38 879.751 360.05 883.941 369.107 887.117" stroke="#171717" stroke-width="3.141" stroke-linecap="round" stroke-linejoin="round"/>
<path d="M326.938 884.116C330.873 888.726 336.222 891.905 342.152 893.156" stroke="#171717" stroke-width="3.141" stroke-linecap="round" stroke-linejoin="round"/>
<path d="M572.366 875.346C578.807 870.26 585.906 866.07 593.471 862.889" stroke="#171717" stroke-width="3.141" stroke-linecap="round" stroke-linejoin="round"/>
<path d="M561.475 864.444L576.749 855.57" stroke="#171717" stroke-width="3.141" stroke-linecap="round" stroke-linejoin="round"/>
<path d="M456.867 733.6L560.79 678.8" stroke="#171717" stroke-width="3.141" stroke-linecap="round" stroke-linejoin="round"/>
<path d="M464.7 780.332L552.37 731.467" stroke="#171717" stroke-width="3.141" stroke-linecap="round" stroke-linejoin="round"/>
<path d="M471.187 817.367C495.881 807.268 520.057 796.012 543.717 783.598" stroke="#171717" stroke-width="3.141" stroke-linecap="round" stroke-linejoin="round"/>
<path d="M476.59 854.82L536.79 825.92" stroke="#171717" stroke-width="3.141" stroke-linecap="round" stroke-linejoin="round"/>
<path d="M482.509 889.813L529.98 867.5" stroke="#171717" stroke-width="3.141" stroke-linecap="round" stroke-linejoin="round"/>
<path d="M290.872 657.281L290.502 667.26" stroke="#171717" stroke-width="3.141" stroke-linecap="round" stroke-linejoin="round"/>
<path d="M316.004 653.093L315.635 663.072" stroke="#171717" stroke-width="3.141" stroke-linecap="round" stroke-linejoin="round"/>
<path d="M341.136 649.951L340.766 659.93" stroke="#171717" stroke-width="3.141" stroke-linecap="round" stroke-linejoin="round"/>
<path d="M290.872 690.79L290.502 700.769" stroke="#171717" stroke-width="3.141" stroke-linecap="round" stroke-linejoin="round"/>
<path d="M316.004 686.602L315.635 696.58" stroke="#171717" stroke-width="3.141" stroke-linecap="round" stroke-linejoin="round"/>
<path d="M341.136 683.46L340.766 693.439" stroke="#171717" stroke-width="3.141" stroke-linecap="round" stroke-linejoin="round"/>
<path d="M290.872 728.488L290.502 738.466" stroke="#171717" stroke-width="3.141" stroke-linecap="round" stroke-linejoin="round"/>
<path d="M316.004 724.299L315.635 734.278" stroke="#171717" stroke-width="3.141" stroke-linecap="round" stroke-linejoin="round"/>
<path d="M341.136 721.158L340.766 731.136" stroke="#171717" stroke-width="3.141" stroke-linecap="round" stroke-linejoin="round"/>
<path d="M207.1 759.902L206.73 769.881" stroke="#171717" stroke-width="3.141" stroke-linecap="round" stroke-linejoin="round"/>
<path d="M232.231 755.714L231.862 765.692" stroke="#171717" stroke-width="3.141" stroke-linecap="round" stroke-linejoin="round"/>
<path d="M257.363 752.572L256.993 762.551" stroke="#171717" stroke-width="3.141" stroke-linecap="round" stroke-linejoin="round"/>
<path d="M209.194 790.27L208.824 800.247" stroke="#171717" stroke-width="3.141" stroke-linecap="round" stroke-linejoin="round"/>
<path d="M234.325 786.081L233.956 796.06" stroke="#171717" stroke-width="3.141" stroke-linecap="round" stroke-linejoin="round"/>
<path d="M259.457 782.939L259.087 792.918" stroke="#171717" stroke-width="3.141" stroke-linecap="round" stroke-linejoin="round"/>
<path d="M619.657 699.812L620.174 709.784" stroke="#171717" stroke-width="3.141" stroke-linecap="round" stroke-linejoin="round"/>
<path d="M643.272 697.602L643.789 707.574" stroke="#171717" stroke-width="3.141" stroke-linecap="round" stroke-linejoin="round"/>
<path d="M666.979 694.34L667.495 704.313" stroke="#171717" stroke-width="3.141" stroke-linecap="round" stroke-linejoin="round"/>
<path d="M594.526 702.954L595.042 712.926" stroke="#171717" stroke-width="3.141" stroke-linecap="round" stroke-linejoin="round"/>
<path d="M619.657 731.227L620.174 741.199" stroke="#171717" stroke-width="3.141" stroke-linecap="round" stroke-linejoin="round"/>
<path d="M643.272 729.017L643.789 738.989" stroke="#171717" stroke-width="3.141" stroke-linecap="round" stroke-linejoin="round"/>
<path d="M666.979 725.755L667.495 735.727" stroke="#171717" stroke-width="3.141" stroke-linecap="round" stroke-linejoin="round"/>
<path d="M594.526 734.369L595.042 744.341" stroke="#171717" stroke-width="3.141" stroke-linecap="round" stroke-linejoin="round"/>
<path d="M619.657 762.642L620.174 772.614" stroke="#171717" stroke-width="3.141" stroke-linecap="round" stroke-linejoin="round"/>
<path d="M643.272 760.431L643.789 770.403" stroke="#171717" stroke-width="3.141" stroke-linecap="round" stroke-linejoin="round"/>
<path d="M666.979 757.169L667.495 767.142" stroke="#171717" stroke-width="3.141" stroke-linecap="round" stroke-linejoin="round"/>
<path d="M594.526 765.783L595.042 775.755" stroke="#171717" stroke-width="3.141" stroke-linecap="round" stroke-linejoin="round"/>
<path d="M619.657 795.103L620.174 805.075" stroke="#171717" stroke-width="3.141" stroke-linecap="round" stroke-linejoin="round"/>
<path d="M643.272 792.893L643.789 802.865" stroke="#171717" stroke-width="3.141" stroke-linecap="round" stroke-linejoin="round"/>
<path d="M666.979 789.631L667.495 799.603" stroke="#171717" stroke-width="3.141" stroke-linecap="round" stroke-linejoin="round"/>
<path d="M594.526 798.245L595.042 808.217" stroke="#171717" stroke-width="3.141" stroke-linecap="round" stroke-linejoin="round"/>
<g opacity="0.1">
<path d="M465.464 108.918C460.092 107.388 452.677 112.788 448.609 115.903C443.26 119.958 438.384 124.6 434.071 129.742C424.68 141.019 420.546 156.372 419.107 170.683C418.569 176.031 424.059 180.621 429.044 180.621C434.773 180.621 438.559 176.056 438.982 170.683C439.877 159.326 444.188 149.083 449.036 138.942C451.349 133.949 454.22 129.235 457.596 124.889C459.419 122.589 461.396 120.389 463.159 118.054C464.626 116.113 466.705 114.195 467.068 111.744C467.213 111.158 467.128 110.538 466.831 110.013C466.533 109.487 466.045 109.095 465.468 108.918H465.464Z" fill="#171717"/>
</g>
<g opacity="0.1">
<path d="M470.753 175.481C468.453 170.311 458.996 173.241 455.315 175.057C448.288 178.557 442.766 184.482 439.769 191.738C432.185 209.138 440.231 227.838 435.669 245.564C432.483 257.933 451.959 263.215 454.744 250.823C458.544 233.893 453.007 217.642 453.383 200.68C453.533 193.926 455.253 186.66 460.902 182.294C463.524 180.267 467.052 179.994 469.533 178.111C470.333 177.501 471.233 176.543 470.757 175.481H470.753Z" fill="#171717"/>
</g>
<g opacity="0.1">
<path d="M400.451 364.506C398.795 382.912 400.014 401.56 400.583 420.006C401.153 438.503 401.808 456.997 402.546 475.488C404.023 512.468 405.84 549.433 407.996 586.382C409.226 607.494 410.567 628.599 412.017 649.697C412.426 655.658 416.809 660.759 423.08 660.759C428.722 660.759 434.59 655.687 434.142 649.697C428.58 575.198 424.374 500.616 421.522 425.95C420.714 404.687 420.809 383.25 417.854 362.15C417.254 357.85 411.993 355.224 408.133 355.804C403.542 356.495 400.857 359.993 400.451 364.504V364.506Z" fill="#171717"/>
</g>
<g opacity="0.1">
<path d="M428.965 660.585C428.287 663.033 428.475 665.57 428.436 668.085C428.305 670.721 428.486 673.363 428.976 675.956C430.06 680.875 435.364 683.843 440.085 683.209C444.845 682.569 449.095 678.32 448.865 673.265C448.66 670.635 448.146 668.038 447.333 665.528C446.65 663.137 446.178 660.672 444.901 658.505C441.096 652.05 430.972 653.343 428.965 660.588V660.585Z" fill="#171717"/>
</g>
<g opacity="0.1">
<path d="M446.434 678.746C444.223 687.652 446.793 697.571 448.557 706.346C450.362 715.321 452.14 724.3 453.957 733.273C457.652 751.529 461.14 769.826 464.422 788.163C470.873 824.21 476.52 860.389 481.363 896.7C482.206 903.056 486.47 908.2 493.524 907.243C500.5 906.3 503.317 900.243 502.449 893.843C497.437 856.939 491.607 820.16 484.959 783.504C481.687 765.504 478.215 747.542 474.544 729.616C472.708 720.654 470.766 711.719 468.717 702.809C466.577 693.49 464.599 683.155 458.417 675.574C454.968 671.341 447.643 673.854 446.43 678.738L446.434 678.746Z" fill="#171717"/>
</g>
<g opacity="0.1">
<path d="M361.324 499.907C358.455 511.407 359.057 524.001 358.63 535.794C358.21 547.409 357.913 559.027 357.596 570.646C356.954 594.212 356.316 617.779 355.683 641.346C354.416 688.48 353.165 735.613 351.931 782.746C351.28 809.301 350.656 835.856 349.854 862.407C349.423 876.629 371.795 876.669 371.979 862.407C373.195 768.139 375.179 673.875 376.679 579.607C376.89 566.331 377.171 553.054 377.263 539.776C377.354 526.687 378.68 512.792 376.057 499.906C374.536 492.43 363.09 492.819 361.322 499.906L361.324 499.907Z" fill="#171717"/>
</g>
<g opacity="0.1">
<path d="M316.299 779.305C314.057 777.683 312.508 778.962 310.144 779.44C306.162 780.24 303.792 780.775 300.52 783.424C294.861 788.006 289.503 792.692 286.373 799.43C284.086 804.351 285.356 810.077 290.725 812.339C291.912 812.839 293.191 813.08 294.479 813.048C295.766 813.016 297.032 812.711 298.193 812.154C299.354 811.596 300.383 810.798 301.213 809.813C302.042 808.828 302.653 807.678 303.006 806.439C303.86 803.229 304.976 800.095 306.342 797.066C307.773 793.977 309.936 792.366 311.918 789.712C312.765 788.576 313.145 787.248 313.996 786.149C314.803 785.107 316.196 784.638 316.847 783.449C317.276 782.809 317.457 782.035 317.356 781.27C317.256 780.506 316.879 779.805 316.299 779.298V779.305Z" fill="#171717"/>
</g>
<g opacity="0.1">
<path d="M256.584 798.758C249.912 800.505 243.912 804.919 239.371 810.145C237.088 812.779 235.124 815.674 233.52 818.768C232.541 820.68 231.682 822.651 230.946 824.668C230.462 825.978 230.264 828.053 229.533 829.206C225.487 835.583 230.777 844.018 238.033 844.018C245.715 844.018 250.007 835.718 246.533 829.206L245.946 828.106L247.188 832.699C246.379 820.866 251.447 811.55 259.002 802.908C259.376 802.516 259.613 802.013 259.677 801.475C259.741 800.936 259.628 800.392 259.355 799.923C259.082 799.454 258.665 799.087 258.165 798.877C257.665 798.666 257.11 798.624 256.585 798.756L256.584 798.758Z" fill="#171717"/>
</g>
<g opacity="0.1">
<path d="M218.453 825.508C209.388 824.001 201.748 831.708 197.322 838.767C191.84 847.511 188.9 859.311 193.19 869.043C194.843 872.794 200.149 874.385 203.83 873.373C208.021 872.221 210.44 868.454 210.747 864.288C210.987 861.029 210.14 857.707 210.268 854.388C210.359 851.172 210.929 847.988 211.961 844.941C213.981 839.063 218.223 834.27 220.061 828.341C220.22 827.754 220.141 827.128 219.842 826.599C219.542 826.07 219.046 825.681 218.461 825.515L218.453 825.508Z" fill="#171717"/>
</g>
<g opacity="0.1">
<path d="M732.946 807.328C718.892 809.455 708.952 821.842 704.746 834.84C701.33 845.405 719.165 849.057 720.446 836.965C720.575 835.741 720.479 834.213 720.625 833.226C720.871 832.052 721.233 830.906 721.705 829.804C722.621 827.402 723.795 825.105 725.205 822.956C727.988 818.458 731.142 814.2 734.632 810.226C734.891 809.951 735.054 809.6 735.097 809.226C735.14 808.851 735.061 808.472 734.871 808.146C734.681 807.82 734.391 807.564 734.044 807.416C733.697 807.268 733.311 807.237 732.944 807.326L732.946 807.328Z" fill="#171717"/>
</g>
<g opacity="0.1">
<path d="M691.447 832.084C687.519 832.984 683.921 832.818 680.27 834.93C676.572 837.26 673.264 840.159 670.47 843.52C664.641 850.228 660.621 858.313 658.79 867.008C657.72 871.952 660.266 877.147 665.338 878.54C669.738 879.75 676.144 877.04 676.87 871.992C677.799 865.396 679.816 859 682.838 853.063C684.379 850.178 686.094 847.39 687.973 844.713C689.973 841.76 691.094 837.913 693.273 835.213C693.552 834.916 693.727 834.537 693.773 834.132C693.82 833.728 693.734 833.319 693.529 832.967C693.324 832.615 693.011 832.338 692.636 832.178C692.261 832.018 691.845 831.984 691.449 832.079L691.447 832.084Z" fill="#171717"/>
</g>
</g>
</g>
<defs>
<linearGradient id="paint0_linear_46_115" x1="717.605" y1="349.289" x2="717.605" y2="362.749" gradientUnits="userSpaceOnUse">
<stop stop-color="#FFB800"/>
<stop offset="1" stop-color="#FF7F0A"/>
</linearGradient>
<linearGradient id="paint1_linear_46_115" x1="649.519" y1="352.556" x2="649.519" y2="370.058" gradientUnits="userSpaceOnUse">
<stop stop-color="#FFB800"/>
<stop offset="1" stop-color="#FF7F0A"/>
</linearGradient>
<linearGradient id="paint2_linear_46_115" x1="613.224" y1="344.179" x2="613.224" y2="386.997" gradientUnits="userSpaceOnUse">
<stop stop-color="#FFB800"/>
<stop offset="1" stop-color="#FF7F0A"/>
</linearGradient>
<linearGradient id="paint3_linear_46_115" x1="590.783" y1="601.767" x2="590.783" y2="635.203" gradientUnits="userSpaceOnUse">
<stop stop-color="#FFB800"/>
<stop offset="1" stop-color="#FF7F0A"/>
</linearGradient>
<linearGradient id="paint4_linear_46_115" x1="502.677" y1="330.515" x2="502.677" y2="660.924" gradientUnits="userSpaceOnUse">
<stop stop-color="#FFB800"/>
<stop offset="1" stop-color="#FF7F0A"/>
</linearGradient>
<linearGradient id="paint5_linear_46_115" x1="576.479" y1="392.955" x2="576.479" y2="468.737" gradientUnits="userSpaceOnUse">
<stop stop-color="#FFB800"/>
<stop offset="1" stop-color="#FF7F0A"/>
</linearGradient>
<linearGradient id="paint6_linear_46_115" x1="507.969" y1="634.061" x2="507.969" y2="681.12" gradientUnits="userSpaceOnUse">
<stop stop-color="#FFB800"/>
<stop offset="1" stop-color="#FF7F0A"/>
</linearGradient>
<linearGradient id="paint7_linear_46_115" x1="581.104" y1="847.168" x2="581.104" y2="900.142" gradientUnits="userSpaceOnUse">
<stop stop-color="#FFB800"/>
<stop offset="1" stop-color="#FF7F0A"/>
</linearGradient>
<linearGradient id="paint8_linear_46_115" x1="479.318" y1="155.955" x2="479.318" y2="182.57" gradientUnits="userSpaceOnUse">
<stop stop-color="#FFB800"/>
<stop offset="1" stop-color="#FF7F0A"/>
</linearGradient>
<linearGradient id="paint9_linear_46_115" x1="456.931" y1="334.943" x2="456.931" y2="353.802" gradientUnits="userSpaceOnUse">
<stop stop-color="#FFB800"/>
<stop offset="1" stop-color="#FF7F0A"/>
</linearGradient>
<linearGradient id="paint10_linear_46_115" x1="432.81" y1="526.383" x2="432.81" y2="608.458" gradientUnits="userSpaceOnUse">
<stop stop-color="#FFB800"/>
<stop offset="1" stop-color="#FF7F0A"/>
</linearGradient>
<linearGradient id="paint11_linear_46_115" x1="467.701" y1="109.835" x2="467.701" y2="159.712" gradientUnits="userSpaceOnUse">
<stop stop-color="#FFB800"/>
<stop offset="1" stop-color="#FF7F0A"/>
</linearGradient>
<linearGradient id="paint12_linear_46_115" x1="351.342" y1="867.374" x2="351.342" y2="920.028" gradientUnits="userSpaceOnUse">
<stop stop-color="#FFB800"/>
<stop offset="1" stop-color="#FF7F0A"/>
</linearGradient>
<linearGradient id="paint13_linear_46_115" x1="459.048" y1="124.707" x2="459.048" y2="178.635" gradientUnits="userSpaceOnUse">
<stop stop-color="#FFB800"/>
<stop offset="1" stop-color="#FF7F0A"/>
</linearGradient>
<linearGradient id="paint14_linear_46_115" x1="393.85" y1="379.74" x2="393.85" y2="427.835" gradientUnits="userSpaceOnUse">
<stop stop-color="#FFB800"/>
<stop offset="1" stop-color="#FF7F0A"/>
</linearGradient>
<linearGradient id="paint15_linear_46_115" x1="369.572" y1="400.383" x2="369.572" y2="424.305" gradientUnits="userSpaceOnUse">
<stop stop-color="#FFB800"/>
<stop offset="1" stop-color="#FF7F0A"/>
</linearGradient>
<linearGradient id="paint16_linear_46_115" x1="305.315" y1="420.022" x2="305.315" y2="437.688" gradientUnits="userSpaceOnUse">
<stop stop-color="#FFB800"/>
<stop offset="1" stop-color="#FF7F0A"/>
</linearGradient>
<linearGradient id="paint17_linear_46_115" x1="441.118" y1="319.288" x2="441.118" y2="350.901" gradientUnits="userSpaceOnUse">
<stop stop-color="#FFB800"/>
<stop offset="1" stop-color="#FF7F0A"/>
</linearGradient>
<linearGradient id="paint18_linear_46_115" x1="391.466" y1="436.554" x2="391.466" y2="590.512" gradientUnits="userSpaceOnUse">
<stop stop-color="#FFB800"/>
<stop offset="1" stop-color="#FF7F0A"/>
</linearGradient>
<linearGradient id="paint19_linear_46_115" x1="489.179" y1="261.395" x2="489.179" y2="269.526" gradientUnits="userSpaceOnUse">
<stop stop-color="#FFB800"/>
<stop offset="1" stop-color="#FF7F0A"/>
</linearGradient>
<linearGradient id="paint20_linear_46_115" x1="476.96" y1="261.4" x2="476.96" y2="269.9" gradientUnits="userSpaceOnUse">
<stop stop-color="#FFB800"/>
<stop offset="1" stop-color="#FF7F0A"/>
</linearGradient>
<linearGradient id="paint21_linear_46_115" x1="464.269" y1="262.873" x2="464.269" y2="270.634" gradientUnits="userSpaceOnUse">
<stop stop-color="#FFB800"/>
<stop offset="1" stop-color="#FF7F0A"/>
</linearGradient>
<linearGradient id="paint22_linear_46_115" x1="451.156" y1="263.978" x2="451.156" y2="272.108" gradientUnits="userSpaceOnUse">
<stop stop-color="#FFB800"/>
<stop offset="1" stop-color="#FF7F0A"/>
</linearGradient>
<linearGradient id="paint23_linear_46_115" x1="438.52" y1="265.832" x2="438.52" y2="273.224" gradientUnits="userSpaceOnUse">
<stop stop-color="#FFB800"/>
<stop offset="1" stop-color="#FF7F0A"/>
</linearGradient>
<linearGradient id="paint24_linear_46_115" x1="427.139" y1="266.204" x2="427.139" y2="273.968" gradientUnits="userSpaceOnUse">
<stop stop-color="#FFB800"/>
<stop offset="1" stop-color="#FF7F0A"/>
</linearGradient>
<clipPath id="clip0_46_115">
<rect width="960" height="960" fill="white"/>
</clipPath>
<clipPath id="clip1_46_115">
<rect width="707" height="884" fill="white" transform="translate(127 38)"/>
</clipPath>
</defs>
</svg>
