<svg width="960" height="960" viewBox="0 0 960 960" fill="none" xmlns="http://www.w3.org/2000/svg">
<g clip-path="url(#clip0_248_1696)">
<path fill-rule="evenodd" clip-rule="evenodd" d="M272.668 587.304C269.157 587.223 265.613 587.062 262.091 586.774C252.032 585.98 242.065 584.162 232.882 580.068C224.229 576.331 216.788 570.257 211.394 562.528C209.034 559.051 207.282 555.198 206.215 551.134C205.147 546.924 204.967 542.538 205.686 538.255L205.824 538.278L280.483 438.529L279.919 438.115C279.724 433.504 279.528 428.804 280.598 424.304C281.623 419.954 283.992 415.741 287.792 413.416C287.774 413.404 287.76 413.39 287.745 413.376C287.731 413.362 287.716 413.347 287.699 413.336C286.618 412.265 286.399 410.631 286.226 409.124C285.769 404.964 285.316 400.813 284.868 396.671C284.704 396.338 284.64 395.965 284.686 395.598C284.731 395.23 284.883 394.883 285.122 394.601C285.362 394.318 285.679 394.112 286.035 394.007C286.391 393.902 286.769 393.904 287.124 394.012C295.748 394.361 304.376 394.714 313.008 395.071L328.568 374.286L327.141 373.215C321.776 372.978 316.28 372.747 310.718 372.514C308.715 372.43 306.704 372.345 304.687 372.26C300.524 372.086 296.337 371.913 292.15 371.74C280.498 371.257 268.846 370.774 257.73 370.292C257.554 370.286 257.382 370.277 257.211 370.269C257.034 370.26 256.858 370.251 256.683 370.246C253.08 370.096 249.124 370.05 246.324 372.329C243.286 374.815 242.698 379.234 242.998 383.148C243.079 384.205 243.209 385.266 243.338 386.328C243.61 388.559 243.883 390.792 243.712 392.999L243.125 392.965C204.132 416.236 164.738 441.199 137.449 477.487C110.16 513.775 97.0846 564.128 115.949 605.422C120.632 615.541 126.928 624.831 134.593 632.929C138.894 637.496 143.541 641.725 148.493 645.577C158.314 653.188 169.11 659.451 180.593 664.199C186.691 666.728 192.932 668.899 199.284 670.699C221.519 677.04 244.975 679.181 268.166 679.434C272.198 679.48 276.237 679.469 280.266 679.388C305.079 678.982 329.814 676.491 354.211 671.942H354.223C361.205 670.652 368.148 669.191 375.054 667.557C389.095 664.242 402.987 660.248 416.637 655.576C424.612 652.86 433.164 649.349 437.18 641.96C439.77 637.207 439.988 631.786 439.344 626.331C438.931 623.235 438.364 620.163 437.644 617.124C434.628 603.662 431.613 590.204 428.597 576.75C428.137 574.55 427.538 572.382 426.802 570.259C425.548 566.91 423.718 563.906 420.633 562.226C415.5 559.426 409.205 561.512 403.726 563.526C386.87 569.785 369.624 574.936 352.097 578.948C343.833 580.832 335.524 582.412 327.168 583.69C309.143 586.498 290.905 587.707 272.668 587.304ZM197.428 529.778C197.807 528.903 197.406 527.887 196.531 527.507C195.656 527.127 194.639 527.529 194.26 528.404C186.391 546.537 191.788 569.469 206.92 582.188C218.684 592.078 234.408 595.381 249.167 597.181L249.168 597.181C289.237 602.032 329.878 598.41 368.458 586.55C369.369 586.27 369.881 585.304 369.601 584.393C369.321 583.481 368.355 582.969 367.443 583.25C329.326 594.967 289.172 598.545 249.583 593.753C234.904 591.963 220.077 588.738 209.142 579.545C195.179 567.809 190.166 546.511 197.428 529.778Z" fill="url(#paint0_linear_248_1696)"/>
<path d="M816.299 305.884L829.961 325.334L768.051 415.6L747.251 445.927L746.433 446.536C743.992 443.009 740.917 439.965 737.364 437.559C735.55 436.332 733.655 435.229 731.69 434.259L732.89 434.19L815.813 313.241C815.813 313.241 817.899 309.533 816.299 305.884Z" fill="#171717"/>
<path d="M764.799 478.255C768.551 490.962 769.311 505.693 761.669 516.512C754.602 526.536 741.632 531.036 729.363 530.944C717.094 530.852 705.24 526.858 693.627 522.899L693.57 522.853L709.751 499.329L710.488 498.569C712.755 500.744 714.896 503.104 717.025 505.359C722.768 511.459 729.869 517.547 738.248 517.329C746.419 517.099 746.348 510.746 750.348 503.61C753.87 497.349 759.291 489.396 763.248 480.995C763.677 480.084 764.053 479.149 764.376 478.195L764.799 478.255Z" fill="url(#paint1_linear_248_1696)"/>
<path d="M706.674 416.049L710.023 423.346L700.367 437.283L656.104 501.182V488.107L706.674 416.049Z" fill="#171717"/>
<path d="M656.104 501.182L599.007 583.621L598.271 583.115V570.524V570.512L656.104 488.107V501.182Z" fill="#171717"/>
<path d="M693.566 522.853L477.379 837.166L91.3536 714.859L91.0996 693.866C91.3866 696.134 92.9516 698.435 96.8306 700.366C109.825 706.866 469.46 816.274 469.46 816.274L693.623 490.7L693.723 489.8C694.92 489.933 696.108 490.14 697.279 490.422C702.401 491.688 706.625 494.864 710.479 498.57L709.742 499.33L693.566 522.853Z" fill="#171717"/>
<path d="M599.007 583.621L545.052 661.514L544.27 660.973V647.473L598.271 570.524V583.115L599.007 583.621Z" fill="#171717"/>
<path d="M545.053 661.514L495.368 733.227V717.149V717.138L544.27 647.473V660.973L545.053 661.514Z" fill="#171717"/>
<path d="M495.367 717.138V717.149L449.078 783.108L389.23 764.095V764.083L434.68 697.71L495.367 717.138Z" fill="url(#paint2_linear_248_1696)"/>
<path d="M370.759 236.093C370.391 241.756 364.786 245.508 359.559 247.717C352.053 250.781 344.173 252.836 336.127 253.829C317.896 256.315 298.734 254.945 280.239 256.614C273.368 257.224 266.071 258.49 261.076 263.243C254.055 269.907 253.976 280.863 254.376 290.531C254.767 299.761 255.155 308.992 255.538 318.222C253.538 321.295 250.808 324.034 247.332 325.208C243.672 326.439 239.138 325.542 236.893 322.388C236.01 321.055 235.625 319.453 235.806 317.864C235.987 316.274 236.722 314.8 237.883 313.699C238.436 313.411 238.977 313.099 239.506 312.778C238.911 312.979 238.36 313.291 237.883 313.699C235.014 315.232 231.935 316.333 228.745 316.967C227.928 312.836 229.769 308.635 232.083 305.113C234.397 301.591 237.273 298.392 238.908 294.502C243.983 282.486 235.938 268.411 239.276 255.802C241.934 245.766 251.487 238.791 261.488 236.029C271.489 233.267 282.078 233.957 292.448 234.314C297.661 234.487 303.496 234.349 307.202 230.677C309.976 227.927 310.851 223.877 312.243 220.227C313.635 216.577 316.26 212.792 320.15 212.436C324.45 212.044 328.022 216.395 328.414 220.699C328.806 225.003 326.975 229.181 325.168 233.117C327.466 229.523 330.578 226.521 334.254 224.355C337.93 222.189 342.064 220.921 346.322 220.653C346.999 224.526 346.68 228.507 345.393 232.222C344.106 235.937 341.895 239.263 338.967 241.887C343.537 238.691 348.744 236.519 354.23 235.519C359.717 234.519 365.355 234.715 370.759 236.093Z" fill="#171717"/>
<path d="M323.215 743.114L389.231 764.095L449.079 783.108L495.368 717.149V733.227L453.981 792.982L127.699 689.815L122.831 679.457L179.582 697.492L251.353 720.291L323.215 743.114Z" fill="#171717"/>
<path d="M287.791 413.413C287.756 413.39 287.733 413.356 287.698 413.333C286.617 412.262 286.398 410.628 286.225 409.121C285.777 404.967 285.324 400.816 284.867 396.668C284.703 396.336 284.64 395.963 284.685 395.595C284.73 395.227 284.882 394.881 285.122 394.598C285.362 394.315 285.679 394.109 286.035 394.004C286.39 393.9 286.769 393.902 287.123 394.009C295.755 394.366 304.383 394.719 313.007 395.068L297.965 415.168L297.47 414.799C297.159 415.064 296.837 415.34 296.514 415.605C294.005 413.862 290.023 415.451 287.791 413.413Z" fill="#171717"/>
<path d="M297.965 415.163L280.482 438.526L279.918 438.112C279.723 433.497 279.527 428.801 280.597 424.301C281.622 419.951 283.997 415.738 287.791 413.413C290.023 415.451 294.005 413.862 296.514 415.6C296.837 415.335 297.159 415.059 297.47 414.794L297.965 415.163Z" fill="#171717"/>
<path d="M294.742 316.484C297.712 316.162 300.681 315.832 303.65 315.494C301.784 300.279 299.912 285.064 298.034 269.849C297.834 268.215 297.677 266.42 298.586 265.062C299.645 263.496 301.728 263.082 303.604 262.862C310.142 262.134 316.751 262.382 323.215 263.599" stroke="#171717" stroke-width="3.453" stroke-linecap="round" stroke-linejoin="round"/>
<path d="M309.842 279.609C312.278 278.4 315.009 277.913 317.712 278.205C320.416 278.496 322.98 279.555 325.103 281.255" stroke="#171717" stroke-width="3.453" stroke-linecap="round" stroke-linejoin="round"/>
<path d="M285.431 278.124C282.996 276.446 280.071 275.628 277.119 275.799C274.167 275.97 271.356 277.12 269.131 279.068" stroke="#171717" stroke-width="3.453" stroke-linecap="round" stroke-linejoin="round"/>
<path d="M283.417 336.429C281.822 336.898 280.14 336.987 278.505 336.689C276.87 336.391 275.328 335.714 274.001 334.713C272.674 333.712 271.6 332.414 270.865 330.924C270.13 329.433 269.754 327.791 269.767 326.129" stroke="#171717" stroke-width="3.453" stroke-linecap="round" stroke-linejoin="round"/>
<path d="M237.886 313.7C236.726 314.801 235.99 316.275 235.809 317.864C235.628 319.454 236.013 321.056 236.896 322.389C239.141 325.543 243.675 326.44 247.335 325.209C250.811 324.035 253.535 321.296 255.541 318.223C255.656 318.05 255.76 317.889 255.863 317.716" stroke="#171717" stroke-width="3.453" stroke-linecap="round" stroke-linejoin="round"/>
<path d="M237.887 313.7C238.44 313.412 238.981 313.1 239.51 312.779C238.915 312.98 238.364 313.292 237.887 313.7V313.7Z" stroke="#171717" stroke-width="3.453" stroke-linecap="round" stroke-linejoin="round"/>
<path d="M257.74 370.554C257.74 370.462 257.729 370.381 257.729 370.289C256.991 352.933 256.262 335.577 255.542 318.222C255.151 308.992 254.764 299.762 254.38 290.531C253.98 280.863 254.057 269.907 261.08 263.243C266.08 258.49 273.372 257.224 280.243 256.614C298.743 254.945 317.9 256.314 336.131 253.829C344.177 252.836 352.056 250.781 359.563 247.717C364.788 245.508 370.393 241.756 370.763 236.093C365.359 234.714 359.723 234.518 354.237 235.517C348.751 236.516 343.545 238.687 338.975 241.882C341.902 239.258 344.114 235.932 345.401 232.217C346.687 228.502 347.007 224.521 346.33 220.648C342.072 220.916 337.937 222.184 334.262 224.35C330.586 226.515 327.473 229.517 325.176 233.112C326.983 229.176 328.824 225.012 328.422 220.694C328.02 216.376 324.462 212.039 320.158 212.431C316.268 212.787 313.658 216.574 312.251 220.222C310.844 223.87 309.984 227.922 307.21 230.672C303.504 234.344 297.669 234.482 292.456 234.309C282.086 233.952 271.509 233.273 261.496 236.024C251.483 238.775 241.942 245.761 239.284 255.797C235.946 268.411 243.991 282.486 238.916 294.497C237.281 298.387 234.416 301.597 232.091 305.108C229.766 308.619 227.936 312.831 228.753 316.962C231.943 316.328 235.022 315.227 237.891 313.694" stroke="#171717" stroke-width="3.453" stroke-linecap="round" stroke-linejoin="round"/>
<path d="M304.7 371.843C305.9 367.837 305.4 363.543 305.333 359.355C305.266 355.167 305.794 350.655 308.556 347.512C310.674 345.112 313.793 343.864 316.856 342.955C322.933 341.148 329.93 339.916 333.533 334.691C336.111 330.939 336.214 326.071 336.214 321.525C336.226 299.221 336.238 276.924 336.249 254.634" stroke="#171717" stroke-width="3.453" stroke-linecap="round" stroke-linejoin="round"/>
<path d="M327.14 373.212C319.84 372.89 312.305 372.579 304.686 372.257C288.941 371.601 272.84 370.945 257.729 370.289C257.372 370.277 257.029 370.254 256.682 370.243C253.082 370.093 249.12 370.043 246.323 372.326C243.285 374.812 242.698 379.226 242.997 383.145C243.25 386.425 243.964 389.739 243.711 392.996C243.663 393.623 243.574 394.246 243.446 394.861" stroke="#171717" stroke-width="3.453" stroke-linecap="round" stroke-linejoin="round"/>
<path d="M354.22 671.942C361.194 670.654 368.138 669.192 375.051 667.557C389.092 664.242 402.984 660.248 416.634 655.576C424.609 652.86 433.161 649.349 437.177 641.96C439.767 637.207 439.985 631.786 439.341 626.331C438.929 623.236 438.361 620.163 437.641 617.124C434.625 603.67 431.61 590.212 428.594 576.75C428.135 574.551 427.535 572.382 426.799 570.259C425.545 566.91 423.715 563.906 420.63 562.226C415.497 559.426 409.202 561.512 403.723 563.526C386.868 569.785 369.621 574.937 352.094 578.948C343.842 580.824 335.533 582.405 327.165 583.69C309.142 586.498 290.906 587.707 272.67 587.304C269.159 587.223 265.615 587.062 262.093 586.774C252.034 585.98 242.067 584.162 232.883 580.065C224.231 576.328 216.79 570.254 211.395 562.525C209.035 559.048 207.284 555.195 206.216 551.131C205.149 546.921 204.969 542.536 205.687 538.252C207.16 529.033 212.535 520.505 220.994 516.719" stroke="#171717" stroke-width="3.453" stroke-linecap="round" stroke-linejoin="round"/>
<path d="M243.123 392.962C204.13 416.233 164.746 441.208 137.447 477.484C110.148 513.76 97.0843 564.125 115.947 605.419C120.63 615.538 126.927 624.828 134.591 632.926C138.893 637.494 143.54 641.722 148.491 645.574C158.315 653.187 169.114 659.452 180.599 664.2C186.698 666.73 192.939 668.9 199.29 670.7C221.525 677.041 244.981 679.182 268.172 679.435C272.2 679.481 276.239 679.47 280.272 679.389C305.086 678.983 329.821 676.492 354.217 671.943" stroke="#171717" stroke-width="3.453" stroke-linecap="round" stroke-linejoin="round"/>
<path d="M492.261 585.267C498.964 583.302 506.031 582.916 512.908 584.139C514.742 584.473 517.945 585.267 519.5 588.5C522.895 595.556 507.717 603.094 494.401 609.539C491.01 611.219 487.498 612.643 483.894 613.798C474.41 616.756 464.524 618.459 454.937 620.991C449.596 622.328 444.377 624.115 439.337 626.331" stroke="#171717" stroke-width="3.453" stroke-linecap="round" stroke-linejoin="round"/>
<path d="M492.261 585.267C489.004 586.774 485.781 588.11 482.72 589.306C485.728 587.585 488.931 586.229 492.261 585.267Z" stroke="#171717" stroke-width="3.453" stroke-linecap="round" stroke-linejoin="round"/>
<path d="M488.578 565.16C501.215 561.972 515.5 556 517.926 566.611C519.158 572 501.733 580.859 492.261 585.267" stroke="#171717" stroke-width="3.453" stroke-linecap="round" stroke-linejoin="round"/>
<path d="M488.578 565.16C483.191 567.175 477.759 569.074 472.378 570.95C477.566 568.472 482.994 566.532 488.578 565.16Z" stroke="#171717" stroke-width="3.453" stroke-linecap="round" stroke-linejoin="round"/>
<path d="M427.6 569.948C431.38 554.746 439.493 540.969 450.952 530.288C452.85 528.506 454.84 526.824 456.913 525.247C459.413 526.225 460.262 528.847 460.136 532.325C459.936 537.619 457.489 544.881 455.152 551.304C454.14 554.089 453.152 556.704 452.367 558.934C464.383 552.581 476.49 546.205 488.897 540.6C501.849 534.575 515.365 529.845 529.248 526.478C533.46 525.512 539.134 525.42 540.722 529.436C542.046 532.82 539.249 536.319 536.545 538.736C532.037 542.719 527.192 546.304 522.066 549.451C511.65 555.907 500.21 560.81 488.575 565.16" stroke="#171717" stroke-width="3.453" stroke-linecap="round" stroke-linejoin="round"/>
<path d="M754.7 461.28C752.371 456.138 749.606 451.206 746.436 446.536C743.994 443.009 740.919 439.965 737.367 437.559C735.553 436.332 733.657 435.229 731.693 434.259C727.677 432.406 725.018 432.648 717.893 432.372C713.865 432.222 709.71 432.084 705.97 433.58C703.9 434.398 702.104 435.785 700.79 437.58C699.706 439.041 699.154 440.827 699.225 442.644C699.444 446.408 702.574 449.444 706.05 450.896C707.985 451.629 710.003 452.124 712.058 452.37C714.199 452.68 716.374 452.888 718.238 453.187C731.462 455.316 733.453 461.287 741.912 471.67" stroke="#171717" stroke-width="3.453" stroke-linecap="round" stroke-linejoin="round"/>
<path d="M715.18 453.108C714.374 452.924 713.304 452.728 712.038 452.567C705.489 451.739 694.003 451.808 691.103 458.679C689.135 463.363 691.483 469.979 695.752 472.72C700.021 475.461 702.808 475.02 707.595 476.72C717.804 480.38 727.61 486.042 734.262 494.62" stroke="#171717" stroke-width="3.453" stroke-linecap="round" stroke-linejoin="round"/>
<path d="M695.752 472.72C692.185 472.478 688.49 472.259 685.152 473.56C681.814 474.861 678.971 478.129 679.386 481.685C679.801 485.241 683.241 487.727 686.694 488.694C689.006 489.24 691.357 489.608 693.726 489.794C694.923 489.926 696.111 490.134 697.282 490.416C702.404 491.682 706.628 494.858 710.482 498.564C712.749 500.739 714.89 503.099 717.019 505.354C722.762 511.454 729.863 517.542 738.242 517.324C746.413 517.094 746.342 510.741 750.342 503.605C753.864 497.344 759.285 489.391 763.242 480.99C763.671 480.079 764.047 479.144 764.37 478.19C767.155 469.834 763.23 465.035 767.27 449.475C770.124 438.495 779.458 424.558 768.697 416.041" stroke="#171717" stroke-width="3.453" stroke-linecap="round" stroke-linejoin="round"/>
<path d="M732.891 434.187L815.814 313.238C815.814 313.238 817.897 309.538 816.297 305.884C815.262 303.502 812.649 301.142 806.872 299.853C792.255 296.608 453.98 216.988 453.98 216.988C453.98 216.988 446.131 212.925 439.652 225.114C433.173 237.303 402.293 275.776 402.293 275.776L328.566 374.283L313.006 395.068L297.964 415.168L280.481 438.531L205.822 538.28" stroke="#171717" stroke-width="3.453" stroke-linecap="round" stroke-linejoin="round"/>
<path d="M134.593 632.926L96.8322 683.313C96.8322 683.313 90.4222 688.513 91.1012 693.866C91.3882 696.134 92.9532 698.435 96.8322 700.366C109.826 706.866 469.461 816.274 469.461 816.274L693.623 490.7" stroke="#171717" stroke-width="3.453" stroke-linecap="round" stroke-linejoin="round"/>
<path d="M747.256 445.927L768.052 415.6L829.96 325.334L816.298 305.884L815.171 304.284" stroke="#171717" stroke-width="3.453" stroke-linecap="round" stroke-linejoin="round"/>
<path d="M91.1006 693.866L91.3536 714.859L477.379 837.166L693.566 522.853L709.747 499.329" stroke="#171717" stroke-width="3.453" stroke-linecap="round" stroke-linejoin="round"/>
<path d="M445.626 254.634L400.671 313.238L734.262 392.962L771.942 331.492L445.626 254.634Z" stroke="#171717" stroke-width="3.453" stroke-linecap="round" stroke-linejoin="round"/>
<path d="M501.479 366.997L570.844 383.57L638.656 399.787L706.674 416.049" stroke="#171717" stroke-width="3.453" stroke-linecap="round" stroke-linejoin="round"/>
<path d="M211.393 562.525L219.852 551.35L273.358 480.695L334.632 399.787L381.244 338.248L439.653 352.208L501.479 366.986" stroke="#171717" stroke-width="3.453" stroke-linecap="round" stroke-linejoin="round"/>
<path d="M598.271 570.512L656.104 488.107L706.675 416.049L710.024 423.346L700.368 437.283L656.104 501.182L599.007 583.621L545.053 661.514L495.368 733.227L453.981 792.982L127.699 689.815L122.831 679.457L148.496 645.574" stroke="#171717" stroke-width="3.453" stroke-linecap="round" stroke-linejoin="round"/>
<path d="M495.368 717.138L544.27 647.473L598.271 570.524" stroke="#171717" stroke-width="3.453" stroke-linecap="round" stroke-linejoin="round"/>
<path d="M122.831 679.457L179.582 697.492L251.353 720.291L323.215 743.114L389.231 764.095L449.079 783.108L495.368 717.149" stroke="#171717" stroke-width="3.453" stroke-linecap="round" stroke-linejoin="round"/>
<path d="M513.068 583.207L533.934 552.731L590.524 470.084L638.655 399.787" stroke="#171717" stroke-width="3.453" stroke-linecap="round" stroke-linejoin="round"/>
<path d="M389.23 764.083L434.68 697.71L481.752 628.944L494.665 610.08" stroke="#171717" stroke-width="3.453" stroke-linecap="round" stroke-linejoin="round"/>
<path d="M455.293 551.35L467.079 534.247L523.865 451.773L570.845 383.57" stroke="#171717" stroke-width="3.453" stroke-linecap="round" stroke-linejoin="round"/>
<path d="M323.215 743.114L369.298 676.775L375.213 668.247" stroke="#171717" stroke-width="3.453" stroke-linecap="round" stroke-linejoin="round"/>
<path d="M352.011 578.58L397.012 514.877L454.96 432.841L501.479 366.997V366.986" stroke="#171717" stroke-width="3.453" stroke-linecap="round" stroke-linejoin="round"/>
<path d="M251.353 720.291L280.264 679.457" stroke="#171717" stroke-width="3.453" stroke-linecap="round" stroke-linejoin="round"/>
<path d="M262.079 586.798L262.091 586.774L276.258 568.061L330.443 496.474L391.763 415.485L439.653 352.208" stroke="#171717" stroke-width="3.453" stroke-linecap="round" stroke-linejoin="round"/>
<path d="M179.582 697.492L199.171 671.101" stroke="#171717" stroke-width="3.453" stroke-linecap="round" stroke-linejoin="round"/>
<path d="M334.632 399.787L391.763 415.485L454.96 432.841L523.865 451.773L590.525 470.084L656.104 488.107V501.182" stroke="#171717" stroke-width="3.453" stroke-linecap="round" stroke-linejoin="round"/>
<path d="M522.068 549.451L533.934 552.731L598.27 570.512V570.524V583.115" stroke="#171717" stroke-width="3.453" stroke-linecap="round" stroke-linejoin="round"/>
<path d="M460.127 532.325H460.139L467.079 534.247L488.727 540.232" stroke="#171717" stroke-width="3.453" stroke-linecap="round" stroke-linejoin="round"/>
<path d="M273.357 480.695L330.442 496.474L397.011 514.877L450.332 529.62" stroke="#171717" stroke-width="3.453" stroke-linecap="round" stroke-linejoin="round"/>
<path d="M454.914 620.991H454.937L481.753 628.944L544.27 647.473V660.973" stroke="#171717" stroke-width="3.453" stroke-linecap="round" stroke-linejoin="round"/>
<path d="M219.852 551.35L276.258 568.061L327.071 583.115" stroke="#171717" stroke-width="3.453" stroke-linecap="round" stroke-linejoin="round"/>
<path d="M354.209 671.942H354.221L369.298 676.775L434.681 697.71L495.368 717.138V717.149V733.227" stroke="#171717" stroke-width="3.453" stroke-linecap="round" stroke-linejoin="round"/>
<path d="M313.249 395.079C313.168 395.079 313.087 395.068 313.007 395.068C304.375 394.712 295.747 394.359 287.123 394.009C286.769 393.902 286.39 393.9 286.035 394.004C285.679 394.109 285.362 394.315 285.122 394.598C284.882 394.881 284.73 395.227 284.685 395.595C284.64 395.963 284.703 396.336 284.867 396.668C285.316 400.811 285.769 404.962 286.225 409.121C286.398 410.628 286.617 412.262 287.698 413.333C287.733 413.356 287.756 413.39 287.791 413.413C290.023 415.451 294.005 413.862 296.514 415.6C296.837 415.335 297.159 415.059 297.47 414.794" stroke="#171717" stroke-width="3.453" stroke-linecap="round" stroke-linejoin="round"/>
<path d="M288.193 413.172C288.055 413.252 287.917 413.333 287.793 413.413C283.993 415.738 281.624 419.951 280.599 424.301C279.529 428.801 279.725 433.501 279.92 438.112" stroke="#171717" stroke-width="3.453" stroke-linecap="round" stroke-linejoin="round"/>
<path d="M306.032 387.2C305.362 384.782 305.503 382.211 306.432 379.88" stroke="#171717" stroke-width="3.453" stroke-linecap="round" stroke-linejoin="round"/>
<path d="M291 387.2C290.689 384.598 290.964 381.959 291.805 379.477" stroke="#171717" stroke-width="3.453" stroke-linecap="round" stroke-linejoin="round"/>
<path d="M274.325 388C274.683 385.284 275.032 382.568 275.372 379.852" stroke="#171717" stroke-width="3.453" stroke-linecap="round" stroke-linejoin="round"/>
<path d="M259.362 389.636C259.536 386.781 259.705 383.93 259.869 381.084" stroke="#171717" stroke-width="3.453" stroke-linecap="round" stroke-linejoin="round"/>
<path d="M693.623 522.9C705.236 526.859 717.102 530.853 729.359 530.945C741.616 531.037 754.598 526.537 761.665 516.513C769.307 505.694 768.547 490.963 764.795 478.256" stroke="#171717" stroke-width="3.453" stroke-linecap="round" stroke-linejoin="round"/>
<path d="M121.604 380.071C112.45 365.039 106.729 346.7 111.533 329.765C115.973 314.114 128.658 302.115 142.318 293.279C155.978 284.443 171.087 277.939 184.337 268.499C197.587 259.059 209.277 245.736 211.577 229.631C212.333 224.331 211.897 218.498 208.555 214.317C205.213 210.136 198.283 208.628 194.429 212.343C189.714 216.888 193.329 225.903 199.606 227.758C205.883 229.613 212.679 226.048 216.917 221.058C219.927 217.513 222.025 213.286 223.03 208.746C224.035 204.206 223.916 199.488 222.685 195.004C221.453 190.52 219.145 186.404 215.962 183.014C212.778 179.625 208.815 177.063 204.417 175.552" stroke="#171717" stroke-width="3.453" stroke-linecap="round" stroke-linejoin="round"/>
<path d="M282.767 146.418L297.96 161.7L298.239 116.615C309.326 114.047 320.208 110.658 330.793 106.475" stroke="#171717" stroke-width="3.453" stroke-linecap="round" stroke-linejoin="round"/>
<path d="M313.106 151.074C310.006 145.085 313.291 136.719 319.638 134.44C321.568 133.747 324.127 133.769 325.222 135.503C325.761 136.624 325.919 137.89 325.671 139.108L323.685 160.014C329.885 155.64 337.08 152.885 344.615 152" stroke="#171717" stroke-width="3.453" stroke-linecap="round" stroke-linejoin="round"/>
<path d="M380.2 161.927L366.548 149.566" stroke="#171717" stroke-width="3.453" stroke-linecap="round" stroke-linejoin="round"/>
<path d="M367.146 162.445L376.289 145.5" stroke="#171717" stroke-width="3.453" stroke-linecap="round" stroke-linejoin="round"/>
<path d="M469.8 111.3C466.47 107.355 462.949 103.268 458.171 101.311C453.393 99.3544 446.989 100.322 444.439 104.811C441.795 109.464 444.365 115.434 447.976 119.383C451.587 123.332 456.267 126.394 458.95 131.024C461.633 135.654 461.185 142.841 456.272 144.963C453.337 146.231 449.934 145.236 447.024 143.908C443.421 142.264 440.062 140.131 437.041 137.57" stroke="#171717" stroke-width="3.453" stroke-linecap="round" stroke-linejoin="round"/>
<path d="M460.792 92.7002C453.949 112.06 448.469 131.875 444.392 152L446.169 149.562" stroke="#171717" stroke-width="3.453" stroke-linecap="round" stroke-linejoin="round"/>
<path d="M528.523 143.5L513.613 125.992" stroke="#171717" stroke-width="3.453" stroke-linecap="round" stroke-linejoin="round"/>
<path d="M511.136 141.417L528.184 123.533" stroke="#171717" stroke-width="3.453" stroke-linecap="round" stroke-linejoin="round"/>
<path d="M606.225 206.424L592.41 177.992" stroke="#171717" stroke-width="3.453" stroke-linecap="round" stroke-linejoin="round"/>
<path d="M645.219 210.5L665.659 99.2241" stroke="#171717" stroke-width="3.453" stroke-linecap="round" stroke-linejoin="round"/>
<path d="M683.973 222.449L699.486 207.091" stroke="#171717" stroke-width="3.453" stroke-linecap="round" stroke-linejoin="round"/>
<path d="M790.466 235.678C789.166 230.89 786.637 225.091 781.676 225.031C777.883 224.985 774.938 228.831 774.676 232.612C774.414 236.393 776.144 240.017 778.032 243.306C779.92 246.595 782.056 249.865 782.754 253.593C783.302 256.526 782.533 260.142 779.792 261.319C777.345 262.369 774.553 260.996 772.428 259.392C767.487 255.644 763.756 250.526 761.699 244.675L763.818 244.614" stroke="#171717" stroke-width="3.453" stroke-linecap="round" stroke-linejoin="round"/>
<path d="M759.867 260.148L791.194 224.092" stroke="#171717" stroke-width="3.453" stroke-linecap="round" stroke-linejoin="round"/>
<path d="M854.879 195.066L857.124 175.546" stroke="#171717" stroke-width="3.453" stroke-linecap="round" stroke-linejoin="round"/>
<path d="M845.845 186.808L866.16 182.771" stroke="#171717" stroke-width="3.453" stroke-linecap="round" stroke-linejoin="round"/>
<path d="M809.377 557.581C792.411 562.009 777.777 573.244 766.777 586.896C755.777 600.548 748.099 616.566 741.518 632.819C738.287 640.796 735.259 649.037 734.871 657.635C734.483 666.233 737.109 675.36 743.6 681.011C751 687.459 763.46 687.734 770.316 680.711C777.172 673.688 775.853 660.121 767.2 655.48C759.306 651.247 748.859 655.454 743.8 662.847C738.741 670.24 738.043 679.801 738.955 688.713C739.867 697.625 742.21 706.375 742.597 715.325C742.919 724.046 741.399 732.736 738.136 740.829C734.873 748.923 729.939 756.237 723.658 762.294C715.785 769.794 704.981 775.294 694.265 773.454C683.549 771.614 674.4 760.181 677.879 749.88" stroke="#171717" stroke-width="3.453" stroke-linecap="round" stroke-linejoin="round"/>
<path d="M468.729 868.1C477.309 868.156 486.066 868.185 494.221 865.517C502.376 862.849 509.973 856.963 512.399 848.732" stroke="#171717" stroke-width="3.453" stroke-linecap="round" stroke-linejoin="round"/>
<path d="M79.7081 751.106C65.6391 748.618 54.9302 733.891 56.9002 719.741" stroke="#171717" stroke-width="3.453" stroke-linecap="round" stroke-linejoin="round"/>
<path d="M457.083 737C451.233 732.417 444.826 728.594 438.015 725.623" stroke="#171717" stroke-width="3.453" stroke-linecap="round" stroke-linejoin="round"/>
<path d="M448.11 750.087L428.753 739.273" stroke="#171717" stroke-width="3.453" stroke-linecap="round" stroke-linejoin="round"/>
<path d="M387.891 392.581C389.437 383.721 390.684 374.814 391.63 365.862C385.143 371.951 378.29 377.636 371.108 382.887" stroke="#171717" stroke-width="3.453" stroke-linecap="round" stroke-linejoin="round"/>
<path d="M436.479 403.076L448.667 385.611" stroke="#171717" stroke-width="3.453" stroke-linecap="round" stroke-linejoin="round"/>
<path d="M434.8 392.228C441.427 392.109 448.023 393.166 454.282 395.35" stroke="#171717" stroke-width="3.453" stroke-linecap="round" stroke-linejoin="round"/>
<path d="M500.6 410.309L519.7 412.709" stroke="#171717" stroke-width="3.453" stroke-linecap="round" stroke-linejoin="round"/>
<path d="M583.554 439.405C579.598 433.749 576.56 427.504 574.554 420.899" stroke="#171717" stroke-width="3.453" stroke-linecap="round" stroke-linejoin="round"/>
<path d="M566.886 435.7L590.826 424.675" stroke="#171717" stroke-width="3.453" stroke-linecap="round" stroke-linejoin="round"/>
<path d="M630.983 447.339L660.615 451.939" stroke="#171717" stroke-width="3.453" stroke-linecap="round" stroke-linejoin="round"/>
<path d="M648.468 440.015C648.887 439.725 649.381 439.563 649.891 439.549C650.4 439.536 650.903 439.671 651.337 439.938" stroke="#171717" stroke-width="3.453" stroke-linecap="round" stroke-linejoin="round"/>
<path d="M640.736 460.308L644.799 460.714" stroke="#171717" stroke-width="3.453" stroke-linecap="round" stroke-linejoin="round"/>
<path d="M312.681 457.216C320.823 449.223 328.365 440.642 335.247 431.541C335.735 436.982 335.05 442.465 333.238 447.618C339.294 443.848 345.677 440.629 352.31 438L332.231 465.135" stroke="#171717" stroke-width="3.453" stroke-linecap="round" stroke-linejoin="round"/>
<path d="M288.987 519.022L287.755 519.151C289.08 516.395 286.88 512.951 283.984 511.969C281.088 510.987 277.899 511.822 275.07 512.98C269.475 515.27 264.17 519.116 261.846 524.696C261.233 526.011 260.892 527.436 260.842 528.885C260.793 530.335 261.036 531.78 261.558 533.133C262.191 534.431 263.116 535.564 264.262 536.443C265.407 537.322 266.741 537.923 268.158 538.198C271.014 538.723 273.963 538.301 276.558 536.998" stroke="#171717" stroke-width="3.453" stroke-linecap="round" stroke-linejoin="round"/>
<path d="M384.829 462.745L383.779 463.685L404.608 457.328C396.85 465.575 389.544 474.236 382.723 483.273L384.829 482.649" stroke="#171717" stroke-width="3.453" stroke-linecap="round" stroke-linejoin="round"/>
<path d="M445.721 478.13C448.657 475.747 452.229 474.279 455.992 473.907C457.248 473.786 458.779 473.938 459.354 475.061C459.977 476.278 459.026 477.682 458.108 478.694C451.485 485.993 443.671 492.115 435 496.8C441.171 496.584 447.336 497.345 453.269 499.056C453.096 498.91 452.787 499.156 452.891 499.356C452.923 499.398 452.967 499.43 453.017 499.446C453.067 499.463 453.12 499.464 453.171 499.449C453.221 499.434 453.266 499.404 453.299 499.363C453.332 499.322 453.352 499.272 453.356 499.219" stroke="#171717" stroke-width="3.453" stroke-linecap="round" stroke-linejoin="round"/>
<path d="M519.79 494.14C524.31 491.98 529.237 490.798 534.245 490.673C535.526 490.571 536.813 490.756 538.013 491.215C538.609 491.454 539.127 491.852 539.511 492.367C539.895 492.882 540.129 493.493 540.188 494.132C540.223 496.003 538.375 497.288 536.724 498.168C531.746 500.823 526.566 503.082 521.234 504.922C523.734 504.758 526.314 504.606 528.654 505.487C530.994 506.368 533.028 508.587 532.862 511.079C532.651 514.256 529.289 516.156 526.29 517.227C519.109 519.788 511.517 521.002 503.896 520.809L507.503 520.426" stroke="#171717" stroke-width="3.453" stroke-linecap="round" stroke-linejoin="round"/>
<path d="M349.485 521.23L327.761 536.986L344.099 541.745L342.993 541.954" stroke="#171717" stroke-width="3.453" stroke-linecap="round" stroke-linejoin="round"/>
<path d="M341.343 535.031L328.325 552.077" stroke="#171717" stroke-width="3.453" stroke-linecap="round" stroke-linejoin="round"/>
<path d="M423.799 545.461C418.02 545.081 412.341 543.761 406.986 541.553L396.854 557.411C397.748 556.887 398.767 556.616 399.804 556.627C400.84 556.637 401.854 556.929 402.737 557.472C403.62 558.014 404.34 558.786 404.818 559.705C405.297 560.625 405.516 561.657 405.454 562.691" stroke="#171717" stroke-width="3.453" stroke-linecap="round" stroke-linejoin="round"/>
<path d="M410.047 672.006C419.338 667.473 426.917 660.062 431.658 650.875" stroke="#171717" stroke-width="3.453" stroke-linecap="round" stroke-linejoin="round"/>
<path d="M298.431 698.468C294.991 702.652 292.581 708.553 294.925 713.436C295.821 715.1 297.124 716.51 298.711 717.535C300.299 718.56 302.121 719.167 304.006 719.298C307.794 719.514 311.559 718.568 314.795 716.586C318.409 714.499 321.521 711.644 323.913 708.223C326.304 704.802 327.916 700.898 328.635 696.786C331.988 676.754 304.022 691.667 298.431 698.468Z" stroke="#171717" stroke-width="3.453" stroke-linecap="round" stroke-linejoin="round"/>
<path d="M355.688 732.8C369.945 726.859 383.744 719.873 396.971 711.9" stroke="#171717" stroke-width="3.453" stroke-linecap="round" stroke-linejoin="round"/>
<path d="M370.355 709.339L374.378 707.364" stroke="#171717" stroke-width="3.453" stroke-linecap="round" stroke-linejoin="round"/>
<path d="M377.111 742.889L382.527 740.994" stroke="#171717" stroke-width="3.453" stroke-linecap="round" stroke-linejoin="round"/>
<path d="M240.927 679.536L233.885 693.617" stroke="#171717" stroke-width="3.453" stroke-linecap="round" stroke-linejoin="round"/>
<path d="M149.783 669.638C153.905 665.262 158.438 661.292 163.318 657.781" stroke="#171717" stroke-width="3.453" stroke-linecap="round" stroke-linejoin="round"/>
<path d="M179.311 663.8L176.934 680.6" stroke="#171717" stroke-width="3.453" stroke-linecap="round" stroke-linejoin="round"/>
<path d="M575 521.215C573.267 528.348 571.195 535.385 568.786 542.324L595.955 511.585C602.385 515.091 609.481 517.204 616.781 517.785" stroke="#171717" stroke-width="3.453" stroke-linecap="round" stroke-linejoin="round"/>
<path d="M493.828 667.939C492.488 666.939 490.846 666.429 489.175 666.494C487.505 666.56 485.907 667.196 484.65 668.298C483.46 669.472 482.734 671.035 482.602 672.701C482.47 674.367 482.942 676.025 483.932 677.371C485.01 678.646 486.529 679.469 488.186 679.676C489.844 679.882 491.518 679.458 492.877 678.486C494.155 677.413 494.961 675.882 495.121 674.221C495.282 672.56 494.784 670.902 493.735 669.604" stroke="#171717" stroke-width="3.453" stroke-linecap="round" stroke-linejoin="round"/>
<path d="M560.989 587.055C557.705 586.974 554.705 585.314 551.637 584.14C548.569 582.966 544.907 582.321 542.153 584.112C540.26 585.343 539.194 587.473 538.125 589.462C532.103 600.642 523.483 610.211 512.99 617.362C522.249 617.713 531.423 619.265 540.282 621.979L538.2 621.446" stroke="#171717" stroke-width="3.453" stroke-linecap="round" stroke-linejoin="round"/>
<path d="M531.215 599.722C535.253 598.935 539.435 599.402 543.2 601.06" stroke="#171717" stroke-width="3.453" stroke-linecap="round" stroke-linejoin="round"/>
<path d="M242.924 463.1L241.449 451.777" stroke="#171717" stroke-width="3.453" stroke-linecap="round" stroke-linejoin="round"/>
<path d="M210.045 436.636C212.593 434.807 215.571 433.666 218.689 433.324" stroke="#171717" stroke-width="3.453" stroke-linecap="round" stroke-linejoin="round"/>
<path d="M201.899 472.358C198.471 472.806 195.162 473.909 192.151 475.608" stroke="#171717" stroke-width="3.453" stroke-linecap="round" stroke-linejoin="round"/>
<path d="M163.45 492.939L160.742 483.732" stroke="#171717" stroke-width="3.453" stroke-linecap="round" stroke-linejoin="round"/>
<path d="M197.028 521.644L194.862 511.354" stroke="#171717" stroke-width="3.453" stroke-linecap="round" stroke-linejoin="round"/>
<path d="M154.667 543.065L145.696 547.352" stroke="#171717" stroke-width="3.453" stroke-linecap="round" stroke-linejoin="round"/>
<path d="M192.154 570.388L188.362 559.015" stroke="#171717" stroke-width="3.453" stroke-linecap="round" stroke-linejoin="round"/>
<path d="M152.076 593.677L160.742 589.345" stroke="#171717" stroke-width="3.453" stroke-linecap="round" stroke-linejoin="round"/>
<path d="M193.23 615.343L191.608 602.885" stroke="#171717" stroke-width="3.453" stroke-linecap="round" stroke-linejoin="round"/>
<path d="M237.665 603.094C233.679 602.922 229.693 603.427 225.875 604.585L227.381 604.029" stroke="#171717" stroke-width="3.453" stroke-linecap="round" stroke-linejoin="round"/>
<path d="M224.247 652.732L225.829 641.894" stroke="#171717" stroke-width="3.453" stroke-linecap="round" stroke-linejoin="round"/>
<path d="M265.049 616.026L270.674 603.426" stroke="#171717" stroke-width="3.453" stroke-linecap="round" stroke-linejoin="round"/>
<path d="M296.2 627.713L288.623 622.29" stroke="#171717" stroke-width="3.453" stroke-linecap="round" stroke-linejoin="round"/>
<path d="M267.399 656.472L273.863 648.32" stroke="#171717" stroke-width="3.453" stroke-linecap="round" stroke-linejoin="round"/>
<path d="M323.764 610.467L332.971 598.552" stroke="#171717" stroke-width="3.453" stroke-linecap="round" stroke-linejoin="round"/>
<path d="M344.887 646.755L339.622 638.622L341.095 638.63" stroke="#171717" stroke-width="3.453" stroke-linecap="round" stroke-linejoin="round"/>
<path d="M357.335 606.7L367.659 609.841" stroke="#171717" stroke-width="3.453" stroke-linecap="round" stroke-linejoin="round"/>
<path d="M381.171 646.752L389.837 635.379" stroke="#171717" stroke-width="3.453" stroke-linecap="round" stroke-linejoin="round"/>
<path d="M406.83 658.67C406.801 627.976 403.931 597.35 398.258 567.185" stroke="#171717" stroke-width="3.453" stroke-linecap="round" stroke-linejoin="round"/>
<path d="M406.16 640.482L439.117 629.937" stroke="#171717" stroke-width="3.453" stroke-linecap="round" stroke-linejoin="round"/>
<path d="M405 618.562L434.269 610.521" stroke="#171717" stroke-width="3.453" stroke-linecap="round" stroke-linejoin="round"/>
<path d="M403.373 597.985L430.963 591.244C430.758 591.69 429.907 591.369 430.047 590.899" stroke="#171717" stroke-width="3.453" stroke-linecap="round" stroke-linejoin="round"/>
<path d="M400.688 579.681L426.665 574.708" stroke="#171717" stroke-width="3.453" stroke-linecap="round" stroke-linejoin="round"/>
<path d="M262.018 416.553L251.729 418.185" stroke="#171717" stroke-width="3.453" stroke-linecap="round" stroke-linejoin="round"/>
<path d="M74.4937 494.565L84.9277 502.224C85.2425 502.455 85.4789 502.777 85.6051 503.147C85.7314 503.516 85.7413 503.916 85.6337 504.291C85.5261 504.667 85.306 505 85.0031 505.247C84.7003 505.493 84.3292 505.641 83.9397 505.67L71.0317 506.635C70.6552 506.663 70.2954 506.802 69.9978 507.035C69.7003 507.267 69.4782 507.583 69.3597 507.941L65.2997 520.232C65.177 520.603 64.9436 520.927 64.631 521.161C64.3184 521.396 63.9416 521.529 63.5512 521.542C63.1609 521.556 62.7757 521.449 62.4476 521.238C62.1194 521.026 61.864 520.719 61.7157 520.357L56.8097 508.379C56.6665 508.03 56.4231 507.731 56.11 507.519C55.797 507.308 55.4284 507.194 55.0507 507.192L42.1077 507.129C41.717 507.127 41.3363 507.006 41.0167 506.781C40.6972 506.557 40.4542 506.239 40.3205 505.872C40.1868 505.505 40.1688 505.106 40.269 504.728C40.3691 504.351 40.5826 504.013 40.8807 503.76L50.7557 495.393C51.0443 495.149 51.2539 494.825 51.358 494.462C51.4622 494.099 51.4561 493.713 51.3407 493.353L47.3997 481.024C47.2806 480.652 47.2784 480.252 47.3934 479.879C47.5084 479.506 47.7351 479.177 48.0429 478.936C48.3508 478.695 48.7249 478.555 49.115 478.533C49.5051 478.512 49.8924 478.611 50.2247 478.816L61.2347 485.623C61.5558 485.822 61.9286 485.921 62.3059 485.908C62.6833 485.894 63.0482 485.77 63.3547 485.549L73.8637 477.992C74.1805 477.765 74.5592 477.64 74.9491 477.634C75.3389 477.628 75.7213 477.742 76.0447 477.959C76.3682 478.177 76.6174 478.488 76.7587 478.852C76.9001 479.215 76.927 479.613 76.8357 479.992L73.7647 492.566C73.6744 492.934 73.6955 493.321 73.8253 493.676C73.9551 494.032 74.1877 494.342 74.4937 494.565V494.565Z" fill="#171717"/>
<path d="M911.991 268.579L919.808 278.895C920.044 279.207 920.179 279.583 920.195 279.973C920.211 280.364 920.106 280.75 919.896 281.079C919.686 281.408 919.38 281.665 919.019 281.815C918.658 281.965 918.26 282.001 917.878 281.917L905.231 279.161C904.862 279.081 904.478 279.111 904.126 279.249C903.774 279.387 903.472 279.626 903.256 279.936L895.856 290.559C895.633 290.88 895.317 291.124 894.951 291.26C894.585 291.396 894.186 291.416 893.808 291.318C893.43 291.22 893.091 291.008 892.837 290.712C892.582 290.415 892.425 290.048 892.386 289.659L891.099 276.779C891.061 276.404 890.913 276.047 890.673 275.756C890.433 275.464 890.112 275.25 889.751 275.14L877.363 271.389C876.989 271.276 876.659 271.051 876.417 270.744C876.175 270.438 876.033 270.064 876.009 269.674C875.986 269.284 876.083 268.897 876.286 268.563C876.49 268.23 876.791 267.967 877.149 267.81L889 262.6C889.346 262.449 889.639 262.198 889.842 261.879C890.045 261.561 890.15 261.19 890.142 260.812L889.882 247.871C889.874 247.481 889.986 247.097 890.203 246.772C890.42 246.447 890.731 246.196 891.095 246.053C891.458 245.91 891.857 245.882 892.237 245.973C892.617 246.064 892.96 246.269 893.22 246.561L901.831 256.224C902.082 256.506 902.412 256.708 902.777 256.803C903.143 256.898 903.528 256.882 903.885 256.758L916.112 252.511C916.481 252.383 916.881 252.371 917.257 252.477C917.633 252.582 917.968 252.801 918.216 253.103C918.464 253.405 918.614 253.775 918.645 254.165C918.676 254.554 918.586 254.944 918.389 255.281L911.86 266.457C911.669 266.784 911.58 267.16 911.603 267.538C911.627 267.916 911.762 268.278 911.991 268.579Z" fill="#171717"/>
<path d="M845.845 467.461L866.16 445.923L829.96 439.405L845.845 467.461Z" stroke="#171717" stroke-width="3.453" stroke-miterlimit="10"/>
<path d="M763.41 510.677C762.319 505.272 759.63 500.319 755.692 496.46" stroke="#171717" stroke-width="3.453" stroke-linecap="round" stroke-linejoin="round"/>
<path d="M749.85 524.8L745.85 513.548" stroke="#171717" stroke-width="3.453" stroke-linecap="round" stroke-linejoin="round"/>
<path d="M726.39 530.17C726.788 525.469 727.762 520.834 729.29 516.37" stroke="#171717" stroke-width="3.453" stroke-linecap="round" stroke-linejoin="round"/>
<path d="M711.281 518.716C713.403 515.349 716.236 512.488 719.581 510.332" stroke="#171717" stroke-width="3.453" stroke-linecap="round" stroke-linejoin="round"/>
<path d="M713.577 527.23C709.172 521.461 707.09 514.249 707.745 507.019" stroke="#171717" stroke-width="3.453" stroke-linecap="round" stroke-linejoin="round"/>
<g opacity="0.1">
<path d="M245.591 378.916C247.069 388.642 239.299 395.516 231.791 399.935C223.336 404.906 214.573 409.253 206.249 414.465C173.466 435.395 146.501 464.266 127.855 498.4C117.608 517.161 109.32 537.575 107.876 559.1C105.229 598.577 130.83 634.091 163.944 653.169C200.852 674.434 246.044 678.637 287.844 677.729C337.929 676.527 387.33 665.826 433.422 646.193C442.798 642.225 435.936 625.573 426.415 629.571C387.059 646.198 345.161 656.009 302.515 658.585C263.204 660.86 219.568 659.194 183.385 642.002C152.055 627.115 125.134 597.424 126.723 560.873C127.583 541.106 136.033 522.085 145.566 505.063C154.453 489.33 165.148 474.689 177.434 461.439C191.336 446.336 207.268 433.238 224.775 422.52C234.093 416.83 244.619 412.131 251.32 403.145C257.281 395.152 259.995 384.017 254.071 375.339C250.987 370.821 244.806 373.761 245.589 378.915L245.591 378.916Z" fill="#171717"/>
</g>
<g opacity="0.1">
<path d="M333.472 253.932C329.972 252.332 326.354 253.467 322.672 253.994C318.047 254.637 313.389 255.006 308.722 255.1C300.022 255.308 291.464 253.295 282.868 252.3C275.785 251.477 267.315 252.388 261.868 257.459C259.268 259.883 257.396 262.924 255.224 265.705C252.498 269.194 250.136 269.321 246.368 271.167C241.868 273.367 241.995 280.667 246.368 282.905C254.504 287.074 262.285 280.753 266.825 274.187C268.925 271.15 270.325 267.141 273.315 264.811C276.4 262.406 280.715 262.911 284.462 263.211C293.464 264.073 302.528 264.085 311.534 263.247C318.08 262.547 330.034 261.968 333.991 255.928C334.184 255.595 334.238 255.199 334.14 254.826C334.042 254.454 333.801 254.135 333.47 253.94L333.472 253.932Z" fill="#171717"/>
</g>
</g>
<defs>
<linearGradient id="paint0_linear_248_1696" x1="273.359" y1="370.186" x2="273.359" y2="679.461" gradientUnits="userSpaceOnUse">
<stop stop-color="#FFB800"/>
<stop offset="1" stop-color="#FF7F0A"/>
</linearGradient>
<linearGradient id="paint1_linear_248_1696" x1="730.562" y1="478.195" x2="730.562" y2="530.946" gradientUnits="userSpaceOnUse">
<stop stop-color="#FFB800"/>
<stop offset="1" stop-color="#FF7F0A"/>
</linearGradient>
<linearGradient id="paint2_linear_248_1696" x1="442.299" y1="697.71" x2="442.299" y2="783.108" gradientUnits="userSpaceOnUse">
<stop stop-color="#FFB800"/>
<stop offset="1" stop-color="#FF7F0A"/>
</linearGradient>
<clipPath id="clip0_248_1696">
<rect width="881" height="780" fill="white" transform="translate(40 90)"/>
</clipPath>
</defs>
</svg>
