<svg width="960" height="960" viewBox="0 0 960 960" fill="none" xmlns="http://www.w3.org/2000/svg">
<g clip-path="url(#clip0_38_4068)">
<path fill-rule="evenodd" clip-rule="evenodd" d="M431.387 558.778C483.817 631.21 527.625 709.507 561.923 792.084C568.556 808.038 574.825 824.139 580.732 840.386C582.695 845.79 585.066 851.732 590.232 854.258C593.05 855.521 596.195 855.861 599.218 855.231C602.09 854.694 604.904 853.886 607.624 852.819L644.79 839.278C651.902 836.68 659.47 833.759 663.828 827.559C664.309 826.872 664.748 826.156 665.143 825.416C669.253 817.585 667.778 807.668 665.878 798.816C665.34 796.311 664.781 793.811 664.201 791.316C640.224 687.563 584.341 594.451 517.691 511.196L517.422 510.44C515.898 510.96 514.301 511.232 512.691 511.247C497.692 511.636 483.688 511.497 470.168 511.364C434.255 511.009 401.758 510.688 363.091 520.368C361.196 520.845 350.916 523.371 344.332 523.381L344.342 524.075C343.563 533.699 342.253 543.272 340.418 552.752C343.1 552.897 345.771 553.073 348.452 553.28L348.845 553.704C348.738 556.301 348.669 558.899 348.638 561.499C348.491 573.734 349.106 585.967 350.481 598.126L395.163 595.726C395.163 595.726 411.055 596.037 423.105 599.308C427.793 586.281 430.396 572.595 430.818 558.757L431.387 558.778ZM520.18 528.99C519.622 528.338 518.642 528.262 517.99 528.82C517.339 529.378 517.262 530.358 517.82 531.01C586.755 611.558 635.872 707.128 661.238 810.068C661.443 810.9 662.285 811.409 663.118 811.204C663.95 810.999 664.459 810.157 664.254 809.324C638.772 705.914 589.43 609.907 520.18 528.99Z" fill="url(#paint0_linear_38_4068)"/>
<path d="M747.823 858.455C749.923 866.355 745.494 874.885 738.961 879.802C732.428 884.719 724.178 886.718 716.123 888.115C685.023 893.498 653.179 891.715 621.676 889.668C616.551 889.337 611.168 888.912 606.882 886.076C602.327 883.053 599.749 877.69 598.89 872.286C598.031 866.882 598.683 861.364 599.335 855.939L599.211 855.225C602.083 854.687 604.897 853.88 607.617 852.813L644.783 839.272C651.895 836.672 659.463 833.754 663.821 827.553C664.302 826.866 664.741 826.15 665.136 825.41C683.357 830.31 703.536 835.38 721.744 840.276C727.117 841.715 732.562 843.195 737.376 845.976C742.19 848.757 746.399 853.072 747.823 858.455Z" fill="#171717"/>
<path d="M522.034 491.87C525.057 493.858 527.134 507.016 517.417 510.443C515.893 510.963 514.296 511.236 512.686 511.25C457.848 512.668 416.314 507.05 363.086 520.371C361.191 520.847 350.911 523.371 344.327 523.384C343.695 523.384 343.105 523.363 342.557 523.311C334.265 522.576 344.98 503.041 346.098 497.989L345.984 497.751C347.527 497.026 349.049 496.293 350.549 495.551L350.58 495.613C408.668 491.72 457.28 486.244 510.527 489.319H510.579C515.295 489.582 518.618 489.613 522.034 491.87Z" fill="#171717"/>
<path d="M500.78 814.57C485.738 838.785 470.703 863.003 455.674 887.224C450.508 895.537 445.341 903.857 440.174 912.184C368.641 909.347 297.07 907.632 225.461 907.039C239.944 890.754 254.428 874.466 268.911 858.175C320.483 860.917 372.183 860.149 423.651 855.875C433.151 855.15 435.351 844.922 435.351 844.922C435.351 844.922 435.651 829.622 436.014 806.773L436.814 806.794C457.695 805.334 481.071 807.653 500.886 814.394C500.847 814.451 500.812 814.509 500.78 814.57V814.57Z" fill="url(#paint1_linear_38_4068)"/>
<path d="M486.235 325.048C486.65 328.18 486.626 331.354 486.163 334.479L486.122 334.748C484.497 334.516 482.855 334.422 481.215 334.468C481.381 331.549 481.546 328.619 481.715 325.699V325.15C481.47 324.673 481.404 324.125 481.529 323.603C481.653 323.082 481.961 322.623 482.395 322.308C482.829 321.994 483.361 321.846 483.896 321.89C484.43 321.934 484.93 322.169 485.307 322.55C485.876 323.262 486.201 324.138 486.235 325.048V325.048Z" fill="url(#paint2_linear_38_4068)"/>
<path d="M436.242 793.037C436.17 797.851 436.097 802.448 436.014 806.775C435.652 829.623 435.351 844.924 435.351 844.924C435.351 844.924 433.156 855.152 423.651 855.877C372.183 860.152 320.483 860.92 268.911 858.177C241.43 856.7 214.048 853.739 186.887 849.305L186.556 849.315L176.05 607.477L177.385 607.415L234.345 604.361L326.97 599.392L350.481 598.129L395.163 595.729C395.163 595.729 411.054 596.04 423.105 599.311C429.505 601.05 434.814 603.618 436.077 607.417C438.6 614.993 437.288 725.466 436.242 793.037Z" fill="#171717"/>
<path d="M326.949 599.081C331.849 586.643 335.787 573.848 338.73 560.808C342.022 560.994 345.314 561.232 348.596 561.502H348.637C348.49 573.738 349.105 585.97 350.48 598.129L326.969 599.392L326.949 599.081Z" fill="url(#paint3_linear_38_4068)"/>
<path d="M348.453 553.281L348.846 553.705C348.742 556.305 348.673 558.903 348.639 561.5H348.6C345.318 561.231 342.026 560.993 338.734 560.806C339.345 558.125 339.907 555.44 340.421 552.752C343.1 552.9 345.771 553.074 348.453 553.281Z" fill="#171717"/>
<path d="M340.418 552.753C339.9 555.445 339.338 558.13 338.731 560.807C331.951 560.393 325.163 560.16 318.367 560.107L317.373 560.097C317.458 557.5 317.34 554.901 317.021 552.322L318.905 552.136C326.081 552.145 333.252 552.35 340.418 552.753Z" fill="#171717"/>
<path d="M264.08 556.118C264.059 557.205 264.049 558.302 264.039 559.389C264.029 560.714 264.008 562.06 264.07 563.389L262.879 563.451C254.742 564.507 246.636 565.811 238.561 567.364L238.395 567.343C238.715 565.086 239.057 562.832 239.42 560.583L239.337 560.2C247.101 558.606 254.913 557.243 262.775 556.111L264.08 556.118Z" fill="#171717"/>
<path d="M452.745 278.141C452.724 278.017 452.714 277.903 452.693 277.779C451.534 268.596 450.993 257.892 457.893 251.763C461.33 248.709 466.04 247.446 469.571 244.495C474.934 240.012 476.611 232.558 477.532 225.633C480.369 204.265 479.132 182.597 477.874 161.074C477.853 160.857 477.843 160.65 477.833 160.432" stroke="#171717" stroke-width="2.943" stroke-linecap="round" stroke-linejoin="round"/>
<path d="M441.076 220.943C443.819 221.212 447.143 221.223 448.633 218.904C449.492 217.579 449.433 215.871 449.316 214.297C448.655 205.322 447.256 196.416 445.134 187.67C444.585 185.434 444.182 182.639 445.993 181.231C446.904 180.654 447.959 180.345 449.037 180.341C453.148 179.946 457.28 179.805 461.408 179.917" stroke="#171717" stroke-width="2.943" stroke-linecap="round" stroke-linejoin="round"/>
<path d="M463.459 193.074C463.435 192.203 463.087 191.372 462.484 190.743C461.881 190.113 461.066 189.73 460.197 189.668C459.328 189.606 458.466 189.868 457.78 190.405C457.094 190.942 456.631 191.715 456.482 192.574" stroke="#171717" stroke-width="2.943" stroke-linecap="round" stroke-linejoin="round"/>
<path d="M432.909 192.939C432.448 192.077 431.712 191.393 430.818 190.998C429.924 190.603 428.923 190.518 427.975 190.757C427.027 190.997 426.186 191.546 425.587 192.319C424.988 193.091 424.664 194.042 424.668 195.02" stroke="#171717" stroke-width="2.943" stroke-linecap="round" stroke-linejoin="round"/>
<path d="M437.578 239.412C436.331 240.341 434.847 240.9 433.297 241.025C431.747 241.149 430.193 240.835 428.813 240.118C427.434 239.4 426.284 238.309 425.496 236.969C424.708 235.628 424.313 234.093 424.357 232.538" stroke="#171717" stroke-width="2.943" stroke-linecap="round" stroke-linejoin="round"/>
<path d="M411.821 279.259C410.941 264.601 410.061 249.938 409.181 235.271C408.322 221.005 407.466 206.742 406.614 192.484C406.252 186.438 406.045 179.833 409.668 174.978C413.291 170.123 419.751 168.425 425.756 167.452C442.956 164.657 461.089 164.916 477.871 161.075C484.766 159.585 491.421 157.142 497.644 153.818C500.077 152.493 502.52 150.868 503.752 148.393C504.984 145.918 504.487 142.393 502.033 141.093C500.045 140.058 497.623 140.782 495.521 141.569C489.661 143.743 483.908 146.187 478.263 148.899C479.298 144.779 482.763 141.745 484.64 137.925C486.517 134.105 485.603 128.09 481.389 127.51C479.267 127.21 477.269 128.493 475.55 129.777C470.866 133.274 466.557 137.246 462.692 141.631C464.245 138.142 465.808 134.581 466.243 130.792C466.678 127.003 465.829 122.872 463.117 120.201C462.357 119.408 461.4 118.832 460.343 118.534C457.6 117.851 454.835 119.934 453.469 122.416C452.103 124.898 451.688 127.779 450.684 130.416C447.454 138.905 438.623 144.009 429.834 146.276C421.045 148.543 411.821 148.688 403.021 150.893C394.221 153.098 385.321 158.047 381.902 166.453C378.579 174.621 381.157 183.814 382.741 192.479C385.073 205.273 385.161 218.376 383 231.2C382.4 234.761 382.141 239.41 385.422 240.931C387.451 241.873 389.946 240.921 391.468 239.285C392.872 237.534 393.898 235.511 394.481 233.343C392.825 237.494 396.168 242.774 400.63 243.064C404.699 243.333 408.384 239.327 408.146 235.331C408.122 234.954 408.063 234.579 407.97 234.213" stroke="#171717" stroke-width="2.943" stroke-linecap="round" stroke-linejoin="round"/>
<path d="M320.936 467.282C321.216 435.127 327.013 398.789 350.772 375.931C354.554 372.284 358.719 369.056 363.195 366.303C371.316 361.191 380.54 358.089 390.101 357.255" stroke="#171717" stroke-width="2.943" stroke-linecap="round" stroke-linejoin="round"/>
<path d="M398.032 291.723C397.193 291.837 396.345 291.94 395.506 292.054C381.012 293.938 366.467 296.019 352.325 300.129C340.667 303.399 329.553 308.366 319.342 314.871C248.52 360.66 255.156 504.323 255.156 520.887C255.156 526.715 259.701 531.623 264.535 534.77C264.856 534.987 265.187 535.184 265.508 535.381C277.931 540.557 291.389 539.522 304.848 536.416C308.652 535.491 312.129 533.54 314.9 530.774C320.449 525.225 322.871 516.746 321.608 508.102" stroke="#171717" stroke-width="2.943" stroke-linecap="round" stroke-linejoin="round"/>
<path d="M395.359 291.268C392.843 288.794 394.148 284.187 397.015 282.137C399.882 280.087 403.615 279.859 407.15 279.704C408.713 279.642 410.266 279.569 411.829 279.504C425.443 278.935 439.064 278.359 452.691 277.775C455.724 277.651 458.758 277.516 461.791 277.392C465.849 277.226 470.083 277.092 473.748 278.831C477.413 280.57 480.208 284.856 478.873 288.687" stroke="#171717" stroke-width="2.943" stroke-linecap="round" stroke-linejoin="round"/>
<path d="M477.414 288.866C484.485 299.022 498.414 301.372 510.791 301.496C545.658 301.858 580.143 291.537 610.88 275.045C641.617 258.553 668.772 236.036 693.318 211.252C696.144 208.405 699.018 205.465 702.666 203.788C705.979 202.277 710.109 202.038 713.132 203.933C713.455 204.122 713.76 204.34 714.043 204.585C716.383 206.542 717.387 209.627 718.277 212.546C721.983 224.617 725.686 236.691 729.385 248.77C730.382 251.836 731.184 254.962 731.785 258.129C732.677 262.251 732.412 266.54 731.019 270.521C728.348 277.374 721.577 281.609 715.18 285.253C655.165 319.368 590.109 343.728 522.446 357.421C519.703 357.99 516.953 358.531 514.195 359.046" stroke="#171717" stroke-width="2.943" stroke-linecap="round" stroke-linejoin="round"/>
<path d="M522.531 357.845C526.185 387.702 529.85 417.776 527.831 447.799C526.806 463.162 523.255 480.161 510.604 488.94" stroke="#171717" stroke-width="2.943" stroke-linecap="round" stroke-linejoin="round"/>
<path d="M351.134 376.314C348.59 400.89 347.632 425.605 348.266 450.304" stroke="#171717" stroke-width="2.943" stroke-linecap="round" stroke-linejoin="round"/>
<path d="M439.493 302.2L450.208 290.025L421.469 289.042L432.669 303.66C420.453 380.787 382.304 425.593 348.647 450.812C340.017 457.279 330.885 463.047 321.337 468.059C303.522 477.4 290.9 480.513 290.9 480.513C290.9 480.513 272.39 505.359 270.93 506.819L303.561 513.641C309.804 511.809 315.784 509.866 321.502 507.813C330.24 504.687 338.401 501.333 345.986 497.75C347.529 497.025 349.051 496.291 350.551 495.55C481.833 430.443 439.491 302.205 439.491 302.205" stroke="#171717" stroke-width="2.943" stroke-linecap="round" stroke-linejoin="round"/>
<path d="M431.387 558.779C483.818 631.21 527.625 709.508 561.923 792.085C568.559 808.038 574.825 824.136 580.723 840.38C582.69 845.78 585.061 851.726 590.223 854.252C593.041 855.515 596.186 855.855 599.209 855.225C602.08 854.687 604.895 853.879 607.615 852.813L644.781 839.272C651.893 836.672 659.461 833.754 663.819 827.553C664.3 826.866 664.739 826.15 665.134 825.41C669.244 817.583 667.774 807.666 665.869 798.81C665.331 796.305 664.772 793.805 664.192 791.31C640.215 687.556 584.332 594.445 517.682 511.19" stroke="#171717" stroke-width="2.943" stroke-linecap="round" stroke-linejoin="round"/>
<path d="M346.1 497.988C344.982 503.04 334.267 522.575 342.559 523.31C343.108 523.362 343.698 523.383 344.329 523.383C350.913 523.373 361.193 520.847 363.088 520.37C416.311 507.046 457.845 512.67 512.688 511.249C514.298 511.235 515.895 510.962 517.419 510.442C527.14 507.015 525.059 493.857 522.036 491.869C518.62 489.612 515.296 489.581 510.586 489.312H510.534C457.291 486.237 408.675 491.712 350.587 495.606" stroke="#171717" stroke-width="2.943" stroke-linecap="round" stroke-linejoin="round"/>
<path d="M357.894 64.8261L340.533 59.6501L120.385 112.686L154 915.808L169.902 918.728" stroke="#171717" stroke-width="2.943" stroke-linecap="round" stroke-linejoin="round"/>
<path d="M562.139 792.084H561.922L436.241 793.037H436.076" stroke="#171717" stroke-width="2.943" stroke-linecap="round" stroke-linejoin="round"/>
<path d="M352.222 299.767L348.391 82.4771L819.734 52.7651L824.124 790.107L664.197 791.318H664.083" stroke="#171717" stroke-width="2.943" stroke-linecap="round" stroke-linejoin="round"/>
<path d="M300.686 568.707C301.272 570.01 302.226 571.113 303.431 571.882C304.635 572.651 306.038 573.051 307.467 573.034C311.784 572.786 315.242 569.028 316.536 564.907C317.016 563.344 317.298 561.727 317.375 560.093C317.459 557.496 317.341 554.897 317.023 552.318C317.021 552.231 317.014 552.145 317.002 552.059C316.308 544.959 315.594 537.866 314.902 530.774C314.881 530.598 314.871 530.422 314.85 530.246" stroke="#171717" stroke-width="2.943" stroke-linecap="round" stroke-linejoin="round"/>
<path d="M300.685 568.707C300.979 567.367 300.929 565.975 300.54 564.659C300.283 565.307 300.164 566.002 300.189 566.698C300.214 567.395 300.383 568.079 300.685 568.707V568.707Z" stroke="#171717" stroke-width="2.943" stroke-linecap="round" stroke-linejoin="round"/>
<path d="M282.619 567.3C282.857 571.762 286.377 576.162 290.932 576.545C295.518 576.938 299.752 573.108 300.684 568.708" stroke="#171717" stroke-width="2.943" stroke-linecap="round" stroke-linejoin="round"/>
<path d="M282.62 567.3C282.951 565.964 283.189 564.588 283.427 563.231C282.814 564.496 282.536 565.897 282.62 567.3Z" stroke="#171717" stroke-width="2.943" stroke-linecap="round" stroke-linejoin="round"/>
<path d="M264.306 535.547C264.223 542.4 264.147 549.257 264.078 556.118C264.057 557.205 264.047 558.302 264.037 559.389C264.027 560.714 264.006 562.06 264.068 563.389C264.09 565.883 264.575 568.35 265.497 570.667C267.029 574.167 270.549 577.096 274.348 576.682C277.248 576.361 279.669 574.182 281.048 571.609C281.752 570.246 282.281 568.798 282.622 567.302" stroke="#171717" stroke-width="2.943" stroke-linecap="round" stroke-linejoin="round"/>
<path d="M188.898 903.199L170.449 918.728L134.277 120.73L357.893 64.8259L358.98 77.9739" stroke="#171717" stroke-width="2.943" stroke-linecap="round" stroke-linejoin="round"/>
<path d="M348.39 82.4771L155.47 133.878L176.051 607.477L186.559 849.314L188.899 903.199" stroke="#171717" stroke-width="2.943" stroke-linecap="round" stroke-linejoin="round"/>
<path d="M754.552 194.016C756.374 192.308 758.155 190.552 759.894 188.747C763.021 185.507 766.251 181.272 765.019 176.947C763.787 172.622 758.404 170.601 753.993 171.547C749.582 172.493 745.97 175.553 742.564 178.494C732.76 186.983 722.95 195.465 713.132 203.941C712.832 204.2 712.542 204.459 712.242 204.717" stroke="#171717" stroke-width="2.943" stroke-linecap="round" stroke-linejoin="round"/>
<path d="M754.553 194.016C747.813 199.451 741.07 204.886 734.324 210.321C741.491 205.434 748.255 199.981 754.553 194.016V194.016Z" stroke="#171717" stroke-width="2.943" stroke-linecap="round" stroke-linejoin="round"/>
<path d="M731.414 257.322C731.538 257.591 731.652 257.86 731.787 258.13C734.914 264.782 739.855 270.416 746.042 274.384C748.62 276.03 752.316 277.262 754.49 275.109C756.24 273.37 755.877 270.502 755.308 268.1C753.389 259.885 750.631 251.888 747.078 244.237C760.4 235.778 772.53 225.576 783.146 213.9C786.676 210.007 790.146 204.1 786.914 199.955C785.082 197.584 781.634 196.994 778.735 197.729C775.836 198.464 773.352 200.286 770.95 202.077C759.617 210.566 748.505 219.349 737.615 228.424C748.496 218.879 759.377 209.331 770.257 199.778C773.808 196.662 777.7 191.848 775.299 187.778C773.819 185.242 770.35 184.455 767.504 185.169C764.658 185.883 762.266 187.788 759.978 189.641C758.166 191.101 756.365 192.56 754.553 194.01" stroke="#171717" stroke-width="2.943" stroke-linecap="round" stroke-linejoin="round"/>
<path d="M764.161 409.681C762.008 425.997 763.602 437.095 767.909 452.975C768.789 456.226 770.083 459.766 773.085 461.257C776.129 462.768 779.98 461.505 782.361 459.073C784.742 456.641 785.912 453.317 786.792 450.035C791.544 432.249 789.256 413.435 786.947 395.177C785.632 384.855 764.202 383.561 765.176 398.417" stroke="#171717" stroke-width="2.943" stroke-linecap="round" stroke-linejoin="round"/>
<path d="M764.161 409.681C766.811 409.546 769.979 409.691 771.361 411.948C772.914 414.484 771.32 418.553 773.732 420.313C779.995 424.868 784.758 403.19 777.376 399.09C775.43 398.003 773.059 398.127 770.833 398.283C768.959 398.418 767.075 398.542 765.201 398.676L725.801 401.44C723.611 401.432 721.449 401.92 719.476 402.869C717.592 403.956 716.205 406.269 716.888 408.335C717.871 411.296 721.826 411.689 724.942 411.544L764.161 409.681Z" stroke="#171717" stroke-width="2.943" stroke-linecap="round" stroke-linejoin="round"/>
<path d="M776.057 449.321C776.243 446.402 776.436 443.482 776.637 440.563" stroke="#171717" stroke-width="2.943" stroke-linecap="round" stroke-linejoin="round"/>
<path d="M177.386 607.415L234.346 604.361L326.971 599.392L350.482 598.129L395.164 595.729C395.164 595.729 411.055 596.04 423.106 599.311C429.506 601.05 434.815 603.618 436.078 607.417C438.604 614.995 437.289 725.468 436.244 793.039C436.172 797.853 436.099 802.45 436.016 806.777C435.654 829.625 435.353 844.926 435.353 844.926C435.353 844.926 433.158 855.154 423.653 855.879C372.185 860.154 320.485 860.922 268.913 858.179C241.431 856.702 214.05 853.741 186.889 849.307" stroke="#171717" stroke-width="2.943" stroke-linecap="round" stroke-linejoin="round"/>
<path d="M430.859 551.884C430.911 554.172 430.9 556.47 430.818 558.758C430.396 572.597 427.793 586.282 423.105 599.309C423.095 599.35 423.074 599.392 423.064 599.433" stroke="#171717" stroke-width="2.943" stroke-linecap="round" stroke-linejoin="round"/>
<path d="M344.343 524.077C343.565 533.701 342.255 543.275 340.419 552.754C339.901 555.446 339.339 558.131 338.732 560.808C335.789 573.848 331.851 586.643 326.951 599.081C327.241 598.657 327.52 598.222 327.81 597.797" stroke="#171717" stroke-width="2.943" stroke-linecap="round" stroke-linejoin="round"/>
<path d="M234.336 604.5C234.336 604.459 234.346 604.407 234.346 604.365C235.247 591.983 236.597 579.643 238.394 567.344C238.715 565.087 239.056 562.833 239.419 560.584" stroke="#171717" stroke-width="2.943" stroke-linecap="round" stroke-linejoin="round"/>
<path d="M350.544 598.657C350.523 598.481 350.503 598.305 350.482 598.129C349.107 585.97 348.491 573.738 348.639 561.502C348.67 558.902 348.739 556.304 348.846 553.707" stroke="#171717" stroke-width="2.943" stroke-linecap="round" stroke-linejoin="round"/>
<path d="M318.906 552.132C326.08 552.142 333.251 552.349 340.419 552.753C343.1 552.898 345.771 553.074 348.453 553.281" stroke="#171717" stroke-width="2.943" stroke-linecap="round" stroke-linejoin="round"/>
<path d="M238.508 560.373C238.788 560.311 239.057 560.259 239.336 560.197C247.1 558.603 254.912 557.24 262.774 556.108" stroke="#171717" stroke-width="2.943" stroke-linecap="round" stroke-linejoin="round"/>
<path d="M318.367 560.1C325.158 560.162 331.946 560.395 338.731 560.8C342.023 560.986 345.315 561.224 348.597 561.494" stroke="#171717" stroke-width="2.943" stroke-linecap="round" stroke-linejoin="round"/>
<path d="M238.561 567.361C246.627 565.808 254.733 564.504 262.879 563.448" stroke="#171717" stroke-width="2.943" stroke-linecap="round" stroke-linejoin="round"/>
<path d="M269.2 857.844C269.107 857.958 269 858.061 268.91 858.175C254.416 874.46 239.933 890.748 225.46 907.039C297.048 907.629 368.619 909.344 440.173 912.184C445.339 903.861 450.506 895.541 455.673 887.224C470.705 862.999 485.74 838.781 500.779 814.57C500.808 814.509 500.842 814.45 500.879 814.394C481.064 807.654 457.688 805.335 436.807 806.794" stroke="#171717" stroke-width="2.943" stroke-linecap="round" stroke-linejoin="round"/>
<path d="M440.229 912.34C447.455 912.268 454.681 912.201 461.907 912.14" stroke="#171717" stroke-width="2.943" stroke-linecap="round" stroke-linejoin="round"/>
<path d="M500.625 814.56C500.677 814.56 500.725 814.57 500.78 814.57L513.058 815.222" stroke="#171717" stroke-width="2.943" stroke-linecap="round" stroke-linejoin="round"/>
<path d="M493.078 827.946C497.723 827.876 502.365 828.181 506.961 828.857" stroke="#171717" stroke-width="2.943" stroke-linecap="round" stroke-linejoin="round"/>
<path d="M485.045 840.71C490.335 840.927 495.625 841.137 500.916 841.342C500.816 841.404 500.716 841.456 500.626 841.518" stroke="#171717" stroke-width="2.943" stroke-linecap="round" stroke-linejoin="round"/>
<path d="M476.762 854.014C481.804 853.9 486.848 854.118 491.862 854.666" stroke="#171717" stroke-width="2.943" stroke-linecap="round" stroke-linejoin="round"/>
<path d="M467.506 868.7L484.795 869.228" stroke="#171717" stroke-width="2.943" stroke-linecap="round" stroke-linejoin="round"/>
<path d="M455.332 887.235C455.446 887.235 455.56 887.235 455.674 887.225C462.485 887.109 469.281 886.542 476.017 885.525" stroke="#171717" stroke-width="2.943" stroke-linecap="round" stroke-linejoin="round"/>
<path d="M225.133 907.081H211" stroke="#171717" stroke-width="2.943" stroke-linecap="round" stroke-linejoin="round"/>
<path d="M229.521 879.647C236.179 879.688 242.835 879.726 249.491 879.761" stroke="#171717" stroke-width="2.943" stroke-linecap="round" stroke-linejoin="round"/>
<path d="M244.865 864.232C250.714 864.346 256.56 864.463 262.402 864.584" stroke="#171717" stroke-width="2.943" stroke-linecap="round" stroke-linejoin="round"/>
<path d="M481.215 334.469C475.635 334.562 469.589 335.691 466.245 335.815C464.682 335.867 462.963 335.991 461.856 337.099C460.676 338.269 460.624 340.112 460.634 341.768C460.738 352.804 460.834 363.837 460.924 374.868C460.945 377.135 461.079 379.668 462.715 381.245C464.268 382.745 466.659 382.86 468.823 382.881L481.329 383.005C485.004 383.046 489.114 382.905 491.661 380.251C493.835 377.973 494.146 374.557 494.291 371.41C494.539 365.768 494.602 360.105 494.467 354.452C494.367 349.835 495.167 343.152 493.152 338.871C491.992 336.417 489.363 335.217 486.123 334.751C484.498 334.519 482.856 334.424 481.215 334.469V334.469Z" stroke="#171717" stroke-width="2.943" stroke-linecap="round" stroke-linejoin="round"/>
<path d="M480.023 355.671C480.416 348.6 480.813 341.534 481.214 334.471C481.38 331.552 481.545 328.622 481.714 325.702" stroke="#171717" stroke-width="2.943" stroke-linecap="round" stroke-linejoin="round"/>
<path d="M486.163 334.48C486.627 331.355 486.651 328.181 486.235 325.049C486.201 324.137 485.874 323.26 485.303 322.549C484.926 322.168 484.426 321.933 483.891 321.889C483.357 321.845 482.825 321.993 482.391 322.307C481.957 322.622 481.649 323.081 481.524 323.602C481.4 324.124 481.466 324.672 481.711 325.149" stroke="#171717" stroke-width="2.943" stroke-linecap="round" stroke-linejoin="round"/>
<path d="M599.336 855.939C598.684 861.364 598.043 866.882 598.892 872.286C599.741 877.69 602.328 883.053 606.883 886.076C611.169 888.913 616.552 889.337 621.677 889.668C653.177 891.718 685.025 893.498 716.125 888.115C724.179 886.715 732.425 884.73 738.963 879.802C745.501 874.874 749.926 866.354 747.825 858.455C746.396 853.072 742.204 848.765 737.379 845.98C732.554 843.195 727.12 841.715 721.747 840.28C703.537 835.38 683.359 830.31 665.138 825.414C665.092 825.395 665.043 825.382 664.994 825.373" stroke="#171717" stroke-width="3.106" stroke-miterlimit="10"/>
<path d="M300.824 253.416C306.21 262.397 308.337 273.887 304.1 283.463C299.863 293.039 288.213 299.441 278.4 295.8C273.781 294.087 269.842 290.106 269.048 285.244C268.254 280.382 271.219 274.935 275.991 273.709C280.875 272.455 286.183 275.975 287.816 280.746C289.449 285.517 287.886 290.977 284.725 294.906C281.564 298.835 277.012 301.417 272.313 303.246C265.159 306.03 257.28 307.359 251.036 311.825C246.772 315.009 243.606 319.442 241.979 324.508C240.351 329.574 240.343 335.022 241.955 340.093C242.122 339.138 242.288 338.182 242.455 337.227" stroke="#171717" stroke-width="3.106" stroke-linecap="round" stroke-linejoin="round"/>
<path d="M527.178 162.423L544.645 164.877" stroke="#171717" stroke-width="3.106" stroke-linecap="round" stroke-linejoin="round"/>
<path d="M527.664 147.267C541.074 138.317 553.892 128.511 566.04 117.911" stroke="#171717" stroke-width="3.106" stroke-linecap="round" stroke-linejoin="round"/>
<path d="M518.373 136.543L523.218 123.379" stroke="#171717" stroke-width="3.106" stroke-linecap="round" stroke-linejoin="round"/>
<path d="M316.728 171.144L307.02 161.85" stroke="#171717" stroke-width="3.106" stroke-linecap="round" stroke-linejoin="round"/>
<path d="M306.455 171.111C310.227 167.5 313.559 163.457 316.382 159.064" stroke="#171717" stroke-width="3.106" stroke-linecap="round" stroke-linejoin="round"/>
<path d="M281.16 214.506L268.006 203.3" stroke="#171717" stroke-width="3.106" stroke-linecap="round" stroke-linejoin="round"/>
<path d="M267.574 215.531L278.755 202.357" stroke="#171717" stroke-width="3.106" stroke-linecap="round" stroke-linejoin="round"/>
<path d="M272.876 144.841C268.516 141.62 264.587 137.854 261.184 133.636" stroke="#171717" stroke-width="3.106" stroke-linecap="round" stroke-linejoin="round"/>
<path d="M259.809 145.893L271.085 133.293" stroke="#171717" stroke-width="3.106" stroke-linecap="round" stroke-linejoin="round"/>
<path d="M715.899 266.932C715.359 266.189 714.57 265.665 713.676 265.455C712.782 265.246 711.842 265.364 711.027 265.788C710.213 266.213 709.578 266.916 709.239 267.77C708.899 268.623 708.877 269.57 709.177 270.438C709.476 271.306 710.078 272.038 710.872 272.5C711.666 272.962 712.599 273.123 713.502 272.955C714.405 272.787 715.217 272.3 715.792 271.583C716.366 270.866 716.663 269.967 716.63 269.049" stroke="#171717" stroke-width="3.106" stroke-linecap="round" stroke-linejoin="round"/>
<path d="M747.732 296.568C750.674 297.324 753.745 297.434 756.733 296.891C759.721 296.348 762.557 295.164 765.044 293.422C767.532 291.679 769.613 289.419 771.144 286.796C772.676 284.173 773.622 281.25 773.916 278.227" stroke="#171717" stroke-width="3.106" stroke-linecap="round" stroke-linejoin="round"/>
<path d="M763.834 308.92C766.265 308.681 768.593 307.816 770.591 306.41C772.589 305.004 774.188 303.104 775.234 300.896" stroke="#171717" stroke-width="3.106" stroke-linecap="round" stroke-linejoin="round"/>
<path d="M839.078 635.916C841.534 615.131 841.257 594.114 838.256 573.401" stroke="#171717" stroke-width="3.106" stroke-linecap="round" stroke-linejoin="round"/>
<path d="M835.714 96.173C839.088 86.6909 840.177 76.5463 838.891 66.5643C837.605 56.5822 833.981 47.0446 828.314 38.7271" stroke="#171717" stroke-width="3.106" stroke-linecap="round" stroke-linejoin="round"/>
<path d="M420.352 891.291L427.226 887.159" stroke="#171717" stroke-width="3.106" stroke-linecap="round" stroke-linejoin="round"/>
<path d="M365.916 891.669L372.13 888.019" stroke="#171717" stroke-width="3.106" stroke-linecap="round" stroke-linejoin="round"/>
<path d="M407.648 869.889L416.704 864.989" stroke="#171717" stroke-width="3.106" stroke-linecap="round" stroke-linejoin="round"/>
<path d="M456.922 836.164C459.072 834.084 461.698 832.563 464.572 831.732" stroke="#171717" stroke-width="3.106" stroke-linecap="round" stroke-linejoin="round"/>
<path d="M443.754 818.611C445.245 817.518 447.023 816.883 448.869 816.784" stroke="#171717" stroke-width="3.106" stroke-linecap="round" stroke-linejoin="round"/>
<path d="M335.943 878.857L342.143 875.557" stroke="#171717" stroke-width="3.106" stroke-linecap="round" stroke-linejoin="round"/>
<path d="M292.1 896.76L299.775 893.111" stroke="#171717" stroke-width="3.106" stroke-linecap="round" stroke-linejoin="round"/>
<path d="M285.176 873.785L292.118 869.766" stroke="#171717" stroke-width="3.106" stroke-linecap="round" stroke-linejoin="round"/>
<path d="M679.46 761.91C677.1 747.947 672.688 734.409 666.367 721.737" stroke="#171717" stroke-width="3.106" stroke-linecap="round" stroke-linejoin="round"/>
<path d="M634.852 758.688L615.852 737.496V761.91L634.852 758.688Z" stroke="#171717" stroke-width="3.106" stroke-linecap="round" stroke-linejoin="round"/>
<path d="M578.582 717.034L569.082 737.496L549.58 714.111L578.582 717.034Z" stroke="#171717" stroke-width="3.106" stroke-linecap="round" stroke-linejoin="round"/>
<path d="M578.581 635.916L571.273 654.919L553.004 641.034L578.581 635.916Z" stroke="#171717" stroke-width="3.106" stroke-linecap="round" stroke-linejoin="round"/>
<path d="M513.055 586.226L481.479 575.656L491.864 599.429L513.055 586.226Z" stroke="#171717" stroke-width="3.106" stroke-linecap="round" stroke-linejoin="round"/>
<path d="M519.506 539L513.056 553.711L497.268 539H519.506Z" stroke="#171717" stroke-width="3.106" stroke-linecap="round" stroke-linejoin="round"/>
<path d="M612.196 798.881L604.849 825.371L586.254 798.881H612.196Z" stroke="#171717" stroke-width="3.106" stroke-linecap="round" stroke-linejoin="round"/>
<path d="M416.705 542.38L398.036 560.577L390.1 530.242L416.705 542.38Z" stroke="#171717" stroke-width="3.106" stroke-linecap="round" stroke-linejoin="round"/>
<path d="M365.916 567.365L369.023 582.534L382.005 573.402L365.916 567.365Z" stroke="#171717" stroke-width="3.106" stroke-linecap="round" stroke-linejoin="round"/>
<path d="M519.505 638.842L513.055 649.804H528.407L519.505 638.842Z" stroke="#171717" stroke-width="3.106" stroke-linecap="round" stroke-linejoin="round"/>
<path d="M608.543 683.355L598.484 697.304L615.851 702.419L608.543 683.355Z" stroke="#171717" stroke-width="3.106" stroke-linecap="round" stroke-linejoin="round"/>
<path d="M549.58 582.534L540.582 595.726H559.582L549.58 582.534Z" stroke="#171717" stroke-width="3.106" stroke-linecap="round" stroke-linejoin="round"/>
<path d="M456.922 530.242V546.356L473.351 538.299L456.922 530.242Z" stroke="#171717" stroke-width="3.106" stroke-linecap="round" stroke-linejoin="round"/>
<path fill-rule="evenodd" clip-rule="evenodd" d="M439.494 302.2L450.209 290.026L421.473 289.037L432.673 303.655C420.457 380.782 382.307 425.588 348.651 450.807C340.021 457.274 330.889 463.041 321.341 468.054C303.524 477.392 290.904 480.508 290.904 480.508C290.904 480.508 272.394 505.354 270.934 506.814L303.565 513.636C309.8 511.801 315.78 509.858 321.506 507.808C330.24 504.671 338.402 501.317 345.99 497.745C347.532 497.024 349.054 496.29 350.555 495.545C481.836 430.437 439.494 302.2 439.494 302.2ZM436.309 359.824C436.377 358.969 435.739 358.22 434.884 358.152C434.029 358.084 433.281 358.722 433.213 359.577C430.688 391.259 418.249 421.34 397.661 445.552C377.072 469.764 349.38 486.876 318.516 494.459C317.683 494.664 317.174 495.505 317.379 496.338C317.583 497.171 318.424 497.68 319.257 497.475C350.755 489.737 379.016 472.273 400.027 447.564C421.038 422.855 433.733 392.156 436.309 359.824Z" fill="url(#paint4_linear_38_4068)"/>
<path fill-rule="evenodd" clip-rule="evenodd" d="M448.09 164.987C458.174 164.131 468.245 163.277 477.871 161.074C484.766 159.585 491.421 157.144 497.644 153.821C500.077 152.496 502.51 150.872 503.752 148.396C504.994 145.92 504.487 142.39 502.033 141.096C500.045 140.061 497.621 140.785 495.521 141.572C489.647 143.747 483.895 146.19 478.263 148.902C478.882 146.437 480.371 144.361 481.87 142.273C482.876 140.871 483.887 139.463 484.64 137.928C486.514 134.108 485.603 128.093 481.389 127.513C479.267 127.213 477.269 128.496 475.55 129.78C470.866 133.277 466.557 137.249 462.692 141.634C464.243 138.145 465.797 134.586 466.243 130.795C466.689 127.004 465.829 122.875 463.117 120.204C462.358 119.41 461.4 118.835 460.343 118.537C457.6 117.854 454.836 119.947 453.469 122.419C452.62 123.953 452.137 125.648 451.654 127.343C451.359 128.38 451.063 129.417 450.684 130.419C447.454 138.908 438.623 144.002 429.834 146.279C425.375 147.434 420.807 148.035 416.237 148.637C411.8 149.22 407.361 149.804 403.021 150.896C394.211 153.112 385.318 158.05 381.902 166.456C379.027 173.521 380.568 181.352 382.061 188.946C382.295 190.132 382.527 191.312 382.741 192.482C385.073 205.276 385.16 218.378 383 231.201C382.399 234.762 382.14 239.41 385.422 240.932C387.451 241.874 389.946 240.922 391.468 239.286C392.659 237.801 393.578 236.12 394.185 234.321C393.346 238.279 396.511 242.797 400.63 243.065C404.699 243.332 408.384 239.332 408.146 235.332L409.181 235.27C408.318 221.012 407.462 206.75 406.614 192.483C406.252 186.437 406.034 179.842 409.668 174.977C413.302 170.112 419.756 168.424 425.756 167.451C433.089 166.259 440.593 165.623 448.09 164.987ZM456.203 129.291C456.436 128.466 455.955 127.608 455.129 127.375C454.304 127.143 453.446 127.623 453.213 128.449C449.191 142.716 434.192 153.105 419.422 151.853C418.568 151.78 417.816 152.414 417.744 153.269C417.671 154.124 418.305 154.875 419.16 154.948C435.414 156.325 451.777 144.992 456.203 129.291Z" fill="#171717"/>
<g opacity="0.1">
<path d="M437.27 164.387C424.246 163.151 413.193 173.109 406.849 183.676C397.358 199.485 402.985 218.326 406.362 235.065C407.662 241.488 408.262 248.006 409.553 254.424C410.444 258.852 411.653 264.098 412.024 267.494C412.287 269.894 412.385 272.294 412.729 274.694C412.941 276.167 413.187 275.641 412.987 276.523C413.252 275.355 412.436 277.183 412.287 277.368C409.724 280.629 403.596 280.934 399.314 280.968C397.651 281.005 396.066 281.682 394.889 282.859C393.713 284.035 393.036 285.621 392.999 287.284C392.645 292.545 385.858 294.393 381.633 294.784C375.806 295.322 370.143 295.356 364.353 296.484C353.904 298.583 343.869 302.38 334.646 307.723C316.159 318.293 300.814 333.814 289.146 351.523C275.928 371.582 267.546 394.723 261.691 417.899C255.631 441.886 251.044 467.091 251.945 491.915C252.464 506.229 256.414 520.488 260.569 534.137C262.547 540.637 265.06 547.083 265.927 553.858C266.867 561.164 266.638 568.573 265.248 575.807C264.02 582.092 273.559 584.819 274.921 578.474C280.121 554.241 273.153 529.26 271.153 505.088C269.027 479.388 271.789 454.607 277.408 429.504C287.062 386.368 305.956 341.382 346.732 319.266C357.337 313.514 368.194 310.571 379.91 308.097C391.91 305.562 404.45 301.436 405.633 287.287L399.316 293.603C405.616 293.654 412.396 293.003 417.826 289.503C421.786 286.953 424.226 282.825 425.881 279.278C430.486 269.423 427.025 259.389 424.928 249.278C423.656 243.145 422.928 236.437 421.304 229.03C419.232 219.582 416.616 209.977 416.43 200.251C416.302 193.573 416.164 186.391 418.898 180.128C420.507 176.499 423.06 173.367 426.292 171.061C429.523 168.755 433.314 167.358 437.269 167.016C437.611 167.007 437.936 166.864 438.174 166.619C438.413 166.374 438.546 166.045 438.546 165.703C438.546 165.361 438.413 165.033 438.174 164.788C437.936 164.543 437.611 164.4 437.269 164.391L437.27 164.387Z" fill="#171717"/>
</g>
<g opacity="0.1">
<path d="M512.408 360.14C527.46 361.652 543.155 356.516 557.448 352.428C571.868 348.305 586.096 343.472 600.171 338.301C628.808 327.793 656.773 315.536 683.908 301.601C699.388 293.643 714.615 285.189 729.344 275.912C739.012 269.824 730.303 254.712 720.354 260.532C687.329 279.86 653.488 297.563 617.991 311.946C600.191 319.157 582.124 325.655 563.791 331.44C554.63 334.33 545.43 337.064 536.227 339.815C527.284 342.489 517.741 345.542 509.801 350.531C505.222 353.409 507.446 359.642 512.401 360.14H512.408Z" fill="#171717"/>
</g>
<g opacity="0.1">
<path d="M432.82 555.918C435.125 560.646 437.694 565.241 440.515 569.682C443.77 574.566 447.146 579.36 450.488 584.182C456.695 593.146 461.881 602.629 467.84 611.746C479.747 629.961 491.047 648.597 501.954 667.426C523.845 705.137 543.165 744.285 559.781 784.6C564.477 796.032 568.954 807.551 573.211 819.157C575.238 824.682 577.214 830.226 579.139 835.788C581.509 842.633 582.639 849.267 589.32 853.178C594.042 855.942 598.745 853.07 600.613 848.578C603.041 842.748 600.713 837.803 598.783 832.195C596.864 826.631 594.894 821.085 592.872 815.557C589.033 805.054 585.012 794.62 580.81 784.257C572.531 763.835 563.603 743.689 554.026 723.819C534.73 683.763 512.459 645.209 487.4 608.482C480.339 598.2 472.367 588.767 464.866 578.835C461.127 573.885 457.392 568.923 453.426 564.152C449.274 559.246 444.748 554.669 439.889 550.464C439.105 549.729 438.086 549.296 437.012 549.245C435.939 549.193 434.883 549.525 434.032 550.181C433.182 550.838 432.593 551.775 432.371 552.827C432.149 553.878 432.309 554.974 432.822 555.918H432.82Z" fill="#171717"/>
</g>
</g>
<defs>
<linearGradient id="paint0_linear_38_4068" x1="504.095" y1="510.44" x2="504.095" y2="855.54" gradientUnits="userSpaceOnUse">
<stop stop-color="#FFB800"/>
<stop offset="1" stop-color="#FF7F0A"/>
</linearGradient>
<linearGradient id="paint1_linear_38_4068" x1="363.173" y1="806.375" x2="363.173" y2="912.184" gradientUnits="userSpaceOnUse">
<stop stop-color="#FFB800"/>
<stop offset="1" stop-color="#FF7F0A"/>
</linearGradient>
<linearGradient id="paint2_linear_38_4068" x1="483.872" y1="321.882" x2="483.872" y2="334.748" gradientUnits="userSpaceOnUse">
<stop stop-color="#FFB800"/>
<stop offset="1" stop-color="#FF7F0A"/>
</linearGradient>
<linearGradient id="paint3_linear_38_4068" x1="338.715" y1="560.808" x2="338.715" y2="599.392" gradientUnits="userSpaceOnUse">
<stop stop-color="#FFB800"/>
<stop offset="1" stop-color="#FF7F0A"/>
</linearGradient>
<linearGradient id="paint4_linear_38_4068" x1="360.571" y1="289.037" x2="360.571" y2="513.636" gradientUnits="userSpaceOnUse">
<stop stop-color="#FFB800"/>
<stop offset="1" stop-color="#FF7F0A"/>
</linearGradient>
<clipPath id="clip0_38_4068">
<rect width="960" height="960" fill="white"/>
</clipPath>
</defs>
</svg>
