<svg width="960" height="960" viewBox="0 0 960 960" fill="none" xmlns="http://www.w3.org/2000/svg">
<g clip-path="url(#clip0_46_7741)">
<g clip-path="url(#clip1_46_7741)">
<path fill-rule="evenodd" clip-rule="evenodd" d="M537.106 786.5L576.924 527.92L576.262 527.831C575.684 531.538 573.024 538.856 561.107 540.108C547.013 541.589 543.931 529.456 543.377 526.374L542.631 526.519L503.44 788.519L502.79 790.709L506.822 791.909L522.879 796.7L538.298 788.847L537.106 786.5ZM562.088 550.379C562.169 549.385 561.43 548.513 560.436 548.432C559.442 548.351 558.57 549.09 558.489 550.084C552.409 624.245 542.245 698.014 528.043 771.056C527.853 772.035 528.492 772.982 529.471 773.173C530.45 773.363 531.397 772.724 531.588 771.745C545.815 698.573 555.997 624.672 562.088 550.379Z" fill="url(#paint0_linear_46_7741)"/>
<path d="M706.377 452.931L719.136 445.794L708.664 504.653C698.89 504.135 691.379 544.542 691.102 563.464L691.114 563.524C681.811 565.635 672.821 568.945 664.369 573.37C660.927 575.188 657.496 577.246 655.053 580.279C652.61 583.312 651.333 587.537 652.669 591.197C654.005 594.857 659.494 597.889 663.069 596.324L663.129 596.433C662.852 596.577 662.588 596.746 662.311 596.902C657.219 599.959 651.827 604.63 652.453 610.528C653.043 616.016 660.505 619.615 665.38 617.039L665.416 617.1C663.888 617.978 662.383 618.881 660.878 619.8C658.76 621.088 656.578 622.5 655.305 624.626C654.032 626.752 653.957 629.838 655.823 631.487C657.58 633.04 660.24 632.799 662.539 632.387C670.432 631.109 678.189 629.103 685.71 626.393L686.01 627.199L675.767 687.286L669.857 721.928L538.3 788.851L537.108 786.504L576.923 527.92L576.261 527.82C576.375 527.104 576.423 526.379 576.405 525.654L706.377 452.931Z" fill="url(#paint1_linear_46_7741)"/>
<path d="M635.638 394.168C636.814 394.335 638.002 394.399 639.188 394.361L639.236 395.661C638.442 400.961 636.42 408.829 631.328 411.2C628.115 412.693 624.328 412.187 620.796 411.646C615.97 410.913 611.14 410.175 606.304 409.431C603.078 408.949 599.504 408.251 597.638 405.724C595.7 403.088 597.18 399.681 597.891 396.524C598.545 393.819 599.336 391.149 600.262 388.524C603.16 389.571 606.176 390.254 609.241 390.558L635.638 394.168Z" fill="url(#paint2_linear_46_7741)"/>
<path d="M596.279 374.729C598.079 376.065 600.84 376.511 604.644 376.823C616.982 377.847 629.428 378.223 641.801 378.923C643.412 379.064 645.034 379.036 646.64 378.839L649.962 378.923C651.202 385.923 649.625 392.5 644.534 393.692C642.781 394.107 640.989 394.333 639.189 394.366C638.002 394.404 636.814 394.34 635.639 394.173L609.239 390.562C606.173 390.258 603.157 389.575 600.26 388.529C598.873 387.98 597.589 387.202 596.46 386.228C593.09 383.279 592.332 377.31 596.171 374.878L596.279 374.729Z" fill="url(#paint3_linear_46_7741)"/>
<path d="M332.963 890.488C327.127 885.987 322.645 879.964 320.01 873.08C317.376 866.197 316.691 858.72 318.031 851.472C319.371 844.225 322.684 837.487 327.606 832.001C332.528 826.514 338.867 822.492 345.927 820.375C348.238 820.275 350.549 820.23 352.812 820.206C378.245 819.881 403.674 819.56 429.1 819.243C437.357 819.135 446.541 820.194 454.389 817.101L454.474 817.301C463.465 814.124 474.659 816.459 483.53 821.55L483.265 822.02C471.59 826.762 458.865 827.232 446.144 826.69C441.244 826.49 436.344 826.124 431.508 825.811C427.957 825.571 424.358 825.378 420.759 825.294C410.759 825.017 400.706 825.547 391.401 828.351C387.575 829.482 383.892 831.049 380.424 833.021C371.216 838.305 363.416 848.513 365.799 858.852C367.786 867.47 376.031 873.116 384.131 876.666C387.581 878.172 391.118 879.466 394.724 880.542C403.893 883.233 413.364 884.762 422.914 885.092C429.941 885.376 436.98 885.17 443.978 884.478C448.191 884.069 452.391 883.515 456.568 882.841C472.432 880.289 488.044 876.041 503.568 871.816L504.339 871.936C502.848 880.743 499.972 889.258 495.817 897.165L496.217 899.825C485.999 901.379 475.751 902.715 465.475 903.833C430.424 907.697 394.591 909.322 360.214 901.45C350.657 899.259 340.992 896.15 332.458 891.411L332.963 890.488Z" fill="url(#paint4_linear_46_7741)"/>
<path d="M417.847 286.007C421.588 282.546 426.038 279.94 430.887 278.371C435.736 276.801 440.869 276.306 445.929 276.919C447.999 277.184 450.274 277.786 451.381 279.567C451.818 280.383 452.033 281.3 452.004 282.225C451.974 283.151 451.701 284.052 451.213 284.839C450.216 286.397 448.903 287.73 447.361 288.751C443.177 291.873 438.615 294.454 433.784 296.431C439.484 295.01 446.266 295.552 451.959 296.996C454.607 297.658 457.568 299.079 458.049 301.763C458.555 304.64 455.895 307.063 453.343 308.479C444.279 313.535 433.743 314.124 423.251 312.979C418.544 312.437 413.868 311.658 409.241 310.644C394.508 307.526 379.141 303.578 364.669 307.731C359.048 309.344 353.427 312.522 351.031 317.854C349.418 321.465 349.479 325.581 349.575 329.541C349.804 339.014 350.037 348.483 350.275 357.948H350.058C347.747 360.042 346.628 363.1 345.376 365.964C344.124 368.828 342.463 371.778 339.623 373.09C338.919 373.47 338.126 373.653 337.327 373.619C336.528 373.585 335.753 373.336 335.085 372.898C333.652 371.766 333.496 369.672 333.604 367.842C333.784 365.003 334.314 362.198 335.181 359.489C334.464 360.519 333.576 361.418 332.557 362.149C329.668 364.171 324.938 363.906 323.385 360.749C322.085 358.088 323.566 354.983 324.938 352.359C330.595 341.49 334.724 329.659 335.538 317.441C335.815 313.264 335.707 309.051 336.405 304.934C337.103 300.817 338.705 296.665 341.805 293.861C345.305 290.707 350.219 289.672 354.925 289.287C362.785 288.649 370.681 289.487 378.565 289.178C386.449 288.869 394.598 287.253 400.809 282.39C406.262 278.129 409.957 271.581 416.24 268.68C418.804 267.488 422.499 267.356 423.835 269.848C424.405 271.215 424.461 272.743 423.992 274.148C422.924 278.526 420.748 282.555 417.672 285.848L417.847 286.007Z" fill="#171717"/>
<path d="M401.301 635.383C399.134 630.015 392.839 630.051 387.145 631.122L387.121 631.05C388.409 630.617 389.697 630.159 390.985 629.69C393.657 628.715 396.385 627.656 398.496 625.742C400.607 623.828 401.975 620.831 401.216 618.087C400.41 615.234 397.521 613.38 394.596 612.911C391.671 612.442 388.696 613.103 385.809 613.753C376.421 615.86 367.02 618.448 357.632 620.674L357.619 620.602C357.944 618.802 358.209 617.027 358.438 615.27H358.474L373.339 484.022L384.678 486.803L543.278 525.657C543.278 525.657 543.302 525.91 543.386 526.367L542.64 526.512L503.449 788.512L502.799 790.702L343.599 743.17L345.212 728.641L350.4 681.71L350.351 681.133C362.888 680.156 375.243 677.538 387.099 673.345C391.083 671.913 395.08 670.191 398.099 667.245C401.118 664.299 402.986 659.819 401.818 655.762C400.65 651.705 394.918 648.262 391.081 650.033L391.033 649.901C393.82 648.929 396.38 647.398 398.556 645.401C401.164 642.822 402.657 638.79 401.301 635.383Z" fill="url(#paint5_linear_46_7741)"/>
<path d="M183.576 701.007C198.141 710.191 216.304 711.154 233.54 711.154C243.772 711.154 254.268 710.817 264.848 710.191L264.86 710.312C337.79 726.958 338.922 727.103 344.025 728.512L345.205 728.644L343.592 743.173L502.792 790.705L506.824 791.905L506.724 792.23C493.772 797.33 464.006 812.187 456.808 816.003C456.025 816.419 455.217 816.786 454.388 817.103C446.54 820.196 437.356 819.137 429.099 819.245C403.666 819.57 378.237 819.891 352.811 820.208C350.548 820.232 348.237 820.281 345.926 820.377C335.069 820.834 324.055 822.495 316.075 829.561C310.237 834.725 307.288 842.007 306.775 849.71L305.932 849.662C262.046 849.867 220.989 843.728 178.68 832.04C160.529 827.021 141.162 819.775 131.545 803.586C123.974 790.815 124.07 774.854 127.019 760.302C131.003 740.586 140.777 721.255 157.496 710.049C176.225 697.506 182.596 700.479 182.596 700.479L182.644 700.395C182.95 700.61 183.263 700.8 183.576 701.007Z" fill="#171717"/>
<path d="M396.701 430.29C391.356 424.633 394.201 411.39 399.457 405.651C404.713 399.912 413.588 398.225 417.729 391.629C421.917 384.972 420.666 374.368 421.015 366.52C421.797 348.742 422.535 330.968 423.229 313.198" stroke="#171717" stroke-width="3.611" stroke-linecap="round" stroke-linejoin="round"/>
<path d="M409.939 337.656C407.097 336.826 404.261 335.996 401.429 335.165" stroke="#171717" stroke-width="3.611" stroke-linecap="round" stroke-linejoin="round"/>
<path d="M412.429 321.684C405.319 320.046 397.948 319.89 390.776 321.226C389.891 337.009 392.154 352.811 397.432 367.712C396.344 368.811 394.956 369.564 393.442 369.876C391.928 370.189 390.356 370.047 388.922 369.469" stroke="#171717" stroke-width="3.611" stroke-linecap="round" stroke-linejoin="round"/>
<path d="M379.281 333.637C375.403 332.469 371.267 332.469 367.389 333.637" stroke="#171717" stroke-width="3.611" stroke-linecap="round" stroke-linejoin="round"/>
<path d="M381.832 393.901C376.559 394.035 371.413 392.271 367.332 388.929" stroke="#171717" stroke-width="3.611" stroke-linecap="round" stroke-linejoin="round"/>
<path d="M279.087 535.9C261.66 546.992 248.069 563.18 240.161 582.265C235.382 593.845 233.733 609.216 243.471 617.1C249.284 621.806 257.385 622.227 264.871 622.239C285.362 622.287 305.831 620.94 326.138 618.207C326.238 620.35 326.33 622.48 326.438 624.623C327.317 643.713 328.2 662.807 329.087 681.905C329.413 689.043 329.742 696.181 330.074 703.318" stroke="#171717" stroke-width="3.611" stroke-linecap="round" stroke-linejoin="round"/>
<path d="M330.076 703.318C309.076 706.412 286.792 708.903 264.849 710.191C254.269 710.817 243.773 711.154 233.541 711.154C216.305 711.154 198.141 710.191 183.577 701.007C183.264 700.807 182.951 700.607 182.638 700.393C168.218 690.848 159.672 674.493 153.967 658.108C144.133 629.919 140.907 598.888 148.539 570.024C159.001 530.435 189.451 497.912 225.91 479.28C259.059 462.332 296.746 455.989 334.072 456.193C337.805 456.205 341.528 456.286 345.242 456.434" stroke="#171717" stroke-width="3.611" stroke-linecap="round" stroke-linejoin="round"/>
<path d="M334.071 455.592C332.819 451.753 331.543 447.829 331.627 443.785C331.711 439.741 333.421 435.514 336.899 433.456C339.511 431.915 342.677 431.796 345.699 431.712C347.818 431.652 349.948 431.602 352.067 431.542L396.699 430.352C398.624 430.303 400.562 430.243 402.488 430.195C409.012 430.027 415.873 429.93 421.626 433.024C427.379 436.118 429.908 443.05 426.838 448.804" stroke="#171717" stroke-width="3.611" stroke-linecap="round" stroke-linejoin="round"/>
<path d="M414.331 449.826C418.472 449.549 422.644 449.304 426.849 449.092C495.374 445.649 572.096 450.861 636.444 471.564" stroke="#171717" stroke-width="3.611" stroke-linecap="round" stroke-linejoin="round"/>
<path d="M358.036 619.122L358.469 615.27L373.334 484.022L384.673 486.803L543.273 525.657C543.273 525.657 543.297 525.91 543.381 526.367C543.935 529.448 547.017 541.581 561.111 540.101C573.028 538.849 575.688 531.531 576.266 527.823C576.38 527.107 576.428 526.382 576.41 525.657L706.382 452.931L719.141 445.794L708.669 504.653" stroke="#171717" stroke-width="3.611" stroke-linecap="round" stroke-linejoin="round"/>
<path d="M686.011 627.198L675.768 687.285L669.858 721.927L538.297 788.851L522.878 796.699L506.821 791.908L502.789 790.704L343.592 743.172L345.205 728.643L350.392 681.712" stroke="#171717" stroke-width="3.611" stroke-linecap="round" stroke-linejoin="round"/>
<path d="M542.63 526.513L503.439 788.515" stroke="#171717" stroke-width="3.611" stroke-linecap="round" stroke-linejoin="round"/>
<path d="M577.044 527.15L576.923 527.92L537.105 786.504" stroke="#171717" stroke-width="3.611" stroke-linecap="round" stroke-linejoin="round"/>
<path d="M383.951 487.212L384.673 486.803L397.131 479.773L553.463 518.014L636.745 472.106L686.011 444.939L706.377 452.931L706.967 453.16" stroke="#171717" stroke-width="3.611" stroke-linecap="round" stroke-linejoin="round"/>
<path d="M691.101 563.464C691.378 544.543 698.889 504.135 708.663 504.653C716.595 505.553 713.285 520.409 712.045 528.907C709.645 545.361 712.78 562.092 712.503 578.715C712.226 595.338 707.435 613.452 693.726 622.853" stroke="#171717" stroke-width="3.611" stroke-linecap="round" stroke-linejoin="round"/>
<path d="M693.728 622.853C691.128 624.191 688.451 625.373 685.711 626.392C678.189 629.102 670.432 631.108 662.541 632.386C660.241 632.795 657.581 633.036 655.824 631.486C653.958 629.837 654.024 626.768 655.306 624.625C656.588 622.482 658.761 621.087 660.879 619.799C662.379 618.884 663.889 617.981 665.417 617.099C676.078 610.923 687.22 605.618 698.735 601.235" stroke="#171717" stroke-width="3.611" stroke-linecap="round" stroke-linejoin="round"/>
<path d="M665.476 616.991C665.44 617.003 665.416 617.027 665.376 617.039C660.501 619.615 653.039 616.016 652.449 610.527C651.823 604.627 657.215 599.959 662.307 596.902C662.584 596.745 662.848 596.577 663.125 596.433C674.352 589.835 686.734 585.44 699.608 583.481" stroke="#171717" stroke-width="3.611" stroke-linecap="round" stroke-linejoin="round"/>
<path d="M663.069 596.324C659.494 597.889 653.993 594.856 652.669 591.197C651.345 587.538 652.621 583.313 655.053 580.279C657.485 577.245 660.927 575.188 664.369 573.37C672.821 568.945 681.811 565.635 691.114 563.524C695.04 562.624 699.012 561.945 703.014 561.49" stroke="#171717" stroke-width="3.611" stroke-linecap="round" stroke-linejoin="round"/>
<path d="M357.614 620.6C357.939 618.8 358.204 617.025 358.433 615.268C359.107 609.984 359.384 604.82 359.613 599.175C359.697 597.02 360.299 594.625 358.951 592.94C357.169 590.725 353.426 591.279 351.351 593.229C349.276 595.179 348.378 598.029 347.319 600.679C343.217 610.761 335.868 619.187 326.436 624.62C326.315 624.693 326.195 624.753 326.074 624.825" stroke="#171717" stroke-width="3.611" stroke-linecap="round" stroke-linejoin="round"/>
<path d="M353.8 621.566C355.076 621.277 356.352 620.976 357.628 620.675C367.016 618.449 376.417 615.861 385.805 613.754C388.694 613.104 391.667 612.442 394.592 612.912C397.517 613.382 400.406 615.235 401.212 618.088C401.971 620.832 400.598 623.817 398.492 625.743C396.386 627.669 393.653 628.716 390.981 629.691C389.693 630.16 388.405 630.618 387.117 631.051C374.655 635.366 361.889 638.746 348.925 641.162" stroke="#171717" stroke-width="3.611" stroke-linecap="round" stroke-linejoin="round"/>
<path d="M387.14 631.122C392.834 630.051 399.129 630.015 401.296 635.383C402.656 638.79 401.163 642.822 398.551 645.398C396.376 647.395 393.816 648.926 391.028 649.898C390.354 650.175 389.668 650.428 388.994 650.681C376.577 655.24 363.715 658.483 350.621 660.358" stroke="#171717" stroke-width="3.611" stroke-linecap="round" stroke-linejoin="round"/>
<path d="M391.076 650.032C394.916 648.262 400.658 651.705 401.813 655.761C402.968 659.817 401.113 664.283 398.094 667.244C395.075 670.205 391.076 671.914 387.094 673.344C375.238 677.536 362.883 680.154 350.346 681.132C343.389 681.745 336.36 681.962 329.258 681.89" stroke="#171717" stroke-width="3.611" stroke-linecap="round" stroke-linejoin="round"/>
<path d="M676.442 687.407C693.064 679.968 705.462 675.201 723.662 675.671C741.862 676.141 760.987 685.89 767.15 703.018C773.337 720.207 765.224 739.128 755.535 754.607C734.122 788.779 704.319 816.993 670.363 838.96C664.321 842.872 658.158 846.579 651.875 850.082C649.022 851.682 646.145 853.224 643.257 854.728C638.334 857.316 633.358 859.771 628.331 862.095C623.565 864.309 618.762 866.42 613.923 868.426C605.437 871.941 596.843 875.167 588.141 878.104C583.208 879.777 578.241 881.366 573.241 882.87C563.985 885.65 554.652 888.154 545.241 890.381C529.064 894.233 512.682 897.338 496.216 899.83C485.997 901.382 475.75 902.718 465.474 903.838C430.423 907.702 394.59 909.327 360.213 901.455C350.656 899.264 340.991 896.155 332.457 891.416C325.776 887.827 319.889 882.926 315.148 877.008C309.171 869.207 306.198 859.518 306.771 849.708C307.288 842.008 310.237 834.722 316.071 829.559C324.051 822.493 335.065 820.832 345.922 820.375C348.233 820.275 350.544 820.23 352.807 820.206C378.24 819.88 403.669 819.559 429.095 819.243C437.352 819.135 446.536 820.194 454.384 817.101C455.212 816.784 456.021 816.417 456.804 816.001C464.004 812.186 493.768 797.333 506.72 792.229" stroke="#171717" stroke-width="3.611" stroke-linecap="round" stroke-linejoin="round"/>
<path d="M182.589 700.478C182.589 700.478 176.222 697.505 157.489 710.047C140.774 721.253 131 740.584 127.016 760.3C124.067 774.852 123.971 790.813 131.542 803.584C141.159 819.773 160.526 827.019 178.677 832.038C220.986 843.726 262.043 849.865 305.929 849.66" stroke="#171717" stroke-width="3.611" stroke-linecap="round" stroke-linejoin="round"/>
<path d="M344.025 728.512C338.925 727.104 337.79 726.959 264.86 710.312" stroke="#171717" stroke-width="3.611" stroke-linecap="round" stroke-linejoin="round"/>
<path d="M545.388 891.006C565.766 903.606 587.143 911.348 610.65 915.982C615.14 916.873 619.702 917.595 624.276 918.076C636.686 919.388 649.252 918.931 661.048 915.055C677.189 909.755 691.633 897.072 695.437 880.51C698.831 865.729 689.743 848.31 676.046 841.704C674.407 840.906 672.694 840.273 670.93 839.814" stroke="#171717" stroke-width="3.611" stroke-linecap="round" stroke-linejoin="round"/>
<path d="M352.067 431.627V431.543C351.467 407.009 350.869 382.479 350.273 357.951C350.032 348.478 349.799 339.009 349.573 329.544C349.473 325.584 349.417 321.468 351.029 317.857C353.429 312.525 359.046 309.347 364.667 307.734C379.135 303.581 394.506 307.534 409.239 310.647C413.866 311.66 418.542 312.44 423.249 312.982C433.749 314.126 444.278 313.536 453.341 308.482C455.893 307.062 458.553 304.643 458.047 301.766C457.566 299.082 454.605 297.666 451.957 296.999C446.264 295.555 439.487 295.013 433.782 296.434" stroke="#171717" stroke-width="3.611" stroke-linecap="round" stroke-linejoin="round"/>
<path d="M433.784 296.431C438.615 294.454 443.177 291.873 447.361 288.751C448.904 287.73 450.216 286.398 451.213 284.839C451.701 284.053 451.974 283.151 452.004 282.226C452.033 281.3 451.818 280.383 451.381 279.567C450.274 277.786 447.999 277.184 445.929 276.919C440.869 276.306 435.736 276.801 430.887 278.371C426.038 279.94 421.588 282.546 417.847 286.007C418.232 285.67 418.617 285.345 419.015 285.02" stroke="#171717" stroke-width="3.611" stroke-linecap="round" stroke-linejoin="round"/>
<path d="M335.179 359.479C336.418 357.592 337.435 355.568 338.212 353.448" stroke="#171717" stroke-width="3.611" stroke-linecap="round" stroke-linejoin="round"/>
<path d="M417.22 286.345C417.377 286.176 417.533 286.02 417.677 285.851C420.754 282.558 422.93 278.529 423.997 274.151C424.467 272.746 424.411 271.218 423.84 269.851C422.504 267.359 418.809 267.491 416.245 268.683C409.962 271.583 406.267 278.132 400.814 282.393C394.603 287.256 386.442 288.869 378.57 289.182C370.698 289.495 362.79 288.652 354.93 289.29C350.224 289.675 345.313 290.71 341.81 293.864C338.705 296.664 337.104 300.809 336.41 304.938C335.716 309.067 335.82 313.267 335.543 317.444C334.725 329.661 330.596 341.493 324.943 352.362C323.571 354.986 322.09 358.091 323.39 360.752C324.943 363.905 329.673 364.17 332.562 362.152C333.582 361.421 334.47 360.522 335.186 359.492" stroke="#171717" stroke-width="3.611" stroke-linecap="round" stroke-linejoin="round"/>
<path d="M337.801 353.4C336.735 355.339 335.856 357.374 335.177 359.479V359.491C334.31 362.2 333.78 365.006 333.6 367.844C333.492 369.674 333.649 371.768 335.081 372.9C335.749 373.338 336.524 373.588 337.323 373.621C338.122 373.655 338.915 373.472 339.619 373.092C342.459 371.78 344.119 368.819 345.372 365.966C346.625 363.113 347.743 360.044 350.054 357.95" stroke="#171717" stroke-width="3.611" stroke-linecap="round" stroke-linejoin="round"/>
<path d="M600.262 388.523C599.336 391.148 598.545 393.818 597.891 396.523C597.18 399.676 595.7 403.083 597.638 405.723C599.503 408.25 603.078 408.948 606.304 409.43C611.131 410.176 615.962 410.915 620.796 411.645C624.323 412.186 628.115 412.692 631.328 411.199C636.42 408.828 638.442 400.956 639.236 395.66" stroke="#171717" stroke-width="3.611" stroke-linecap="round" stroke-linejoin="round"/>
<path d="M596.17 374.874C592.331 377.305 593.089 383.274 596.459 386.224C597.588 387.198 598.872 387.975 600.259 388.524C603.156 389.571 606.172 390.254 609.238 390.558L635.638 394.169C636.814 394.335 638.002 394.4 639.189 394.362C640.989 394.329 642.781 394.103 644.534 393.688C649.625 392.496 651.202 385.924 649.962 378.919" stroke="#171717" stroke-width="3.611" stroke-linecap="round" stroke-linejoin="round"/>
<path d="M596.278 374.729C598.078 376.065 600.839 376.511 604.643 376.823C616.981 377.847 629.427 378.223 641.8 378.923C643.412 379.064 645.034 379.035 646.639 378.839C647.42 378.722 648.181 378.499 648.902 378.177C651.574 376.809 653.668 374.529 654.802 371.749C661.602 356.787 661.202 354.705 680.211 338.684C743.392 285.41 718.295 236.036 675.421 229.536C643.283 224.661 568.066 240.092 590.237 304.187C605.909 349.493 593.644 359.135 593.656 367.524C593.654 371.251 594.508 373.429 596.278 374.729Z" stroke="#171717" stroke-width="3.611" stroke-linecap="round" stroke-linejoin="round"/>
<path d="M637.66 371.419C645.772 353.508 653.886 335.594 662 317.675C662.915 315.665 663.974 313.499 666.02 312.487C667.982 311.525 670.341 311.862 672.544 311.717C674.657 311.565 676.713 310.966 678.576 309.959C680.439 308.953 682.068 307.562 683.353 305.879C684.452 304.516 685.214 302.913 685.576 301.2C685.938 299.486 685.889 297.712 685.435 296.021C684.875 294.313 683.788 292.827 682.33 291.776C680.873 290.725 679.119 290.163 677.322 290.171C673.663 290.328 670.329 293.758 671.003 297.165C671.156 298.045 671.585 298.854 672.227 299.475C672.87 300.096 673.693 300.496 674.578 300.619C676.408 300.764 678.261 298.994 677.708 297.345" stroke="#171717" stroke-width="3.611" stroke-linecap="round" stroke-linejoin="round"/>
<path d="M606.942 371.13C614.057 346.884 619.209 322.104 622.349 297.03C618.678 296.802 616.439 291.975 618.738 289.243C621.037 286.511 626.526 287.473 627.585 290.819" stroke="#171717" stroke-width="3.611" stroke-linecap="round" stroke-linejoin="round"/>
<path d="M633.869 292.508C633.111 295.926 636.228 299.248 639.791 300.127C643.354 301.006 647.146 300.067 650.636 298.911C654.126 297.755 657.642 296.359 661.325 296.347" stroke="#171717" stroke-width="3.611" stroke-linecap="round" stroke-linejoin="round"/>
<path d="M448.455 218.049C456.171 219.949 464.464 218.001 471.373 214.077C478.463 210.044 484.445 203.821 487.406 196.226C494.134 178.894 479.406 154.688 459.529 156.999C441.017 159.165 424.719 179.868 429.618 198.199C432.073 207.384 439.006 215.714 448.455 218.049Z" stroke="#171717" stroke-width="3.611" stroke-linecap="round" stroke-linejoin="round"/>
<path d="M450.152 149.066C442.605 151.862 436.055 156.829 431.327 163.341C429.081 159.51 425.852 156.347 421.975 154.181L410.708 168.553L422.119 178.23" stroke="#171717" stroke-width="3.611" stroke-linecap="round" stroke-linejoin="round"/>
<path d="M419.086 184.128C419.17 188.835 419.254 193.542 419.339 198.247C419.438 199.398 419.302 200.557 418.939 201.654C417.507 205.169 412.259 205.445 410.213 208.647C412.608 212.366 415.004 216.09 417.399 219.817C417.76 220.371 418.181 220.985 418.831 221.105C419.488 221.122 420.126 220.885 420.612 220.443C423.525 218.361 426.434 216.275 429.339 214.184" stroke="#171717" stroke-width="3.611" stroke-linecap="round" stroke-linejoin="round"/>
<path d="M433.277 219.781C436.45 222.588 440.257 224.583 444.37 225.595C448.483 226.608 452.78 226.608 456.893 225.595C457.362 230.121 457.844 234.658 458.313 239.184C465.199 237.94 472 236.27 478.679 234.184C476.813 230.584 474.946 226.984 473.079 223.384C473.206 223.429 473.341 223.448 473.476 223.439C473.61 223.43 473.742 223.394 473.862 223.334C473.982 223.273 474.089 223.189 474.176 223.086C474.263 222.983 474.328 222.863 474.367 222.734" stroke="#171717" stroke-width="3.611" stroke-linecap="round" stroke-linejoin="round"/>
<path d="M479.39 217.783C483.081 216.153 486.387 213.764 489.094 210.771C491.801 207.779 493.848 204.25 495.101 200.414C495.631 198.777 496.112 196.935 497.533 195.973C500.253 194.143 504.117 196.779 507.126 195.491C506.859 188.486 506.594 181.476 506.332 174.463C502.937 175.463 499.555 176.463 496.161 177.472" stroke="#171717" stroke-width="3.611" stroke-linecap="round" stroke-linejoin="round"/>
<path d="M492.39 171.406C491.815 167.628 490.269 164.064 487.902 161.063C485.536 158.063 482.43 155.729 478.89 154.29C479.19 150.209 479.504 146.129 479.805 142.048L467.185 140.5C466.22 140.295 465.219 140.353 464.285 140.668C463.697 140.986 463.206 141.457 462.865 142.031C462.524 142.606 462.345 143.262 462.348 143.93C462.372 145.268 462.641 146.589 463.142 147.83" stroke="#171717" stroke-width="3.611" stroke-linecap="round" stroke-linejoin="round"/>
<path d="M454.475 817.305C463.466 814.128 474.66 816.463 483.531 821.554C486.27 823.105 488.815 824.976 491.114 827.127C500.25 835.746 504.86 848.493 505.114 861.047C505.177 864.694 504.919 868.339 504.343 871.94C502.852 880.747 499.977 889.262 495.822 897.169" stroke="#171717" stroke-width="3.611" stroke-linecap="round" stroke-linejoin="round"/>
<path d="M483.266 822.024C471.591 826.766 458.866 827.236 446.145 826.694C441.245 826.494 436.345 826.128 431.509 825.815C427.958 825.575 424.359 825.382 420.76 825.298C410.76 825.021 400.707 825.551 391.402 828.355C387.576 829.486 383.893 831.053 380.425 833.025C371.217 838.309 363.417 848.517 365.8 858.856C367.786 867.474 376.032 873.12 384.132 876.67C387.581 878.176 391.118 879.47 394.725 880.546C403.893 883.237 413.364 884.766 422.914 885.096C429.941 885.38 436.98 885.175 443.979 884.482C448.191 884.073 452.392 883.519 456.569 882.845C472.433 880.293 488.045 876.045 503.569 871.82" stroke="#171717" stroke-width="3.611" stroke-miterlimit="10" stroke-linecap="round"/>
<path d="M573.444 883.543C577.755 885.451 582.16 887.134 586.644 888.587C594.428 891.104 602.408 892.968 610.501 894.16C614.112 894.701 617.747 895.11 621.382 895.399C626.595 895.885 631.843 895.877 637.054 895.375C640.821 894.997 644.523 894.131 648.067 892.799C656.481 889.574 663.92 882.677 665.725 873.842C667.53 865.007 662.198 854.715 653.388 852.826" stroke="#171717" stroke-width="3.611" stroke-miterlimit="10" stroke-linecap="round"/>
<path d="M456.556 882.785C459.739 873.472 460.45 863.493 458.619 853.823C456.787 844.153 452.476 835.125 446.108 827.621" stroke="#171717" stroke-width="3.611" stroke-miterlimit="10" stroke-linecap="round"/>
<path d="M422.974 883.808C432.735 866.644 431.809 843.943 420.688 827.621" stroke="#171717" stroke-width="3.611" stroke-miterlimit="10" stroke-linecap="round"/>
<path d="M394.748 880.474C398.597 872.307 400.323 863.301 399.768 854.29C399.212 845.279 396.393 836.553 391.57 828.921" stroke="#171717" stroke-width="3.611" stroke-miterlimit="10" stroke-linecap="round"/>
<path d="M643.5 853.9C643.416 854.177 643.344 854.454 643.26 854.73C639.576 867.557 637.446 880.78 636.916 894.114" stroke="#171717" stroke-width="3.611" stroke-miterlimit="10" stroke-linecap="round"/>
<path d="M610.518 894.1C611.686 885.615 612.849 877.125 614.009 868.631" stroke="#171717" stroke-width="3.611" stroke-miterlimit="10" stroke-linecap="round"/>
<path d="M586.877 887.889C586.705 884.956 587.291 882.029 588.577 879.389" stroke="#171717" stroke-width="3.611" stroke-miterlimit="10" stroke-linecap="round"/>
<path d="M346.1 820.327C346.04 820.339 345.992 820.363 345.932 820.375C338.872 822.492 332.533 826.514 327.611 832.001C322.689 837.487 319.376 844.225 318.036 851.472C316.696 858.72 317.381 866.196 320.015 873.08C322.65 879.964 327.132 885.987 332.968 890.488C333.281 890.729 333.594 890.97 333.919 891.199" stroke="#171717" stroke-width="3.611" stroke-miterlimit="10" stroke-linecap="round"/>
<path d="M624.228 918.558C638.202 920.243 652.466 921.558 666.26 918.751C680.054 915.944 693.501 908.4 700.336 896.1C703.14 891.047 704.731 885.411 704.981 879.638C705.232 873.865 704.136 868.112 701.779 862.835C699.423 857.559 695.871 852.903 691.405 849.236C686.938 845.569 681.68 842.991 676.046 841.707C675.925 841.671 675.805 841.647 675.684 841.623" stroke="#171717" stroke-width="3.611" stroke-miterlimit="10" stroke-linecap="round"/>
<path d="M407.326 549.165L500.213 571.252" stroke="#171717" stroke-width="3.611" stroke-linecap="round" stroke-linejoin="round"/>
<path d="M423.179 572.396L482.087 587.682" stroke="#171717" stroke-width="3.611" stroke-linecap="round" stroke-linejoin="round"/>
<path d="M548.925 556.531L523.444 745.158" stroke="#171717" stroke-width="3.611" stroke-linecap="round" stroke-linejoin="round"/>
<path d="M276.008 362.301L287.423 358.639C287.594 358.584 287.778 358.583 287.95 358.635C288.122 358.688 288.274 358.793 288.385 358.934C288.495 359.076 288.56 359.248 288.57 359.428C288.58 359.608 288.534 359.786 288.439 359.939L282.147 370.139C282.056 370.287 282.011 370.458 282.017 370.632C282.023 370.805 282.081 370.973 282.182 371.114L289.191 380.839C289.296 380.984 289.353 381.159 289.356 381.338C289.359 381.517 289.306 381.693 289.206 381.842C289.106 381.991 288.963 382.105 288.796 382.17C288.629 382.235 288.446 382.248 288.271 382.206L276.623 379.375C276.454 379.334 276.277 379.344 276.114 379.403C275.951 379.463 275.81 379.57 275.707 379.71L268.625 389.381C268.519 389.526 268.371 389.634 268.202 389.693C268.032 389.751 267.848 389.756 267.676 389.707C267.503 389.657 267.35 389.556 267.236 389.417C267.123 389.278 267.055 389.108 267.041 388.929L266.135 376.976C266.122 376.803 266.058 376.638 265.952 376.501C265.845 376.364 265.7 376.262 265.535 376.208L254.148 372.461C253.978 372.405 253.829 372.298 253.721 372.154C253.613 372.011 253.552 371.838 253.545 371.658C253.539 371.479 253.588 371.302 253.685 371.151C253.782 371 253.923 370.883 254.089 370.815L265.176 366.259C265.337 366.193 265.474 366.081 265.571 365.937C265.668 365.793 265.72 365.623 265.72 365.45L265.765 353.463C265.766 353.283 265.822 353.108 265.925 352.962C266.028 352.815 266.174 352.703 266.342 352.641C266.511 352.58 266.694 352.571 266.868 352.617C267.041 352.662 267.197 352.76 267.313 352.897L275.071 362.034C275.184 362.165 275.333 362.26 275.5 362.308C275.666 362.355 275.843 362.353 276.008 362.301V362.301Z" stroke="#171717" stroke-width="3.611" stroke-miterlimit="10"/>
<path d="M693.321 165.491L710.566 169.234C710.823 169.291 711.057 169.425 711.236 169.619C711.414 169.812 711.53 170.056 711.567 170.317C711.603 170.578 711.56 170.843 711.441 171.079C711.323 171.314 711.135 171.508 710.904 171.634L695.367 180.001C695.142 180.122 694.958 180.307 694.838 180.533C694.718 180.758 694.668 181.015 694.694 181.269L696.462 198.827C696.488 199.09 696.433 199.354 696.305 199.585C696.176 199.816 695.98 200.002 695.742 200.118C695.505 200.234 695.237 200.274 694.976 200.234C694.715 200.193 694.473 200.073 694.282 199.891L681.524 187.701C681.338 187.525 681.105 187.407 680.854 187.363C680.602 187.319 680.343 187.35 680.109 187.452L663.957 194.56C663.715 194.666 663.446 194.695 663.187 194.644C662.928 194.593 662.69 194.464 662.507 194.274C662.323 194.084 662.202 193.842 662.16 193.581C662.118 193.32 662.156 193.053 662.271 192.815L669.923 176.915C670.033 176.684 670.072 176.427 670.037 176.174C670.001 175.921 669.892 175.684 669.723 175.493L657.971 162.328C657.794 162.131 657.683 161.884 657.651 161.622C657.619 161.359 657.669 161.093 657.793 160.86C657.917 160.626 658.109 160.436 658.345 160.315C658.58 160.195 658.847 160.149 659.109 160.185L676.597 162.548C676.85 162.582 677.108 162.541 677.337 162.428C677.567 162.316 677.758 162.139 677.887 161.918L686.776 146.674C686.909 146.446 687.109 146.264 687.348 146.152C687.588 146.041 687.856 146.006 688.116 146.052C688.377 146.098 688.617 146.222 688.804 146.408C688.992 146.595 689.117 146.834 689.165 147.094L692.323 164.456C692.368 164.708 692.487 164.94 692.665 165.125C692.842 165.309 693.071 165.436 693.321 165.491Z" stroke="#171717" stroke-width="3.611" stroke-miterlimit="10"/>
<path d="M738.684 441.545L835.544 355.73" stroke="#171717" stroke-width="3.611" stroke-linecap="round" stroke-linejoin="round"/>
<path d="M725.939 424.551L736.984 401.612" stroke="#171717" stroke-width="3.611" stroke-linecap="round" stroke-linejoin="round"/>
<path d="M707.246 420.304L714.893 336.189" stroke="#171717" stroke-width="3.611" stroke-linecap="round" stroke-linejoin="round"/>
<path d="M736.984 471.282L759.925 472.132" stroke="#171717" stroke-width="3.611" stroke-linecap="round" stroke-linejoin="round"/>
<path d="M737.834 497.621L809.204 552.849" stroke="#171717" stroke-width="3.611" stroke-linecap="round" stroke-linejoin="round"/>
<path d="M771 766.138C778.244 757.39 783.328 747.059 785.84 735.982C788.352 724.905 788.223 713.393 785.462 702.375" stroke="url(#paint6_linear_46_7741)" stroke-width="3.611" stroke-linecap="round" stroke-linejoin="round"/>
<path fill-rule="evenodd" clip-rule="evenodd" d="M506.725 792.234C493.773 797.338 464.009 812.191 456.809 816.007C456.025 816.422 455.216 816.789 454.388 817.106L454.473 817.306C463.464 814.129 474.658 816.464 483.529 821.555C486.268 823.106 488.813 824.977 491.112 827.128C500.249 835.747 504.859 848.493 505.112 861.047C505.175 864.694 504.917 868.339 504.341 871.941C502.85 880.747 499.974 889.263 495.82 897.17L496.22 899.83C512.686 897.338 529.068 894.233 545.245 890.381C554.655 888.154 563.989 885.65 573.245 882.87C578.245 881.366 583.211 879.777 588.145 878.104C596.847 875.167 605.441 871.941 613.927 868.426C618.766 866.42 623.569 864.309 628.335 862.095C633.362 859.771 638.337 857.316 643.261 854.728C646.149 853.224 649.026 851.682 651.879 850.082C658.162 846.579 664.325 842.872 670.367 838.96C704.323 816.993 734.126 788.779 755.539 754.607C765.228 739.128 773.341 720.207 767.154 703.018C760.991 685.89 741.866 676.141 723.666 675.671C705.466 675.201 693.068 679.968 676.446 687.407L675.772 687.286L669.862 721.928L538.301 788.852L522.882 796.7L506.825 791.909L506.725 792.234ZM758.252 703.297C758.01 702.33 757.029 701.743 756.062 701.985C755.095 702.227 754.507 703.208 754.75 704.175C756.1 709.566 756.811 714.426 756.361 720.107C755.91 725.811 754.28 732.443 750.818 741.346C745.602 754.758 738.647 762.209 732.324 768.983C730.332 771.117 728.403 773.183 726.61 775.348C725.974 776.116 726.081 777.254 726.849 777.89C727.618 778.526 728.756 778.419 729.392 777.651C731.008 775.699 732.818 773.762 734.735 771.711L734.735 771.711C741.124 764.875 748.691 756.78 754.184 742.654C757.722 733.557 759.472 726.566 759.961 720.392C760.452 714.196 759.662 708.924 758.252 703.297Z" fill="#171717"/>
<path d="M500.246 483.5C524.838 459.1 527.921 416.176 507.065 388.517C496.273 374.204 479.987 363.554 473.737 346.753C465.858 325.574 476.606 302.161 489.337 283.486C502.068 264.811 517.554 246.459 520.403 224.042" stroke="url(#paint7_linear_46_7741)" stroke-width="3.611" stroke-linecap="round" stroke-linejoin="round"/>
<path d="M578.2 484.306C574.058 470.553 583.265 455.792 595.351 448.03C607.437 440.268 621.951 437.53 635.651 433.23C646.003 429.98 656.209 425.672 664.592 418.785C672.975 411.898 679.418 402.15 680.544 391.359" stroke="url(#paint8_linear_46_7741)" stroke-width="3.611" stroke-linecap="round" stroke-linejoin="round"/>
<path d="M364.527 243.04L344.136 222.647" stroke="url(#paint9_linear_46_7741)" stroke-width="3.611" stroke-linecap="round" stroke-linejoin="round"/>
<path d="M345.101 245.16L360.548 219.76" stroke="url(#paint10_linear_46_7741)" stroke-width="3.611" stroke-linecap="round" stroke-linejoin="round"/>
<path d="M749.558 323.151L772.622 309.767" stroke="url(#paint11_linear_46_7741)" stroke-width="3.611" stroke-linecap="round" stroke-linejoin="round"/>
<path d="M764.855 330.288C762.558 321.939 759.223 313.912 754.928 306.394" stroke="url(#paint12_linear_46_7741)" stroke-width="3.611" stroke-linecap="round" stroke-linejoin="round"/>
<path d="M307.063 316.646C303.663 312.398 300.263 308.15 296.863 303.902" stroke="url(#paint13_linear_46_7741)" stroke-width="3.611" stroke-linecap="round" stroke-linejoin="round"/>
<path d="M293.417 318.3C298.519 312.64 303.622 306.98 308.725 301.32" stroke="url(#paint14_linear_46_7741)" stroke-width="3.611" stroke-linecap="round" stroke-linejoin="round"/>
<path d="M578.1 164.56C573.672 158.759 570.49 152.106 568.753 145.019" stroke="#171717" stroke-width="3.611" stroke-linecap="round" stroke-linejoin="round"/>
<path d="M562.969 162.158C568.073 156.498 573.176 150.838 578.279 145.179" stroke="#171717" stroke-width="3.611" stroke-linecap="round" stroke-linejoin="round"/>
<path d="M488.665 426.701C483.302 424.013 478.953 419.663 476.265 414.301" stroke="#171717" stroke-width="3.611" stroke-linecap="round" stroke-linejoin="round"/>
<path d="M475.292 429.651C480.463 424.6 484.517 418.522 487.192 411.808" stroke="#171717" stroke-width="3.611" stroke-linecap="round" stroke-linejoin="round"/>
<path d="M279.874 651.408L241.641 655.231L272.652 685.393L279.874 651.408Z" stroke="url(#paint15_linear_46_7741)" stroke-width="3.611" stroke-linecap="round" stroke-linejoin="round"/>
<path d="M193.209 667.977L207.653 607.227L166.021 639.089L193.209 667.977Z" stroke="url(#paint16_linear_46_7741)" stroke-width="3.611" stroke-linecap="round" stroke-linejoin="round"/>
<path d="M228.47 551.575L254.81 532.457L232.294 522.262L228.47 551.575Z" stroke="url(#paint17_linear_46_7741)" stroke-width="3.611" stroke-linecap="round" stroke-linejoin="round"/>
<path d="M298.142 565.169L300.267 601.279L326.605 582.586L298.142 565.169Z" stroke="url(#paint18_linear_46_7741)" stroke-width="3.611" stroke-linecap="round" stroke-linejoin="round"/>
<path d="M328.729 510.79L298.566 488.7L335.526 474.256L328.729 510.79Z" stroke="url(#paint19_linear_46_7741)" stroke-width="3.611" stroke-linecap="round" stroke-linejoin="round"/>
<path d="M366.537 467.035L395.85 464.061L377.158 448.343L366.537 467.035Z" stroke="url(#paint20_linear_46_7741)" stroke-width="3.611" stroke-linecap="round" stroke-linejoin="round"/>
<path d="M442.581 461.511L461.273 483.602L477.842 460.661L442.581 461.511Z" stroke="url(#paint21_linear_46_7741)" stroke-width="3.611" stroke-linecap="round" stroke-linejoin="round"/>
<path d="M549.212 465.761L531.794 500.596L572.577 495.499L549.212 465.761Z" stroke="url(#paint22_linear_46_7741)" stroke-width="3.611" stroke-linecap="round" stroke-linejoin="round"/>
<path d="M535.652 488.448C555.964 475.302 567.585 449.886 564.24 425.923C561.108 403.492 546.54 384.604 537.02 364.055C522.398 332.51 520.085 294.076 536.57 263.463C555.021 229.195 592.916 209.9 615.948 178.528C625.508 165.351 632.28 150.362 635.851 134.478C639.422 118.595 639.716 102.15 636.716 86.1483C634.369 74.0073 629.903 61.9123 621.476 52.8633C613.049 43.8143 600.116 38.3213 588.07 41.1143C576.024 43.9073 566.285 56.3543 568.689 68.4843" stroke="#171717" stroke-width="3.611" stroke-linecap="round" stroke-linejoin="round"/>
<path d="M201.155 574.612L183.618 568.877" stroke="#171717" stroke-width="3.611" stroke-linecap="round" stroke-linejoin="round"/>
<path d="M190.377 578.621C191.432 573.252 193.345 568.088 196.041 563.327" stroke="#171717" stroke-width="3.611" stroke-linecap="round" stroke-linejoin="round"/>
<path d="M263.095 501.346L251.101 490.69" stroke="#171717" stroke-width="3.611" stroke-linecap="round" stroke-linejoin="round"/>
<path d="M248.101 503.218C253.689 498.641 258.841 493.555 263.491 488.027" stroke="#171717" stroke-width="3.611" stroke-linecap="round" stroke-linejoin="round"/>
<path d="M344.669 559.12L329.3 545.037" stroke="#171717" stroke-width="3.611" stroke-linecap="round" stroke-linejoin="round"/>
<path d="M328.494 561.563L339.785 545.676" stroke="#171717" stroke-width="3.611" stroke-linecap="round" stroke-linejoin="round"/>
<path d="M518.8 495.401C517.109 491.621 515.419 487.841 513.729 484.061" stroke="#171717" stroke-width="3.611" stroke-linecap="round" stroke-linejoin="round"/>
<path d="M509.2 493.45C514.504 491.483 519.428 488.614 523.753 484.969" stroke="#171717" stroke-width="3.611" stroke-linecap="round" stroke-linejoin="round"/>
<path d="M232.86 685.678L222.66 673.217" stroke="#171717" stroke-width="3.611" stroke-linecap="round" stroke-linejoin="round"/>
<path d="M220.4 687.375C224.744 683.033 229.086 678.69 233.428 674.347" stroke="#171717" stroke-width="3.611" stroke-linecap="round" stroke-linejoin="round"/>
<path d="M730.69 288.711C733.524 274.888 733.042 260.591 729.284 246.99" stroke="#171717" stroke-width="3.611" stroke-linecap="round" stroke-linejoin="round"/>
<path d="M396.381 182.5C395.39 174.648 396.35 166.672 399.177 159.279C402.004 151.886 406.61 145.304 412.588 140.116" stroke="#171717" stroke-width="3.611" stroke-linecap="round" stroke-linejoin="round"/>
<path d="M515.487 208.031C518.567 202.15 520.286 195.653 520.518 189.018C520.75 182.384 519.489 175.782 516.828 169.7" stroke="#171717" stroke-width="3.611" stroke-linecap="round" stroke-linejoin="round"/>
<path d="M743.822 276.415C742.959 270 742.096 263.585 741.232 257.171" stroke="#171717" stroke-width="3.611" stroke-linecap="round" stroke-linejoin="round"/>
<path fill-rule="evenodd" clip-rule="evenodd" d="M695.437 880.506C698.831 865.725 689.746 848.308 676.046 841.7C674.406 840.901 672.69 840.268 670.924 839.81L670.358 838.955C664.303 842.868 658.141 846.575 651.87 850.077L653.387 852.822C662.197 854.711 667.529 865.003 665.724 873.838C663.919 882.673 656.48 889.57 648.066 892.795C644.522 894.127 640.82 894.993 637.053 895.371C631.842 895.873 626.594 895.881 621.381 895.395C617.746 895.106 614.111 894.697 610.5 894.156C602.407 892.964 594.427 891.099 586.643 888.583C582.159 887.13 577.753 885.447 573.443 883.539L573.243 882.865C563.976 885.633 554.643 888.137 545.243 890.376L545.388 891.002C565.766 903.604 587.143 911.344 610.65 915.978C615.14 916.872 619.702 917.591 624.276 918.072C636.686 919.384 649.248 918.927 661.048 915.051C677.189 909.755 691.637 897.068 695.437 880.506ZM676.128 854.659C675.34 854.047 674.206 854.19 673.594 854.978C672.983 855.765 673.126 856.9 673.913 857.511C677.114 859.996 679.604 863.279 681.135 867.031C682.665 870.783 683.181 874.871 682.632 878.886C682.496 879.874 683.188 880.784 684.176 880.92C685.164 881.055 686.074 880.364 686.209 879.376C686.845 874.734 686.248 870.006 684.478 865.667C682.709 861.329 679.829 857.532 676.128 854.659Z" fill="url(#paint23_linear_46_7741)"/>
</g>
</g>
<defs>
<linearGradient id="paint0_linear_46_7741" x1="539.857" y1="526.374" x2="539.857" y2="796.7" gradientUnits="userSpaceOnUse">
<stop stop-color="#FFB800"/>
<stop offset="1" stop-color="#FF7F0A"/>
</linearGradient>
<linearGradient id="paint1_linear_46_7741" x1="628.122" y1="445.794" x2="628.122" y2="788.851" gradientUnits="userSpaceOnUse">
<stop stop-color="#FFB800"/>
<stop offset="1" stop-color="#FF7F0A"/>
</linearGradient>
<linearGradient id="paint2_linear_46_7741" x1="617.958" y1="388.524" x2="617.958" y2="412.186" gradientUnits="userSpaceOnUse">
<stop stop-color="#FFB800"/>
<stop offset="1" stop-color="#FF7F0A"/>
</linearGradient>
<linearGradient id="paint3_linear_46_7741" x1="621.981" y1="374.729" x2="621.981" y2="394.377" gradientUnits="userSpaceOnUse">
<stop stop-color="#FFB800"/>
<stop offset="1" stop-color="#FF7F0A"/>
</linearGradient>
<linearGradient id="paint4_linear_46_7741" x1="410.851" y1="815.854" x2="410.851" y2="907.047" gradientUnits="userSpaceOnUse">
<stop stop-color="#FFB800"/>
<stop offset="1" stop-color="#FF7F0A"/>
</linearGradient>
<linearGradient id="paint5_linear_46_7741" x1="443.492" y1="484.022" x2="443.492" y2="790.702" gradientUnits="userSpaceOnUse">
<stop stop-color="#FFB800"/>
<stop offset="1" stop-color="#FF7F0A"/>
</linearGradient>
<linearGradient id="paint6_linear_46_7741" x1="779.316" y1="702.375" x2="779.316" y2="766.138" gradientUnits="userSpaceOnUse">
<stop stop-color="#FFB800"/>
<stop offset="1" stop-color="#FF7F0A"/>
</linearGradient>
<linearGradient id="paint7_linear_46_7741" x1="495.976" y1="224.042" x2="495.976" y2="483.5" gradientUnits="userSpaceOnUse">
<stop stop-color="#FFB800"/>
<stop offset="1" stop-color="#FF7F0A"/>
</linearGradient>
<linearGradient id="paint8_linear_46_7741" x1="628.869" y1="391.359" x2="628.869" y2="484.306" gradientUnits="userSpaceOnUse">
<stop stop-color="#FFB800"/>
<stop offset="1" stop-color="#FF7F0A"/>
</linearGradient>
<linearGradient id="paint9_linear_46_7741" x1="354.331" y1="222.647" x2="354.331" y2="243.04" gradientUnits="userSpaceOnUse">
<stop stop-color="#FFB800"/>
<stop offset="1" stop-color="#FF7F0A"/>
</linearGradient>
<linearGradient id="paint10_linear_46_7741" x1="352.824" y1="219.76" x2="352.824" y2="245.16" gradientUnits="userSpaceOnUse">
<stop stop-color="#FFB800"/>
<stop offset="1" stop-color="#FF7F0A"/>
</linearGradient>
<linearGradient id="paint11_linear_46_7741" x1="761.09" y1="309.767" x2="761.09" y2="323.151" gradientUnits="userSpaceOnUse">
<stop stop-color="#FFB800"/>
<stop offset="1" stop-color="#FF7F0A"/>
</linearGradient>
<linearGradient id="paint12_linear_46_7741" x1="759.891" y1="306.394" x2="759.891" y2="330.288" gradientUnits="userSpaceOnUse">
<stop stop-color="#FFB800"/>
<stop offset="1" stop-color="#FF7F0A"/>
</linearGradient>
<linearGradient id="paint13_linear_46_7741" x1="301.963" y1="303.902" x2="301.963" y2="316.646" gradientUnits="userSpaceOnUse">
<stop stop-color="#FFB800"/>
<stop offset="1" stop-color="#FF7F0A"/>
</linearGradient>
<linearGradient id="paint14_linear_46_7741" x1="301.071" y1="301.32" x2="301.071" y2="318.3" gradientUnits="userSpaceOnUse">
<stop stop-color="#FFB800"/>
<stop offset="1" stop-color="#FF7F0A"/>
</linearGradient>
<linearGradient id="paint15_linear_46_7741" x1="260.757" y1="651.408" x2="260.757" y2="685.393" gradientUnits="userSpaceOnUse">
<stop stop-color="#FFB800"/>
<stop offset="1" stop-color="#FF7F0A"/>
</linearGradient>
<linearGradient id="paint16_linear_46_7741" x1="186.837" y1="607.227" x2="186.837" y2="667.977" gradientUnits="userSpaceOnUse">
<stop stop-color="#FFB800"/>
<stop offset="1" stop-color="#FF7F0A"/>
</linearGradient>
<linearGradient id="paint17_linear_46_7741" x1="241.64" y1="522.262" x2="241.64" y2="551.575" gradientUnits="userSpaceOnUse">
<stop stop-color="#FFB800"/>
<stop offset="1" stop-color="#FF7F0A"/>
</linearGradient>
<linearGradient id="paint18_linear_46_7741" x1="312.373" y1="565.169" x2="312.373" y2="601.279" gradientUnits="userSpaceOnUse">
<stop stop-color="#FFB800"/>
<stop offset="1" stop-color="#FF7F0A"/>
</linearGradient>
<linearGradient id="paint19_linear_46_7741" x1="317.046" y1="474.256" x2="317.046" y2="510.79" gradientUnits="userSpaceOnUse">
<stop stop-color="#FFB800"/>
<stop offset="1" stop-color="#FF7F0A"/>
</linearGradient>
<linearGradient id="paint20_linear_46_7741" x1="381.194" y1="448.343" x2="381.194" y2="467.035" gradientUnits="userSpaceOnUse">
<stop stop-color="#FFB800"/>
<stop offset="1" stop-color="#FF7F0A"/>
</linearGradient>
<linearGradient id="paint21_linear_46_7741" x1="460.212" y1="460.661" x2="460.212" y2="483.602" gradientUnits="userSpaceOnUse">
<stop stop-color="#FFB800"/>
<stop offset="1" stop-color="#FF7F0A"/>
</linearGradient>
<linearGradient id="paint22_linear_46_7741" x1="552.185" y1="465.761" x2="552.185" y2="500.596" gradientUnits="userSpaceOnUse">
<stop stop-color="#FFB800"/>
<stop offset="1" stop-color="#FF7F0A"/>
</linearGradient>
<linearGradient id="paint23_linear_46_7741" x1="620.697" y1="838.955" x2="620.697" y2="918.734" gradientUnits="userSpaceOnUse">
<stop stop-color="#FFB800"/>
<stop offset="1" stop-color="#FF7F0A"/>
</linearGradient>
<clipPath id="clip0_46_7741">
<rect width="960" height="960" fill="white"/>
</clipPath>
<clipPath id="clip1_46_7741">
<rect width="715" height="885" fill="white" transform="translate(123 38)"/>
</clipPath>
</defs>
</svg>
